<svg id="_15x15_photo_back" data-name="15x15 photo back" xmlns="http://www.w3.org/2000/svg" xmlns:xlink="http://www.w3.org/1999/xlink" width="15" height="15" viewBox="0 0 15 15">
  <defs>
    <clipPath id="clip-path">
      <rect id="Rectangle_4561" data-name="Rectangle 4561" width="15" height="15" fill="none"/>
    </clipPath>
  </defs>
  <g id="Mask_Group_501" data-name="Mask Group 501" clip-path="url(#clip-path)">
    <g id="plane-2" transform="translate(0 0.036)">
      <path id="Path_22069" data-name="Path 22069" d="M1.416,4.19a.336.336,0,0,0,.235.094.3.3,0,0,0,.235-.094l.164-.164-.094-.915-.539.563A.368.368,0,0,0,1.416,4.19Zm.821-2.908.539,4.526v.023l.164,1.5.211,1.43a.245.245,0,0,0,.422.141L6.106,6.582a.252.252,0,0,0,.047-.328A43.037,43.037,0,0,1,2.963.18C2.94.157,2.94.133,2.916.11a.191.191,0,0,0-.281,0,1.422,1.422,0,0,0-.4,1.173Zm6.5-.164L9.365,3.3a.279.279,0,0,0,.352.164,2.891,2.891,0,0,1,.8-.258.25.25,0,0,0,.164-.375L9.318.79A.248.248,0,0,0,8.943.743L8.826.86A.259.259,0,0,0,8.732,1.118Zm1.829,3.518a.17.17,0,0,0,.235,0L12.2,3.205a.149.149,0,0,0-.211-.211l-1.43,1.43A.132.132,0,0,0,10.561,4.636Zm1.313,1.126,2.04.492a.225.225,0,0,0,.235-.07l.141-.141a.243.243,0,0,0-.023-.375L12.39,4.4a.26.26,0,0,0-.4.164,3.574,3.574,0,0,1-.281.844A.246.246,0,0,0,11.875,5.762ZM6.411,11.788,7.771,12l1.5.164L13.8,12.7a1.4,1.4,0,0,0,1.149-.4.191.191,0,0,0,0-.281.18.18,0,0,0-.07-.047A40.679,40.679,0,0,1,8.943,8.81a.222.222,0,0,0-.3.047L6.27,11.366A.257.257,0,0,0,6.411,11.788Zm4.479,1.759a.368.368,0,0,0,.516,0l.563-.539-.891-.094-.164.164a.336.336,0,0,0-.094.235A.238.238,0,0,0,10.89,13.547Zm-3.142-.469a.368.368,0,0,0,.516,0l.469-.446-.891-.094-.07.07a.3.3,0,0,0-.023.469ZM.2,14.79c.516.516,2.2-.117,3.049-.938L10.96,5.668a2.264,2.264,0,0,0,.469-.985l-.3.3a.663.663,0,0,1-.938-.938l.375-.328a2.726,2.726,0,0,0-1.079.492l-8.325,7.6A3.942,3.942,0,0,0,.008,14.227.772.772,0,0,0,.2,14.79Zm1.079-2.017h0a.282.282,0,0,1,.281.211.469.469,0,0,0,.446.4h.07a.228.228,0,0,1,.235.258.277.277,0,0,1-.258.258h-.07a.937.937,0,0,1-.915-.844.26.26,0,0,1,.211-.281Zm.586-5.441a.336.336,0,0,0,.235.094.417.417,0,0,0,.235-.094l.07-.07-.094-.891-.446.469a.388.388,0,0,0,0,.492Z" transform="translate(-0.008 -0.048)" fill="#c4c2c2"/>
    </g>
  </g>
</svg>
