<svg id="Group_3138" data-name="Group 3138" xmlns="http://www.w3.org/2000/svg" width="10" height="15" viewBox="0 0 10 15">
  <g id="delivery-man">
    <path id="Path_15213" data-name="Path 15213" d="M91.808,117.273a.527.527,0,0,0-.493-.491l-1.667-.027a.235.235,0,0,1-.21-.194l-.367-2.482a.507.507,0,0,0-.523-.456l-2.073.1a.48.48,0,0,0-.5.55s-.009,5.516-.019,5.716l-.073,1.365a2.373,2.373,0,0,1-.146.644l-.839,2.018a.5.5,0,0,0,0,.4.455.455,0,0,0,.3.25l.279.074a.506.506,0,0,0,.129.017.6.6,0,0,0,.537-.346l.8-1.728a4.37,4.37,0,0,0,.244-.721l.45-1.993,1.089,1.77a1.763,1.763,0,0,1,.2.6l.211,1.982a.569.569,0,0,0,.539.512H90a.455.455,0,0,0,.35-.163.517.517,0,0,0,.117-.387l-.22-2.356a3.611,3.611,0,0,0-.167-.751l-.976-2.709-.006-.571,2.268-.089a.444.444,0,0,0,.326-.162.5.5,0,0,0,.114-.363Zm-2.124,7.391Z" transform="translate(-84.864 -109.83)" fill="#3c3c3c"/>
    <path id="Path_15214" data-name="Path 15214" d="M109.992,3.268a1.634,1.634,0,0,0,1.624-1.811l.547-.062a.58.58,0,0,0,.45-.354l.183-.5a.32.32,0,0,0-.028-.3.307.307,0,0,0-.258-.126l-.039,0L110.89.27a1.633,1.633,0,1,0-.9,3Z" transform="translate(-107.574)" fill="#3c3c3c"/>
  </g>
  <path id="_007-gift" data-name="007-gift" d="M1.877,4.4v-2a.072.072,0,0,1,.069-.074h.343a.072.072,0,0,1,.069.074v2a.072.072,0,0,1-.069.074H1.945A.072.072,0,0,1,1.877,4.4ZM1.671,2.32l-1.251,0a.072.072,0,0,0-.069.074V4.1a.359.359,0,0,0,.343.372h.977A.072.072,0,0,0,1.74,4.4v-2a.072.072,0,0,0-.069-.074Zm2.142,0c-.179,0-.682,0-1.251,0a.072.072,0,0,0-.069.074v2a.072.072,0,0,0,.069.074h.977A.359.359,0,0,0,3.882,4.1V2.392a.072.072,0,0,0-.069-.074ZM1.637,2.171H2.6A.072.072,0,0,0,2.665,2.1v-.98A.072.072,0,0,0,2.6,1.042h-.96a.072.072,0,0,0-.069.074V2.1A.072.072,0,0,0,1.637,2.171ZM3.831,1.042h-.96a.072.072,0,0,0-.069.074V2.1a.072.072,0,0,0,.069.074h.96A.359.359,0,0,0,4.173,1.8V1.414A.359.359,0,0,0,3.831,1.042Zm-2.468,0H.4a.359.359,0,0,0-.343.372V1.8A.359.359,0,0,0,.4,2.171h.96A.072.072,0,0,0,1.431,2.1v-.98A.072.072,0,0,0,1.363,1.042ZM2.6,0a.516.516,0,0,0-.34.128.079.079,0,0,0-.011.1.065.065,0,0,0,.1.012A.387.387,0,0,1,2.6.149a.447.447,0,0,1,.372.638.073.073,0,0,0,.063.106A.067.067,0,0,0,3.092.851.6.6,0,0,0,2.6,0ZM1.645,0a.6.6,0,0,0-.5.851A.067.067,0,0,0,1.2.893a.073.073,0,0,0,.06-.106.446.446,0,0,1,.38-.638.436.436,0,0,1,.4.454V.82a.069.069,0,1,0,.137,0V.605a.581.581,0,0,0-.54-.6Z" transform="translate(5.827 1.267)" fill="#ff7272"/>
</svg>
