<svg xmlns="http://www.w3.org/2000/svg" width="16.527" height="21.15" viewBox="0 0 16.527 21.15">
  <g id="Group_4511" data-name="Group 4511" transform="translate(16.527) rotate(90)">
    <g id="Group_2859" data-name="Group 2859" transform="translate(0 2.682)">
      <path id="Path_15080" data-name="Path 15080" d="M17.521,9.654H16.049a6.8,6.8,0,0,1-5.383-2.67L7.716,3.1A6.079,6.079,0,0,0,2.9.715H.358A.358.358,0,1,1,.358,0H2.9A6.8,6.8,0,0,1,8.285,2.67l2.95,3.882a6.079,6.079,0,0,0,4.814,2.388h1.472a.358.358,0,0,1,0,.715Zm0,0" transform="translate(0 0.715)" fill="#5d5d5d"/>
      <path id="Path_15081" data-name="Path 15081" d="M7.881,7.955a.357.357,0,0,1-.232-.085,6.772,6.772,0,0,1-1-1.056L3.7,2.932A6.06,6.06,0,0,0,.276.706.358.358,0,0,1,.44.01,6.777,6.777,0,0,1,4.27,2.5L7.22,6.381a6.063,6.063,0,0,0,.893.944.358.358,0,0,1-.232.63Zm0,0" transform="translate(3.121 2.495)" fill="#5d5d5d"/>
      <path id="Path_15082" data-name="Path 15082" d="M1.83,9.654H.358a.358.358,0,1,1,0-.715H1.83A6.079,6.079,0,0,0,6.643,6.552L9.593,2.67A6.8,6.8,0,0,1,14.976,0h2.545a.358.358,0,1,1,0,.715H14.976A6.079,6.079,0,0,0,10.163,3.1L7.213,6.984A6.8,6.8,0,0,1,1.83,9.654Zm0,0" fill="#5d5d5d"/>
      <path id="Path_15083" data-name="Path 15083" d="M.357,3.4a.354.354,0,0,1-.181-.05.357.357,0,0,1-.126-.49C1.534.339,3.819,0,5.858,0H8.4a.358.358,0,1,1,0,.715H5.858c-1.93,0-3.894.3-5.193,2.506A.358.358,0,0,1,.357,3.4Zm0,0" transform="translate(10.369 1.252)" fill="#5d5d5d"/>
    </g>
    <path id="Path_15084" data-name="Path 15084" d="M1.435.167,5.03,2.691a.911.911,0,0,1,0,1.492L1.435,6.707A.911.911,0,0,1,0,5.961V.913A.911.911,0,0,1,1.435.167Zm0,0" transform="translate(15.375 9.296)" fill="#8e8e8e"/>
    <path id="Path_15085" data-name="Path 15085" d="M1.269,7.587A1.27,1.27,0,0,1,0,6.318V1.27A1.269,1.269,0,0,1,2,.231L5.593,2.755a1.269,1.269,0,0,1,0,2.077L2,7.356A1.267,1.267,0,0,1,1.269,7.587Zm0-6.873a.555.555,0,0,0-.257.064.545.545,0,0,0-.3.491V6.318a.554.554,0,0,0,.872.453l3.6-2.524a.554.554,0,0,0,0-.906L1.587.817A.549.549,0,0,0,1.27.714Zm0,0" transform="translate(15.018 8.939)" fill="#5d5d5d"/>
    <path id="Path_15086" data-name="Path 15086" d="M1.435.167,5.03,2.691a.911.911,0,0,1,0,1.492L1.435,6.707A.911.911,0,0,1,0,5.961V.913A.911.911,0,0,1,1.435.167Zm0,0" transform="translate(15.375 0.357)" fill="#b7ffca"/>
    <path id="Path_15087" data-name="Path 15087" d="M1.269,7.587A1.27,1.27,0,0,1,0,6.318V1.27A1.269,1.269,0,0,1,2,.231L5.593,2.755a1.269,1.269,0,0,1,0,2.077L2,7.356A1.266,1.266,0,0,1,1.269,7.587Zm0-6.873a.557.557,0,0,0-.257.064.545.545,0,0,0-.3.491V6.318a.554.554,0,0,0,.872.453l3.6-2.524a.554.554,0,0,0,0-.906L1.587.817A.548.548,0,0,0,1.27.714Zm0,0" transform="translate(15.018 0)" fill="#5d5d5d"/>
  </g>
</svg>
