<svg xmlns="http://www.w3.org/2000/svg" xmlns:xlink="http://www.w3.org/1999/xlink" width="36" height="30" viewBox="0 0 36 30">
  <defs>
    <linearGradient id="linear-gradient" x1="0.5" y1="0.955" x2="0.5" gradientUnits="objectBoundingBox">
      <stop offset="0" stop-color="#f53c3c"/>
      <stop offset="1" stop-color="#ff9696"/>
    </linearGradient>
  </defs>
  <g id="Group_10817" data-name="Group 10817" transform="translate(-1282 -140)">
    <g id="Group_4037" data-name="Group 4037" transform="translate(1292.351 140)">
      <g id="Group_4033" data-name="Group 4033" transform="translate(0 0)">
        <g id="Group_4032" data-name="Group 4032">
          <path id="Path_15859" data-name="Path 15859" d="M-1.161-1.843H16.763l3.387,18.689s-1.695,2.6-2.67,2.6c-.739,0-13.66.426-19.807-.327-1.621-.2-2.186-2.27-2.186-2.27Z" transform="translate(5.058 10.137)" fill="#2c2a2a"/>
          <g id="bag-5">
            <g id="Group_2946" data-name="Group 2946">
              <path id="Path_15168" data-name="Path 15168" d="M63.6,56.749H82.048a3.605,3.605,0,0,0,3.6-3.6.383.383,0,0,0-.006-.068L82.648,36.173a1.987,1.987,0,0,0-1.972-1.683H78.519V32.443a5.694,5.694,0,1,0-11.389,0v2.046H64.973A1.987,1.987,0,0,0,63,36.173L60.006,53.08a.389.389,0,0,0-.006.068A3.605,3.605,0,0,0,63.6,56.749Zm4.314-24.306a4.909,4.909,0,0,1,9.818,0v2.046H67.915Zm-4.141,3.863V36.3a1.206,1.206,0,0,1,1.2-1.024H67.13v3.107a.393.393,0,1,0,.785,0V35.275h9.818v3.107a.393.393,0,1,0,.785,0V35.275h2.157a1.206,1.206,0,0,1,1.2,1.024v.008l2.989,16.875a2.819,2.819,0,0,1-2.815,2.782H63.6a2.819,2.819,0,0,1-2.816-2.782Z" transform="translate(-60 -26.749)" fill="#3c3c3c"/>
            </g>
          </g>
        </g>
        <path id="Path_15172" data-name="Path 15172" d="M0,0S3.143,2.683,6.516,2.683,13.491,0,13.491,0" transform="translate(6.079 19.601)" fill="none" stroke="#fce66e" stroke-linecap="round" stroke-width="0.6"/>
      </g>
    </g>
    <g id="Group_10626" data-name="Group 10626" transform="translate(1282 149.823)">
      <g id="Group_4033-2" data-name="Group 4033" transform="translate(0 0)">
        <g id="Group_4032-2" data-name="Group 4032">
          <path id="Path_15859-2" data-name="Path 15859" d="M-2.258-1.843H9.8l2.278,12.57s-1.14,1.748-1.8,1.747a127.2,127.2,0,0,1-13.321-.22c-1.091-.134-1.47-1.527-1.47-1.527Z" transform="translate(4.879 7.421)" fill="url(#linear-gradient)"/>
          <g id="bag-5-2" data-name="bag-5">
            <g id="Group_2946-2" data-name="Group 2946">
              <path id="Path_15168-2" data-name="Path 15168" d="M62.422,46.926H74.829A2.425,2.425,0,0,0,77.251,44.5a.259.259,0,0,0,0-.046L75.232,33.087a1.336,1.336,0,0,0-1.326-1.132H72.455V30.579a3.83,3.83,0,1,0-7.66,0v1.376H63.344a1.336,1.336,0,0,0-1.326,1.132L60,44.458a.262.262,0,0,0,0,.046A2.425,2.425,0,0,0,62.422,46.926Zm2.9-16.347a3.3,3.3,0,0,1,6.6,0v1.376h-6.6Zm-2.785,2.6v-.005a.811.811,0,0,1,.8-.689H64.8v2.089a.264.264,0,1,0,.528,0V32.483h6.6v2.089a.264.264,0,1,0,.528,0V32.483h1.451a.811.811,0,0,1,.8.689v.005l2.011,11.35A1.9,1.9,0,0,1,74.829,46.4H62.422a1.9,1.9,0,0,1-1.894-1.871Z" transform="translate(-60 -26.749)" fill="#3c3c3c"/>
            </g>
          </g>
        </g>
      </g>
    </g>
  </g>
</svg>
