<svg xmlns="http://www.w3.org/2000/svg" xmlns:xlink="http://www.w3.org/1999/xlink" width="51" height="30" viewBox="0 0 51 30">
  <defs>
    <filter id="Path_21301" x="43.5" y="18.018" width="7.5" height="7.5" filterUnits="userSpaceOnUse">
      <feOffset dy="3" input="SourceAlpha"/>
      <feGaussianBlur stdDeviation="2" result="blur"/>
      <feFlood flood-color="#ffffff" flood-opacity="0.302" result="color"/>
      <feComposite operator="out" in="SourceGraphic" in2="blur"/>
      <feComposite operator="in" in="color"/>
      <feComposite operator="in" in2="SourceGraphic"/>
    </filter>
    <filter id="Path_21300" x="0" y="0" width="30" height="30" filterUnits="userSpaceOnUse">
      <feOffset dy="4" input="SourceAlpha"/>
      <feGaussianBlur stdDeviation="3" result="blur-2"/>
      <feFlood flood-color="#ffffff" flood-opacity="0.502" result="color-2"/>
      <feComposite operator="out" in="SourceGraphic" in2="blur-2"/>
      <feComposite operator="in" in="color-2"/>
      <feComposite operator="in" in2="SourceGraphic"/>
    </filter>
  </defs>
  <g id="Group_10898" data-name="Group 10898" transform="translate(-25 -855)">
    <path id="Path_21306" data-name="Path 21306" d="M5.853,2.811c-.479,0-.978-.022-1.482-.067A.188.188,0,0,1,4.4,2.371c.493.043.98.065,1.449.065.492,0,1-.024,1.513-.072a.188.188,0,0,1,.035.373C6.877,2.786,6.356,2.811,5.853,2.811ZM1.429,2.264a.188.188,0,0,1-.042,0c-.922-.212-1.872-.48-2.9-.821A.188.188,0,0,1-1.635,1.2.188.188,0,0,1-1.4,1.082c1.02.337,1.958.6,2.869.811a.188.188,0,0,1-.042.37Zm8.908-.036a.188.188,0,0,1-.045-.369,22.549,22.549,0,0,0,2.83-.909.187.187,0,1,1,.138.349,22.926,22.926,0,0,1-2.878.924A.188.188,0,0,1,10.337,2.228Z" transform="translate(54.56 877.895)"/>
    <g data-type="innerShadowGroup">
      <path id="Path_21301-2" data-name="Path 21301" d="M3.75,7.5A3.75,3.75,0,1,1,7.5,3.75,3.75,3.75,0,0,1,3.75,7.5Z" transform="translate(68.5 873.018)"/>
      <g transform="matrix(1, 0, 0, 1, 25, 855)" filter="url(#Path_21301)">
        <path id="Path_21301-3" data-name="Path 21301" d="M3.75,7.5A3.75,3.75,0,1,1,7.5,3.75,3.75,3.75,0,0,1,3.75,7.5Z" transform="translate(43.5 18.02)"/>
      </g>
    </g>
    <g data-type="innerShadowGroup">
      <path id="Path_21300-2" data-name="Path 21300" d="M15,0A15,15,0,1,0,30,15,15,15,0,0,0,15,0Z" transform="translate(25 855)"/>
      <g transform="matrix(1, 0, 0, 1, 25, 855)" filter="url(#Path_21300)">
        <path id="Path_21300-3" data-name="Path 21300" d="M15,0A15,15,0,1,0,30,15,15,15,0,0,0,15,0Z" transform="translate(0)" fill="#f53c3c"/>
      </g>
    </g>
  </g>
</svg>
