<svg id="_20x20" data-name="20x20" xmlns="http://www.w3.org/2000/svg" xmlns:xlink="http://www.w3.org/1999/xlink" width="20" height="20" viewBox="0 0 20 20">
  <defs>
    <clipPath id="clip-path">
      <rect id="Rectangle_4612" data-name="Rectangle 4612" width="20" height="20" fill="none"/>
    </clipPath>
  </defs>
  <g id="Mask_Group_366" data-name="Mask Group 366" clip-path="url(#clip-path)">
    <path id="comm-16_chat" d="M10.353.353A9.971,9.971,0,0,0,1.726,15.371L.371,19.438a.333.333,0,0,0,.422.422l3.889-1.3A9.991,9.991,0,1,0,10.353.353Zm-3.342,9a1,1,0,1,1-1,1,1,1,0,0,1,1-1Zm3.342,0a1,1,0,1,1-1,1,1,1,0,0,1,1-1Zm3.325,0a1,1,0,1,1-1,1,1,1,0,0,1,1-1Z" transform="translate(-0.353 -0.344)" fill="#505050"/>
  </g>
</svg>
