<svg xmlns="http://www.w3.org/2000/svg" width="26.499" height="25" viewBox="0 0 26.499 25">
  <g id="Group_10590" data-name="Group 10590" transform="translate(0.473)">
    <circle id="Ellipse_163" data-name="Ellipse 163" cx="1.562" cy="1.562" r="1.562" transform="translate(7.793 12.763)" fill="#505050"/>
    <path id="Path_14966" data-name="Path 14966" d="M23.213,11.359a29.553,29.553,0,0,0,.229-3c0-5.758-6.711-7.9-10.94-7.9A8.528,8.528,0,0,0,7.111,2.5a5.615,5.615,0,0,0-5.549,5.86,29.475,29.475,0,0,0,.229,3,2.849,2.849,0,0,0,.856,5.485,10.416,10.416,0,0,0,19.713,0,2.849,2.849,0,0,0,.854-5.486ZM21.019,15.91h0A8.855,8.855,0,0,1,3.761,14.88L4.8,11.242A6.753,6.753,0,0,0,8.718,8.356c1.4,1.324,4.542,2.95,11.53,3.035l1,3.488A8.827,8.827,0,0,1,21.019,15.91Z" transform="translate(1.022 0.324)" fill="#505050"/>
    <circle id="Ellipse_164" data-name="Ellipse 164" cx="1.562" cy="1.562" r="1.562" transform="translate(16.128 12.763)" fill="#505050"/>
    <path id="Path_14967" data-name="Path 14967" d="M13.46,15.785a2.991,2.991,0,0,1-4.121,0,.782.782,0,0,0-1.085,1.126,4.578,4.578,0,0,0,6.3,0,.782.782,0,1,0-1.085-1.126Z" transform="translate(2.127 2.406)" fill="#505050"/>
    <rect id="Rectangle_4589" data-name="Rectangle 4589" width="25" height="25" transform="translate(-0.473)" fill="none"/>
  </g>
</svg>
