<svg id="_20x20" data-name="20x20" xmlns="http://www.w3.org/2000/svg" xmlns:xlink="http://www.w3.org/1999/xlink" width="20" height="20" viewBox="0 0 20 20">
  <defs>
    <clipPath id="clip-path">
      <rect id="Rectangle_4612" data-name="Rectangle 4612" width="20" height="20" fill="none"/>
    </clipPath>
  </defs>
  <g id="Mask_Group_382" data-name="Mask Group 382" clip-path="url(#clip-path)">
    <g id="Layer_12" transform="translate(-0.756 -0.756)">
      <path id="Path_21558" data-name="Path 21558" d="M17.827,3.685A9.934,9.934,0,0,0,10.756.756h0A10,10,0,0,0,3.685,17.827a9.934,9.934,0,0,0,7.071,2.929h0A10,10,0,0,0,17.827,3.685ZM4.042,4.042A9.5,9.5,0,0,1,19.906,8.21a8.385,8.385,0,0,0-11.042.654,2.68,2.68,0,0,0,0,3.785c.021.021.044.039.065.059A7.815,7.815,0,0,1,2.937,5.369,9.6,9.6,0,0,1,4.042,4.042ZM9.22,9.22a2.172,2.172,0,1,1,0,3.072A2.166,2.166,0,0,1,9.22,9.22Zm1.536,11.032A9.5,9.5,0,0,1,2.484,6.09a8.392,8.392,0,0,0,8.086,7.334l.011,0c.058,0,.116.008.175.008a2.668,2.668,0,0,0,2.672-2.749,7.876,7.876,0,0,1-.954,9.414,9.6,9.6,0,0,1-1.718.157Zm6.714-2.781A9.44,9.44,0,0,1,13.3,19.906a8.385,8.385,0,0,0-.654-11.042,2.667,2.667,0,0,0-1.967-.779,7.876,7.876,0,0,1,9.413.954,9.6,9.6,0,0,1,.157,1.718,9.434,9.434,0,0,1-2.781,6.715Z" fill="#8d8d8d"/>
    </g>
  </g>
</svg>
