<svg xmlns="http://www.w3.org/2000/svg" xmlns:xlink="http://www.w3.org/1999/xlink" width="20" height="20" viewBox="0 0 20 20">
  <defs>
    <linearGradient id="linear-gradient" x1="0.5" x2="0.5" y2="1" gradientUnits="objectBoundingBox">
      <stop offset="0" stop-color="#f46eff"/>
      <stop offset="0.34" stop-color="#61f8ec"/>
      <stop offset="0.69" stop-color="#ffe943"/>
      <stop offset="1" stop-color="#ff6767"/>
    </linearGradient>
  </defs>
  <g id="Exclusion_2" data-name="Exclusion 2" fill="url(#linear-gradient)">
    <path d="M 10.00139045715332 19.85000038146973 C 4.569320201873779 19.85000038146973 0.1500000059604645 15.43136024475098 0.1500000059604645 10.00012016296387 C 0.1500000059604645 4.568749904632568 4.569320201873779 0.1500000059604645 10.00139045715332 0.1500000059604645 C 15.43192958831787 0.1500000059604645 19.85000038146973 4.568749904632568 19.85000038146973 10.00012016296387 C 19.85000038146973 15.43136024475098 15.43192958831787 19.85000038146973 10.00139045715332 19.85000038146973 Z M 10.00139045715332 3.980350017547607 C 6.683460235595703 3.980350017547607 3.984119892120361 6.68080997467041 3.984119892120361 10.00012016296387 C 3.984119892120361 13.31916999816895 6.683460235595703 16.0194206237793 10.00139045715332 16.0194206237793 C 13.31727981567383 16.0194206237793 16.01494979858398 13.31916999816895 16.01494979858398 10.00012016296387 C 16.01494979858398 6.68080997467041 13.31727981567383 3.980350017547607 10.00139045715332 3.980350017547607 Z" stroke="none"/>
    <path d="M 10.00139045715332 19.70000076293945 C 15.34922027587891 19.70000076293945 19.70000076293945 15.3486499786377 19.70000076293945 10.00012016296387 C 19.70000076293945 4.65146017074585 15.34922027587891 0.300000011920929 10.00139045715332 0.300000011920929 C 4.652029991149902 0.300000011920929 0.300000011920929 4.65146017074585 0.300000011920929 10.00012016296387 C 0.300000011920929 15.3486499786377 4.652029991149902 19.70000076293945 10.00139045715332 19.70000076293945 M 10.00139045715332 3.830349922180176 C 13.39999008178711 3.830349922180176 16.16494941711426 6.598100185394287 16.16494941711426 10.00012016296387 C 16.16494941711426 13.40188026428223 13.39999008178711 16.16942024230957 10.00139045715332 16.16942024230957 C 6.600749969482422 16.16942024230957 3.834120035171509 13.40188026428223 3.834120035171509 10.00012016296387 C 3.834120035171509 6.598100185394287 6.600749969482422 3.830349922180176 10.00139045715332 3.830349922180176 M 10.00139045715332 20 C 4.48613977432251 20 0 15.51451969146729 0 10.00012016296387 C 0 4.485939979553223 4.48613977432251 0 10.00139045715332 0 C 15.51385974884033 0 20 4.485939979553223 20 10.00012016296387 C 20 15.51451969146729 15.51385974884033 20 10.00139045715332 20 Z M 10.00139045715332 4.130350112915039 C 6.765429973602295 4.130350112915039 4.134119987487793 6.763519763946533 4.134119987487793 10.00012016296387 C 4.134119987487793 13.23624992370605 6.765429973602295 15.86942005157471 10.00139045715332 15.86942005157471 C 13.23456954956055 15.86942005157471 15.86495018005371 13.23624992370605 15.86495018005371 10.00012016296387 C 15.86495018005371 6.763519763946533 13.23456954956055 4.130350112915039 10.00139045715332 4.130350112915039 Z" stroke="none" fill="#707070"/>
  </g>
</svg>
