<svg xmlns="http://www.w3.org/2000/svg" width="20" height="20" viewBox="0 0 20 20">
  <g id="Group_3656" data-name="Group 3656" transform="translate(-9.32)">
    <g id="Group_3653" data-name="Group 3653" transform="translate(9.32)">
      <g id="Group_3130" data-name="Group 3130">
        <g id="Group_3129" data-name="Group 3129">
          <g id="Group_3128" data-name="Group 3128">
            <g id="Group_3127" data-name="Group 3127">
              <g id="Group_3126" data-name="Group 3126">
                <g id="Group_3125" data-name="Group 3125">
                  <g id="Group_3124" data-name="Group 3124">
                    <g id="Group_712" data-name="Group 712" transform="translate(8.172 12.564)">
                      <path id="Path_14078" data-name="Path 14078" d="M34,42h5.311a1.061,1.061,0,0,1,1.062,1.062v4.957a1.061,1.061,0,0,1-1.062,1.062H34a.71.71,0,0,0,.708-.708V42.708A.713.713,0,0,0,34,42Z" transform="translate(-31.875 -42)" fill="#95ffe1"/>
                      <path id="Path_14079" data-name="Path 14079" d="M29.416,42.708v.708H28A1.416,1.416,0,0,1,29.416,42h.708A.71.71,0,0,0,29.416,42.708Z" transform="translate(-28 -42)" fill="#95ffe1"/>
                      <path id="Path_14080" data-name="Path 14080" d="M29.416,58.708a.713.713,0,0,0,.708.708h-.708A1.416,1.416,0,0,1,28,58h1.416Z" transform="translate(-28 -52.335)" fill="#95ffe1"/>
                    </g>
                    <path id="Path_14081" data-name="Path 14081" d="M33.416,58v.708a.71.71,0,0,1-.708.708A.713.713,0,0,1,32,58.708V58Z" transform="translate(-22.067 -39.77)" fill="#37bc9b"/>
                    <path id="Path_14082" data-name="Path 14082" d="M33.416,42.708v.708H32v-.708A.71.71,0,0,1,32.708,42a.713.713,0,0,1,.708.708Z" transform="translate(-22.067 -28.863)" fill="#37bc9b"/>
                    <path id="Path_14083" data-name="Path 14083" d="M25.541,46h1.416v4.249H22V46h3.541Z" transform="translate(-15.419 -32.019)" fill="#ccd1d9"/>
                    <path id="Path_14084" data-name="Path 14084" d="M7.665,38.249H9.082V42.5H6.249A4.248,4.248,0,0,1,2,38.249V34a4.243,4.243,0,0,0,4.249,4.249Z" transform="translate(-1.646 -24.269)" fill="#ccd1d9"/>
                    <path id="Path_14085" data-name="Path 14085" d="M20,12c0,1.962,3.02,3.456,7.082,3.537v0H20Z" transform="translate(-14.156 -8.518)" fill="#fcd770"/>
                    <path id="Path_14086" data-name="Path 14086" d="M40.354,15.541c4.238,0,7.436-1.523,7.436-3.541v4.249c0,2.018-3.2,3.541-7.436,3.541H40V15.537C40.117,15.541,40.234,15.541,40.354,15.541Z" transform="translate(-28.145 -8.642)" fill="#e6e9ed"/>
                    <path id="Path_14087" data-name="Path 14087" d="M14.039,22h1.416v4.249H7.467A3.3,3.3,0,0,0,4.125,29.79l-.06.106A4.252,4.252,0,0,1,6.249,22h7.79Z" transform="translate(-1.646 -15.597)" fill="#e6e9ed"/>
                    <path id="Path_14088" data-name="Path 14088" d="M27.436,2c4.238,0,7.436,1.523,7.436,3.541s-3.2,3.541-7.436,3.541c-.12,0-.237,0-.354,0C23.02,9,20,7.5,20,5.541,20,3.523,23.2,2,27.436,2Z" transform="translate(-15.226 -1.646)" fill="#95ffe1"/>
                    <ellipse id="Ellipse_98" data-name="Ellipse 98" cx="3.023" cy="0.605" rx="3.023" ry="0.605" transform="translate(9.546 2.606)" fill="#37bc9b"/>
                    <path id="Path_14089" data-name="Path 14089" d="M35.833,8.541c1.588,0,2.833-.778,2.833-1.77S37.421,5,35.833,5,33,5.778,33,6.77,34.244,8.541,35.833,8.541Zm0-2.833c1.252,0,2.124.56,2.124,1.062s-.872,1.062-2.124,1.062-2.125-.56-2.125-1.062S34.581,5.708,35.833,5.708Z" transform="translate(-23.029 -3.584)" fill="#404040"/>
                    <path id="Path_14090" data-name="Path 14090" d="M13.9,1c-4.112,0-7.1,1.492-7.1,3.548v2.9H5.194A4.2,4.2,0,0,0,1,11.645v3.871A4.2,4.2,0,0,0,5.194,19.71H9.42A1.616,1.616,0,0,0,11,21h5.484a1.292,1.292,0,0,0,1.29-1.29V15.194a1.292,1.292,0,0,0-1.29-1.29H11a1.616,1.616,0,0,0-1.58,1.29H5.194a3.521,3.521,0,0,1-1.61-.39A2.686,2.686,0,0,1,6.3,11.968h7.6c4.112,0,7.1-1.492,7.1-3.548V4.548C21,2.492,18.015,1,13.9,1Zm0,.645c3.618,0,6.452,1.275,6.452,2.9s-2.834,2.9-6.452,2.9-6.452-1.275-6.452-2.9S10.285,1.645,13.9,1.645ZM7.452,6.095A5.35,5.35,0,0,0,9.675,7.452H7.452ZM1.645,15.516V13.87a4.191,4.191,0,0,0,3.226,1.953v1.307h.645v-1.29h.645v1.29h.645v-1.29h.645v2.581H8.1V15.839h.645v1.29h.645v-1.29h.645v1.29h.645v-1.29h1.29v3.226H5.194A3.553,3.553,0,0,1,1.645,15.516Zm9.677-.645a.323.323,0,0,1,.645,0v.323h-.645Zm0,5.161V19.71h.645v.323a.323.323,0,0,1-.645,0Zm-1.231-.323h.586v.323a.949.949,0,0,0,.045.277A.966.966,0,0,1,10.092,19.71Zm7.037-4.516V19.71a.646.646,0,0,1-.645.645h-3.93a.957.957,0,0,0,.059-.323V14.871a.957.957,0,0,0-.059-.323h3.93A.646.646,0,0,1,17.129,15.194Zm-6.406-.6a.949.949,0,0,0-.045.277v.323h-.586A.966.966,0,0,1,10.723,14.594Zm9.632-6.175c0,1.628-2.834,2.9-6.452,2.9H6.3A3.259,3.259,0,0,0,2.963,14.4,3.543,3.543,0,0,1,4.226,8.234V9.387h.645V8.113c.106-.01.214-.016.323-.016h.323v2.581h.645V8.1h.645v1.29h.645V8.1H8.1v1.29h.645V8.1h.645v2.581h.645V8.1h.645v1.29h.645V8.1h.645v1.29h.645V8.1h.645v2.581H13.9V8.1c.219,0,.433-.006.645-.015V9.387h.645V8.042c.22-.018.435-.041.645-.067V9.387h.645V7.877a6.818,6.818,0,0,0,3.871-1.782Z" transform="translate(-1 -1)" fill="#404040"/>
                    <path id="Path_14091" data-name="Path 14091" d="M45,47h.708v3.541H45Z" transform="translate(-30.852 -32.665)" fill="#404040"/>
                    <path id="Path_14092" data-name="Path 14092" d="M41,47h.708v3.541H41Z" transform="translate(-28.139 -32.665)" fill="#404040"/>
                  </g>
                </g>
              </g>
            </g>
          </g>
        </g>
      </g>
    </g>
  </g>
</svg>
