<svg xmlns="http://www.w3.org/2000/svg" xmlns:xlink="http://www.w3.org/1999/xlink" width="15" height="15" viewBox="0 0 15 15">
  <defs>
    <clipPath id="clip-path">
      <rect id="Rectangle_4644" data-name="Rectangle 4644" width="15" height="15" transform="translate(0.06)" fill="none"/>
    </clipPath>
  </defs>
  <g id="Mask_Group_253" data-name="Mask Group 253" transform="translate(-0.06)" clip-path="url(#clip-path)">
    <g id="Line_color" transform="translate(1.819 0)">
      <g id="Group_10542" data-name="Group 10542">
        <g id="Group_10539" data-name="Group 10539" transform="translate(0 3.631)">
          <g id="Group_10538" data-name="Group 10538">
            <g id="Group_10537" data-name="Group 10537">
              <path id="Path_21342" data-name="Path 21342" d="M11.864,3.3C8.718,1.35,5.483,4.431,5.483,4.431L2.054,7.859s-1.85,1.612.9,4.347,4.347.9,4.347.9l3.428-3.428S13.81,6.442,11.864,3.3ZM10.8,5.412a.743.743,0,1,1,0-1.051A.743.743,0,0,1,10.8,5.412Z" transform="translate(-1.265 -2.471)" fill="#69a8ff"/>
              <g id="Group_10536" data-name="Group 10536">
                <path id="Path_21343" data-name="Path 21343" d="M12.016,3.2a4.459,4.459,0,0,0-2.724-.651,6.1,6.1,0,0,0-2.307.72A7.322,7.322,0,0,0,5.232,4.548L2.817,6.962c-.268.268-.535.539-.805.805a2.276,2.276,0,0,0-.331.405,2.349,2.349,0,0,0-.352,1.371,3.949,3.949,0,0,0,.968,2.2c.953,1.193,2.6,2.63,4.266,2.11a2.226,2.226,0,0,0,.876-.505c.128-.123.25-.251.375-.376L10.3,10.483a10.1,10.1,0,0,0,1.215-1.375,5.787,5.787,0,0,0,1.126-4.492,4.53,4.53,0,0,0-.56-1.352c-.121-.2-.434-.017-.312.182a4.142,4.142,0,0,1,.594,2.62,5.764,5.764,0,0,1-.718,2.146A6.916,6.916,0,0,1,10.468,9.8L8.119,12.152l-.837.837-.075.077c-.029.029-.06.057-.091.084l-.064.052c.037-.029-.042.03-.058.041a1.963,1.963,0,0,1-1.163.35,3.481,3.481,0,0,1-2.054-.881c-1.1-.882-2.519-2.434-1.972-3.976a2.011,2.011,0,0,1,.241-.46c.015-.021.061-.082.037-.052.018-.023.036-.045.055-.067s.053-.059.081-.087l.4-.395L5.046,5.245A9.894,9.894,0,0,1,6.3,4.114a5.5,5.5,0,0,1,4.224-1.135,4.206,4.206,0,0,1,1.307.533c.2.122.38-.191.182-.312Z" transform="translate(-1.326 -2.532)" fill="#3c3c59"/>
                <path id="Path_21344" data-name="Path 21344" d="M8.015,4.844l-.04.037L7.958,4.9c.025-.022.007-.005,0,0a.839.839,0,0,1-.1.058c-.006,0-.045.021-.025.013s-.007,0-.013,0L7.8,4.977A.741.741,0,0,1,7.7,5l-.021,0c.04-.006.014,0,0,0l-.05,0H7.581c-.012,0-.069-.008-.024,0a.824.824,0,0,1-.092-.02l-.049-.015L7.4,4.965c-.02-.007.027.013,0,0A.9.9,0,0,1,7.3,4.912l-.037-.026c.03.022-.014-.013-.022-.021a.863.863,0,0,1-.074-.079c.022.026-.006-.008-.012-.018s-.022-.033-.031-.051-.016-.031-.024-.046c-.016-.031.007.022,0-.011a.84.84,0,0,1-.031-.1c0-.017-.007-.033-.009-.05.006.037,0,0,0-.017a.955.955,0,0,1,0-.108s0-.029,0,0,0-.006,0-.012.006-.033.01-.05a.806.806,0,0,1,.031-.1c-.013.034,0-.005.009-.017s.016-.031.025-.046.019-.03.029-.044l.013-.018c-.015.02-.005.007.005,0a.746.746,0,0,1,.071-.071L7.277,4s-.023.017-.007.005.033-.023.05-.033l.045-.026.026-.013s.026-.011.005,0,.027-.01.033-.012L7.487,3.9l.043-.009.029,0s-.033,0-.012,0c.036,0,.072,0,.108,0l.029,0s.029,0,0,0,0,0,0,0l.029.005a.739.739,0,0,1,.1.03l.02.008s-.028-.013-.009,0l.046.023.045.027.019.012s.036.027.018.013,0,0,.005,0l.023.02c.013.012.026.025.039.038l.035.04S8.05,4.082,8.062,4.1l.021.031a.927.927,0,0,1,.057.1c-.016-.032,0,.005.006.018s.012.037.017.056.009.038.012.057,0,.037,0,.012,0,.007,0,.012a.739.739,0,0,1,0,.116c0,.006,0,.037,0,.012s0,.007,0,.012-.007.038-.012.057-.01.037-.017.056-.007.018-.01.027c-.008.025.013-.026,0,0a1.089,1.089,0,0,1-.058.1l-.013.019c-.027.039.014-.014,0,.006s-.031.035-.047.051a.181.181,0,1,0,.255.255.938.938,0,0,0,.178-1.055.924.924,0,0,0-.911-.519A.924.924,0,1,0,8.271,5.1a.181.181,0,0,0-.255-.255Z" transform="translate(1.391 -2.031)" fill="#3c3c59"/>
              </g>
            </g>
          </g>
        </g>
        <g id="Group_10541" data-name="Group 10541" transform="translate(8.119)">
          <g id="Group_10540" data-name="Group 10540">
            <path id="Path_21345" data-name="Path 21345" d="M9.448,4.828a6.111,6.111,0,0,0,.5-3.078C9.88,1.15,9.657.24,8.936.131,8.232.024,7.7.771,7.411,1.307a6.142,6.142,0,0,0-.693,2.951c.012.69.158,1.885,1,2.071.227.05.323-.3.1-.348a.762.762,0,0,1-.486-.46,2.737,2.737,0,0,1-.233-1,5.857,5.857,0,0,1,.457-2.661A3.536,3.536,0,0,1,8.116.9,1.118,1.118,0,0,1,8.742.485c.556-.078.759.721.826,1.121a5.579,5.579,0,0,1-.432,3.039c-.092.211.22.4.312.183Z" transform="translate(-6.717 -0.121)" fill="#3c3c59"/>
          </g>
        </g>
      </g>
    </g>
  </g>
</svg>
