<svg xmlns="http://www.w3.org/2000/svg" xmlns:xlink="http://www.w3.org/1999/xlink" width="20" height="20" viewBox="0 0 20 20">
  <defs>
    <clipPath id="clip-path">
      <rect id="Rectangle_4612" data-name="Rectangle 4612" width="20" height="20" transform="translate(0 0.001)" fill="none"/>
    </clipPath>
  </defs>
  <g id="Group_11657" data-name="Group 11657" transform="translate(0 -0.389)">
    <g id="Mask_Group_380" data-name="Mask Group 380" transform="translate(0 0.388)" clip-path="url(#clip-path)">
      <g id="delivery_location" transform="translate(1.293 -0.039)">
        <g id="Group_11335" data-name="Group 11335">
          <g id="Group_11333" data-name="Group 11333" transform="translate(0 5.333)">
            <path id="Path_21554" data-name="Path 21554" d="M14.014,16.2H7.307a.242.242,0,0,1-.242-.259.252.252,0,0,1,.242-.259h6.707a2.283,2.283,0,0,0,2.343-2.343,2.278,2.278,0,0,0-.582-1.438,2.317,2.317,0,0,0-1.762-.76H9.8a2.747,2.747,0,1,1,0-5.495h3.442a.242.242,0,0,1,.242.259.23.23,0,0,1-.259.226H9.8a2.255,2.255,0,0,0,0,4.509h4.218a2.781,2.781,0,0,1,2.844,2.683A2.816,2.816,0,0,1,14.014,16.2Z" transform="translate(-1.602 -5.645)" fill="#505050"/>
            <g id="Group_11332" data-name="Group 11332" transform="translate(0 7.014)">
              <ellipse id="Ellipse_269" data-name="Ellipse 269" cx="1.083" cy="1.099" rx="1.083" ry="1.099" transform="translate(1.891 1.875)" fill="#505050"/>
              <path id="Path_21555" data-name="Path 21555" d="M4.587,12.645a2.939,2.939,0,0,0-2.974,2.893,2.738,2.738,0,0,0,.566,1.681v.016L4.36,20.241a.253.253,0,0,0,.194.1.23.23,0,0,0,.194-.1l2.214-3.006a.016.016,0,0,1,.016-.016,2.807,2.807,0,0,0,.566-1.681A2.915,2.915,0,0,0,4.587,12.645Zm0,4.557A1.6,1.6,0,1,1,6.17,15.6,1.59,1.59,0,0,1,4.587,17.2Z" transform="translate(-1.613 -12.645)" fill="#505050"/>
            </g>
          </g>
          <g id="Group_11334" data-name="Group 11334" transform="translate(10.731)">
            <path id="Path_21556" data-name="Path 21556" d="M12.323,3.636h6.723L15.684.323Z" transform="translate(-12.323 -0.323)" fill="#505050"/>
            <path id="Path_21557" data-name="Path 21557" d="M12.984,8.4H14.5v-2a.252.252,0,0,1,.242-.259H16.62a.242.242,0,0,1,.242.259v2h1.519V4.129h-5.4Z" transform="translate(-12.321 -0.315)" fill="#505050"/>
          </g>
        </g>
      </g>
    </g>
  </g>
</svg>
