<svg xmlns="http://www.w3.org/2000/svg" width="8.774" height="11.854" viewBox="0 0 8.774 11.854">
  <g id="dress" transform="translate(0)">
    <path id="Path_14636" data-name="Path 14636" d="M88.472,12.16l.813-.51a3.315,3.315,0,0,0,1.286-1.5.24.24,0,0,1,.459.132L90.7,12.39a2.387,2.387,0,0,1-1.1,1.657H87.347a2.387,2.387,0,0,1-1.1-1.657l-.331-2.113a.24.24,0,0,1,.458-.132,3.314,3.314,0,0,0,1.286,1.5l.813.51" transform="translate(-84.088 -10)" fill="#5d5d5d"/>
    <path id="Path_14637" data-name="Path 14637" d="M15.514,178l3.26,7.443a1.241,1.241,0,0,0-1.755,0,1.241,1.241,0,0,1-1.755,0,1.241,1.241,0,0,0-1.755,0,1.241,1.241,0,0,1-1.755,0,1.241,1.241,0,0,0-1.755,0L13.26,178Zm0,0" transform="translate(-10 -173.952)" fill="#5d5d5d"/>
  </g>
</svg>
