<svg xmlns="http://www.w3.org/2000/svg" width="25" height="25" viewBox="0 0 25 25">
  <g id="Group_10595" data-name="Group 10595" transform="translate(-0.095)">
    <path id="Path_14964" data-name="Path 14964" d="M372.984,311.543a2.5,2.5,0,0,0-2.5,2.5v4.583h5v-4.583A2.5,2.5,0,0,0,372.984,311.543Z" transform="translate(-351.618 -296.126)" fill="#c4c2c2"/>
    <rect id="Rectangle_3663" data-name="Rectangle 3663" width="3.334" height="2.083" transform="translate(19.699 22.5)" fill="#c4c2c2"/>
    <path id="Path_14965" data-name="Path 14965" d="M45.261,15.033V4.583a4.583,4.583,0,0,0-9.167,0V20.417a3.75,3.75,0,0,1-7.5,0V9.967a2.919,2.919,0,0,0,2.5-2.884V2.5a.417.417,0,0,0-.417-.417H30.26V.417A.417.417,0,0,0,29.844,0h-3.33A.417.417,0,0,0,26.1.417V2.083H25.68a.417.417,0,0,0-.417.417V7.083a2.919,2.919,0,0,0,2.5,2.884V20.417a4.583,4.583,0,1,0,9.167,0V4.583a3.75,3.75,0,0,1,7.5,0V15.033a2.92,2.92,0,0,0-2.5,2.884V22.5a.417.417,0,0,0,.417.417h.417v1.666a.417.417,0,0,0,.417.417h3.33a.417.417,0,0,0,.417-.417V22.917h.409a.417.417,0,0,0,.417-.417V17.917A2.918,2.918,0,0,0,45.261,15.033ZM26.927.834h2.5V2.083h-2.5Zm-.834,6.25V2.917H30.26V7.083a2.083,2.083,0,0,1-4.166,0Zm20,17.083h-2.5V22.917h2.5Zm.834-2.083H42.76V17.917a2.083,2.083,0,0,1,4.166,0v4.162Z" transform="translate(-23.478 0)" fill="#c4c2c2"/>
    <rect id="Rectangle_4591" data-name="Rectangle 4591" width="25" height="25" transform="translate(0.095)" fill="none"/>
  </g>
</svg>
