<svg id="_15x15_photo_back" data-name="15x15 photo back" xmlns="http://www.w3.org/2000/svg" xmlns:xlink="http://www.w3.org/1999/xlink" width="15" height="15" viewBox="0 0 15 15">
  <defs>
    <clipPath id="clip-path">
      <rect id="Rectangle_4561" data-name="Rectangle 4561" width="15" height="15" fill="none"/>
    </clipPath>
  </defs>
  <g id="Mask_Group_497" data-name="Mask Group 497" clip-path="url(#clip-path)">
    <path id="courier-services" d="M15.1,7.505a.605.605,0,0,1-.6.6H12.1a1.594,1.594,0,0,1-.734-.267l-1.7-1.7a.6.6,0,1,1,.854-.854L12.138,6.9H14.5a.605.605,0,0,1,.6.6ZM4.917,7.363a.605.605,0,0,0,.854-.01l1.59-1.628.58-.007L8.25,4.508l-.937.011a1.594,1.594,0,0,0-.73.276L4.907,6.51a.605.605,0,0,0,.01.854ZM12.029,10.9,10.253,9.456l.434-1.7L9.376,6.445a1.026,1.026,0,0,1,1.451-1.451l.45.45.048-.188a.83.83,0,0,0-.6-1.007L9.676,3.98a.83.83,0,0,0-1.007.6l-.243.952-.894,3.5L6.442,11.15l-2.215-.128a.427.427,0,0,0-.447.406l-.027.56a.428.428,0,0,0,.406.447l2.991.144c.121.006.378-.039.432-.147l1.162-2.306.2.117L10.813,11.7l.11,2.663a.428.428,0,0,0,.444.409l.56-.023a.428.428,0,0,0,.409-.444l-.124-2.992a.716.716,0,0,0-.185-.417ZM15.015,3.39h-.679v.874a.211.211,0,0,1-.211.211h-.887a.211.211,0,0,1-.211-.211V3.39h-.679a.212.212,0,0,0-.211.211V6.268a.212.212,0,0,0,.211.211h2.666a.212.212,0,0,0,.211-.211V3.6a.212.212,0,0,0-.211-.211Zm-1.1,0h-.466v.662h.466Zm-2.056-1.3H12.6a.211.211,0,0,0,0-.423h-.833a1.531,1.531,0,0,0-2.914.15q0,.009,0,.017a1.535,1.535,0,0,0-.041.255h3.053Zm-11,6.489a.211.211,0,0,0,0,.423H4.622a.211.211,0,1,0,0-.423Zm2.007,2.307H.769a.211.211,0,0,0,0,.423H2.861a.211.211,0,0,0,0-.423Zm2.078-8.8H7.368a.211.211,0,0,0,0-.423H4.939a.211.211,0,1,0,0,.423Zm-.956,4.4a.211.211,0,0,0-.211-.211H.438a.211.211,0,0,0,0,.423H3.772a.211.211,0,0,0,.211-.211Zm-1.439-2.1H5.292a.211.211,0,0,0,0-.423H2.544a.211.211,0,0,0,0,.423ZM10,3.744A1.32,1.32,0,0,0,11.65,2.516H9.013A1.32,1.32,0,0,0,10,3.744Z" transform="translate(-0.226 -0.227)" fill="#388cff" fill-rule="evenodd"/>
  </g>
</svg>
