<svg xmlns="http://www.w3.org/2000/svg" xmlns:xlink="http://www.w3.org/1999/xlink" width="15" height="15" viewBox="0 0 15 15">
  <defs>
    <clipPath id="clip-path">
      <rect id="Rectangle_4561" data-name="Rectangle 4561" width="15" height="15" fill="none"/>
    </clipPath>
  </defs>
  <g id="Mask_Group_498" data-name="Mask Group 498" clip-path="url(#clip-path)">
    <g id="box" transform="translate(0.803 0)">
      <path id="Path_22059" data-name="Path 22059" d="M13.661,1.071H3.482A1.608,1.608,0,0,0,1.875,2.679V14.464a1.608,1.608,0,0,0,1.607,1.607H13.661a1.608,1.608,0,0,0,1.607-1.607V2.679a1.608,1.608,0,0,0-1.607-1.607Zm1.071,13.393a1.071,1.071,0,0,1-1.071,1.071H3.482a1.071,1.071,0,0,1-1.071-1.071V2.679A1.071,1.071,0,0,1,3.482,1.607H6.161V5.7a.809.809,0,0,0,1.163.72l1.13-.565a.27.27,0,0,1,.236,0l1.13.56A.8.8,0,0,0,10.982,5.7V1.607h2.679a1.071,1.071,0,0,1,1.071,1.071Z" transform="translate(-1.875 -1.071)" fill="#c4c2c2"/>
      <path id="Path_22060" data-name="Path 22060" d="M8.036,10.446H4.821a.806.806,0,0,0-.8.8v2.5a.8.8,0,0,0,.8.8H8.036a.8.8,0,0,0,.8-.8v-2.5a.806.806,0,0,0-.8-.8ZM5.089,13.039a.267.267,0,0,1,.268-.268H7.5a.268.268,0,1,1,0,.536H5.357A.269.269,0,0,1,5.089,13.039Zm2.411-.8H5.357a.268.268,0,1,1,0-.536H7.5a.268.268,0,1,1,0,.536Z" transform="translate(-1.875 -1.071)" fill="#c4c2c2"/>
      <path id="Path_22061" data-name="Path 22061" d="M12.857,14.023H9.882a.268.268,0,1,0,0,.536h2.975a.268.268,0,1,0,0-.536Z" transform="translate(-1.875 -1.071)" fill="#c4c2c2"/>
      <path id="Path_22062" data-name="Path 22062" d="M12.857,12.77H10.714a.268.268,0,1,0,0,.536h2.143a.268.268,0,1,0,0-.536Z" transform="translate(-1.875 -1.071)" fill="#c4c2c2"/>
    </g>
  </g>
</svg>
