<svg xmlns="http://www.w3.org/2000/svg" xmlns:xlink="http://www.w3.org/1999/xlink" width="20" height="20" viewBox="0 0 20 20">
  <defs>
    <clipPath id="clip-path">
      <rect id="Rectangle_4612" data-name="Rectangle 4612" width="20" height="20" fill="none"/>
    </clipPath>
  </defs>
  <g id="Mask_Group_289" data-name="Mask Group 289" clip-path="url(#clip-path)">
    <path id="filter-5" d="M.615,3.485H9.783a3.057,3.057,0,0,1-.063-.6V2.865a3.063,3.063,0,0,1,.062-.61H.615a.615.615,0,1,0,0,1.23ZM8.822,9.857v.008a1.915,1.915,0,0,1-3.83,0V9.855a1.915,1.915,0,0,1,3.83,0Zm10.25-.613H9.9a3.062,3.062,0,0,1,.062.608v.017a3.055,3.055,0,0,1-.062.606h9.168a.615.615,0,1,0,0-1.23Zm-15.163,0H.615a.615.615,0,0,0,0,1.23H3.909a3.055,3.055,0,0,1-.063-.6V9.853A3.06,3.06,0,0,1,3.909,9.243Zm8.872,9.519a1.917,1.917,0,0,1-1.915-1.911v-.01a1.915,1.915,0,0,1,3.83,0v.011A1.917,1.917,0,0,1,12.78,18.762Zm6.291-2.531H15.778a3.059,3.059,0,0,1,.062.608v.017a3.055,3.055,0,0,1-.062.606h3.294a.615.615,0,1,0,0-1.23Zm-9.289,0H.615a.615.615,0,0,0,0,1.23H9.783a3.058,3.058,0,0,1-.063-.6v-.017A3.063,3.063,0,0,1,9.783,16.231ZM10.865,2.872V2.864a1.915,1.915,0,0,1,3.83,0v.011a1.915,1.915,0,0,1-3.83,0Zm4.913.613h3.294a.615.615,0,1,0,0-1.23H15.778a3.059,3.059,0,0,1,.062.608V2.88a3.052,3.052,0,0,1-.062.606Z" transform="translate(0 -0.015)" fill="#8e8e8e" fill-rule="evenodd"/>
  </g>
</svg>
