<svg id="_15x15_photo_back" data-name="15x15 photo back" xmlns="http://www.w3.org/2000/svg" xmlns:xlink="http://www.w3.org/1999/xlink" width="15" height="15" viewBox="0 0 15 15">
  <defs>
    <clipPath id="clip-path">
      <rect id="Rectangle_4561" data-name="Rectangle 4561" width="15" height="15" fill="none"/>
    </clipPath>
  </defs>
  <g id="Mask_Group_358" data-name="Mask Group 358" clip-path="url(#clip-path)">
    <g id="fast" transform="translate(0.188 3.235)">
      <path id="Path_15542" data-name="Path 15542" d="M3.423,11.664H1.58l-.075.372a.457.457,0,0,0,.452.542h1.4a1.667,1.667,0,0,1-.024-.3,2.021,2.021,0,0,1,.091-.613ZM9.929,5.438a.442.442,0,0,0-.353-.171h-6.4a.463.463,0,0,0-.452.372l-.043.238H4.094a1.063,1.063,0,0,1,.542,1.98,1.059,1.059,0,0,1,0,1.827,1.1,1.1,0,0,1,.433.494,2.135,2.135,0,0,1,2.528,2.1,1.668,1.668,0,0,1-.024.3H8.2a.457.457,0,0,0,.445-.36l1.37-6.4a.441.441,0,0,0-.088-.38Z" transform="translate(-0.287 -5.268)" fill="#e8ffed"/>
      <path id="Path_15542_-_Outline" data-name="Path 15542 - Outline" d="M8.2,12.766H7.345l.042-.226a1.473,1.473,0,0,0,.021-.27,1.947,1.947,0,0,0-2.3-1.908l-.151.028-.06-.137a.908.908,0,0,0-.359-.409l-.263-.161.263-.16a.871.871,0,0,0,0-1.505l-.264-.161L4.535,7.7a.875.875,0,0,0-.441-1.631H2.461l.082-.459a.652.652,0,0,1,.636-.527h6.4a.646.646,0,0,1,.628.784l-1.37,6.4A.643.643,0,0,1,8.2,12.766Zm-.424-.376H8.2a.269.269,0,0,0,.26-.209l1.371-6.4a.253.253,0,0,0-.052-.226v0a.254.254,0,0,0-.2-.1h-6.4a.273.273,0,0,0-.266.22v.013H4.094A1.256,1.256,0,0,1,5.348,6.943a1.242,1.242,0,0,1-.4.914,1.241,1.241,0,0,1,0,1.829,1.279,1.279,0,0,1,.226.286,2.356,2.356,0,0,1,.29-.018,2.323,2.323,0,0,1,2.32,2.32q0,.061,0,.117Zm-4.2.376H1.962a.651.651,0,0,1-.5-.233A.659.659,0,0,1,1.326,12l.1-.527H3.68l-.075.245a1.826,1.826,0,0,0-.083.553,1.473,1.473,0,0,0,.021.27Zm-1.842-.914-.043.22a.269.269,0,0,0,.266.318H3.147v-.117a2.244,2.244,0,0,1,.038-.421Z" transform="translate(-0.287 -5.268)" fill="#404040"/>
      <path id="Path_15543" data-name="Path 15543" d="M13.841,7.525h-1.3a.464.464,0,0,0-.452.36l-.978,4.569a.458.458,0,0,0,.445.555h.329a1.668,1.668,0,0,1-.024-.3,2.132,2.132,0,1,1,4.264,0,1.048,1.048,0,0,1-.012.195.4.4,0,0,0,.151-.25l.457-2.132a.534.534,0,0,0,.012-.1A2.9,2.9,0,0,0,13.841,7.525Z" transform="translate(-2.115 -5.698)" fill="#e8ffed"/>
      <path id="Path_15543_-_Outline" data-name="Path 15543 - Outline" d="M12.538,7.337h1.3a3.085,3.085,0,0,1,3.085,3.085.687.687,0,0,1-.016.135l-.457,2.131a.583.583,0,0,1-.226.363l-.388.3.087-.481a.887.887,0,0,0,.009-.161,1.944,1.944,0,1,0-3.888,0,1.473,1.473,0,0,0,.021.27l.042.226h-.555a.646.646,0,0,1-.628-.784l.978-4.57A.65.65,0,0,1,12.538,7.337Zm3.672,4.677.33-1.537a.328.328,0,0,0,.008-.058A2.709,2.709,0,0,0,13.838,7.71h-1.3a.275.275,0,0,0-.267.212l-.975,4.57a.253.253,0,0,0,.052.226l0,.005a.254.254,0,0,0,.2.1h.119V12.7a2.32,2.32,0,0,1,4.536-.689Z" transform="translate(-2.115 -5.698)" fill="#404040"/>
      <path id="Path_15544" data-name="Path 15544" d="M4.094,7.686H1.962a.457.457,0,1,1,0-.914H4.094a.457.457,0,0,1,0,.914Z" transform="translate(-0.287 -5.554)" fill="#e8ffed"/>
      <path id="Path_15544_-_Outline" data-name="Path 15544 - Outline" d="M4.094,7.874H1.962a.645.645,0,1,1,0-1.29H4.094a.645.645,0,0,1,0,1.29ZM1.962,6.961a.269.269,0,1,0,0,.537H4.094a.269.269,0,0,0,0-.537Z" transform="translate(-0.287 -5.554)" fill="#404040"/>
      <path id="Path_15545" data-name="Path 15545" d="M3.951,9.944H1.209a.457.457,0,1,1,0-.914H3.951a.457.457,0,0,1,0,.914Z" transform="translate(-0.144 -5.985)" fill="#e8ffed"/>
      <path id="Path_15545_-_Outline" data-name="Path 15545 - Outline" d="M3.951,10.132H1.209a.645.645,0,1,1,0-1.29H3.951a.645.645,0,0,1,0,1.29ZM1.209,9.218a.269.269,0,1,0,0,.537H3.951a.269.269,0,0,0,0-.537Z" transform="translate(-0.144 -5.985)" fill="#404040"/>
      <path id="Path_15546" data-name="Path 15546" d="M3.807,12.2H.457a.457.457,0,0,1,0-.914h3.35a.457.457,0,1,1,0,.914Z" transform="translate(0 -6.414)" fill="#e8ffed"/>
      <path id="Path_15546_-_Outline" data-name="Path 15546 - Outline" d="M3.807,12.39H.457a.645.645,0,1,1,0-1.29h3.35a.645.645,0,1,1,0,1.29Zm-3.35-.914a.269.269,0,1,0,0,.537h3.35a.269.269,0,1,0,0-.537Z" transform="translate(0 -6.414)" fill="#404040"/>
      <path id="Path_15547" data-name="Path 15547" d="M14.316,15.086a1.523,1.523,0,1,1,1.523-1.523,1.523,1.523,0,0,1-1.523,1.523Z" transform="translate(-2.437 -6.558)" fill="#e8ffed"/>
      <path id="Path_15547_-_Outline" data-name="Path 15547 - Outline" d="M14.316,15.276a1.711,1.711,0,1,1,1.713-1.713,1.711,1.711,0,0,1-1.713,1.713Zm0-3.045a1.335,1.335,0,1,0,1.336,1.333,1.335,1.335,0,0,0-1.336-1.333Z" transform="translate(-2.437 -6.558)" fill="#404040"/>
      <path id="Path_15548" data-name="Path 15548" d="M6.038,15.086a1.523,1.523,0,1,1,1.523-1.523A1.523,1.523,0,0,1,6.038,15.086Z" transform="translate(-0.86 -6.558)" fill="#e8ffed"/>
      <path id="Path_15548_-_Outline" data-name="Path 15548 - Outline" d="M6.038,15.276a1.711,1.711,0,1,1,1.713-1.713,1.711,1.711,0,0,1-1.713,1.713Zm0-3.045a1.335,1.335,0,1,0,1.336,1.333,1.335,1.335,0,0,0-1.336-1.333Z" transform="translate(-0.86 -6.558)" fill="#404040"/>
    </g>
  </g>
</svg>
