<svg xmlns="http://www.w3.org/2000/svg" xmlns:xlink="http://www.w3.org/1999/xlink" width="15" height="15" viewBox="0 0 15 15">
  <defs>
    <clipPath id="clip-path">
      <rect id="Rectangle_4561" data-name="Rectangle 4561" width="15" height="15" fill="none"/>
    </clipPath>
  </defs>
  <g id="Mask_Group_357" data-name="Mask Group 357" clip-path="url(#clip-path)">
    <g id="fast" transform="translate(0 3.046)">
      <path id="Path_15542" data-name="Path 15542" d="M8.1,11.664H9.946l.075.372a.457.457,0,0,1-.452.542H8.17a1.667,1.667,0,0,0,.024-.3A2.02,2.02,0,0,0,8.1,11.664ZM1.6,5.438a.442.442,0,0,1,.353-.171h6.4a.463.463,0,0,1,.452.372l.043.238H7.433a1.063,1.063,0,0,0-.542,1.98,1.059,1.059,0,0,0,0,1.827,1.1,1.1,0,0,0-.433.494,2.135,2.135,0,0,0-2.528,2.1,1.668,1.668,0,0,0,.024.3H3.324a.457.457,0,0,1-.445-.36l-1.37-6.4a.441.441,0,0,1,.088-.38Z" transform="translate(3.572 -5.079)" fill="#ffe8e8"/>
      <path id="Path_15542_-_Outline" data-name="Path 15542 - Outline" d="M3.332,12.766h.857l-.042-.226a1.473,1.473,0,0,1-.021-.27,1.947,1.947,0,0,1,2.3-1.908l.151.028.06-.137A.908.908,0,0,1,7,9.844l.263-.161L7,9.523A.871.871,0,0,1,7,8.018l.264-.161L7,7.7a.875.875,0,0,1,.441-1.631H9.073l-.082-.459a.652.652,0,0,0-.636-.527h-6.4a.646.646,0,0,0-.628.784l1.37,6.4A.643.643,0,0,0,3.332,12.766Zm.424-.376H3.332a.269.269,0,0,1-.26-.209L1.7,5.784a.253.253,0,0,1,.052-.226v0a.254.254,0,0,1,.2-.1h6.4a.273.273,0,0,1,.266.22v.013H7.441A1.256,1.256,0,0,0,6.187,6.943a1.242,1.242,0,0,0,.4.914,1.241,1.241,0,0,0,0,1.829,1.279,1.279,0,0,0-.226.286,2.356,2.356,0,0,0-.29-.018,2.323,2.323,0,0,0-2.32,2.32q0,.061,0,.117Zm4.2.376H9.573a.651.651,0,0,0,.5-.233A.659.659,0,0,0,10.209,12l-.1-.527H7.855l.075.245a1.826,1.826,0,0,1,.083.553,1.473,1.473,0,0,1-.021.27ZM9.8,11.852l.043.22a.269.269,0,0,1-.266.318H8.388v-.117a2.244,2.244,0,0,0-.038-.421Z" transform="translate(3.564 -5.079)" fill="#404040"/>
      <path id="Path_15543" data-name="Path 15543" d="M13.985,7.525h1.3a.464.464,0,0,1,.452.36l.978,4.569a.458.458,0,0,1-.445.555h-.329a1.668,1.668,0,0,0,.024-.3,2.132,2.132,0,0,0-4.264,0,1.048,1.048,0,0,0,.012.195.4.4,0,0,1-.151-.25L11.11,10.52a.534.534,0,0,1-.012-.1A2.9,2.9,0,0,1,13.985,7.525Z" transform="translate(-10.9 -5.509)" fill="#ffe8e8"/>
      <path id="Path_15543_-_Outline" data-name="Path 15543 - Outline" d="M15.3,7.337H14a3.085,3.085,0,0,0-3.085,3.085.687.687,0,0,0,.016.135l.457,2.131a.583.583,0,0,0,.226.363l.388.3-.087-.481a.887.887,0,0,1-.009-.161,1.944,1.944,0,0,1,3.888,0,1.473,1.473,0,0,1-.021.27l-.042.226h.555a.646.646,0,0,0,.628-.784l-.978-4.57A.65.65,0,0,0,15.3,7.337Zm-3.672,4.677-.33-1.537a.328.328,0,0,1-.008-.058A2.709,2.709,0,0,1,14,7.71h1.3a.275.275,0,0,1,.267.212l.975,4.57a.253.253,0,0,1-.052.226l0,.005a.254.254,0,0,1-.2.1h-.119V12.7a2.32,2.32,0,0,0-4.536-.689Z" transform="translate(-10.914 -5.509)" fill="#404040"/>
      <path id="Path_15544" data-name="Path 15544" d="M1.962,7.686H4.094a.457.457,0,1,0,0-.914H1.962a.457.457,0,1,0,0,.914Z" transform="translate(9.043 -5.365)" fill="#e8ffed"/>
      <path id="Path_15544_-_Outline" data-name="Path 15544 - Outline" d="M1.962,7.874H4.094a.645.645,0,1,0,0-1.29H1.962a.645.645,0,1,0,0,1.29Zm2.132-.914a.269.269,0,1,1,0,.537H1.962a.269.269,0,1,1,0-.537Z" transform="translate(9.043 -5.365)" fill="#404040"/>
      <path id="Path_15545" data-name="Path 15545" d="M1.209,9.944H3.951a.457.457,0,1,0,0-.914H1.209a.457.457,0,1,0,0,.914Z" transform="translate(9.796 -5.796)" fill="#e8ffed"/>
      <path id="Path_15545_-_Outline" data-name="Path 15545 - Outline" d="M1.209,10.132H3.951a.645.645,0,1,0,0-1.29H1.209a.645.645,0,1,0,0,1.29Zm2.741-.914a.269.269,0,1,1,0,.537H1.209a.269.269,0,1,1,0-.537Z" transform="translate(9.796 -5.796)" fill="#404040"/>
      <path id="Path_15546" data-name="Path 15546" d="M.457,12.2h3.35a.457.457,0,1,0,0-.914H.457a.457.457,0,1,0,0,.914Z" transform="translate(10.548 -6.226)" fill="#e8ffed"/>
      <path id="Path_15546_-_Outline" data-name="Path 15546 - Outline" d="M.457,12.389h3.35a.645.645,0,1,0,0-1.29H.457a.645.645,0,1,0,0,1.29Zm3.35-.914a.269.269,0,1,1,0,.537H.457a.269.269,0,1,1,0-.537Z" transform="translate(10.548 -6.226)" fill="#404040"/>
      <path id="Path_15547" data-name="Path 15547" d="M14.316,15.086a1.523,1.523,0,1,0-1.523-1.523,1.523,1.523,0,0,0,1.523,1.523Z" transform="translate(-11.383 -6.369)" fill="#ffe8e8"/>
      <path id="Path_15547_-_Outline" data-name="Path 15547 - Outline" d="M14.319,15.276a1.711,1.711,0,1,0-1.713-1.713,1.711,1.711,0,0,0,1.713,1.713Zm0-3.045a1.335,1.335,0,1,1-1.336,1.333,1.335,1.335,0,0,1,1.336-1.333Z" transform="translate(-11.386 -6.369)" fill="#404040"/>
      <path id="Path_15548" data-name="Path 15548" d="M6.038,15.086a1.523,1.523,0,1,0-1.523-1.523A1.523,1.523,0,0,0,6.038,15.086Z" transform="translate(3.596 -6.369)" fill="#ffe8e8"/>
      <path id="Path_15548_-_Outline" data-name="Path 15548 - Outline" d="M6.041,15.276a1.711,1.711,0,1,0-1.713-1.713,1.711,1.711,0,0,0,1.713,1.713Zm0-3.045A1.335,1.335,0,1,1,4.7,13.563a1.335,1.335,0,0,1,1.336-1.333Z" transform="translate(3.593 -6.369)" fill="#404040"/>
    </g>
  </g>
</svg>
