<svg xmlns="http://www.w3.org/2000/svg" xmlns:xlink="http://www.w3.org/1999/xlink" width="58.5" height="39" viewBox="0 0 58.5 39">
  <defs>
    <style>
      .cls-1 {
        fill: #e6e6e6;
      }

      .cls-2 {
        fill: #fff;
      }

      .cls-3 {
        fill: #f53c3c;
      }

      .cls-4 {
        filter: url(#Path_21300-2);
      }

      .cls-5 {
        filter: url(#Path_21300);
      }

      .cls-6 {
        filter: url(#Path_21301-2);
      }

      .cls-7 {
        filter: url(#Path_21301);
      }
    </style>
    <filter id="Path_21301" x="45" y="18.518" width="13.5" height="13.5" filterUnits="userSpaceOnUse">
      <feOffset dy="2" input="SourceAlpha"/>
      <feGaussianBlur stdDeviation="1" result="blur"/>
      <feFlood flood-opacity="0.2"/>
      <feComposite operator="in" in2="blur"/>
      <feComposite in="SourceGraphic"/>
    </filter>
    <filter id="Path_21301-2" x="45" y="18.518" width="13.5" height="13.5" filterUnits="userSpaceOnUse">
      <feOffset dy="3" input="SourceAlpha"/>
      <feGaussianBlur stdDeviation="2" result="blur-2"/>
      <feFlood flood-color="#fff" flood-opacity="0.302" result="color"/>
      <feComposite operator="out" in="SourceGraphic" in2="blur-2"/>
      <feComposite operator="in" in="color"/>
      <feComposite operator="in" in2="SourceGraphic"/>
    </filter>
    <filter id="Path_21300" x="0" y="0" width="39" height="39" filterUnits="userSpaceOnUse">
      <feOffset dy="3" input="SourceAlpha"/>
      <feGaussianBlur stdDeviation="1.5" result="blur-3"/>
      <feFlood flood-opacity="0.2"/>
      <feComposite operator="in" in2="blur-3"/>
      <feComposite in="SourceGraphic"/>
    </filter>
    <filter id="Path_21300-2" x="0" y="0" width="39" height="39" filterUnits="userSpaceOnUse">
      <feOffset dy="4" input="SourceAlpha"/>
      <feGaussianBlur stdDeviation="3" result="blur-4"/>
      <feFlood flood-color="#fff" flood-opacity="0.502" result="color-2"/>
      <feComposite operator="out" in="SourceGraphic" in2="blur-4"/>
      <feComposite operator="in" in="color-2"/>
      <feComposite operator="in" in2="SourceGraphic"/>
    </filter>
  </defs>
  <g id="Group_10580" data-name="Group 10580" transform="translate(-589.5 -443.5)">
    <g id="Group_10579" data-name="Group 10579">
      <g id="Group_10578" data-name="Group 10578">
        <path id="Path_21306" data-name="Path 21306" class="cls-1" d="M5.853,2.811c-.479,0-.978-.022-1.482-.067A.188.188,0,0,1,4.4,2.371c.493.043.98.065,1.449.065.492,0,1-.024,1.513-.072a.188.188,0,0,1,.035.373C6.877,2.786,6.356,2.811,5.853,2.811ZM1.429,2.264a.188.188,0,0,1-.042,0c-.922-.212-1.872-.48-2.9-.821A.188.188,0,0,1-1.635,1.2.188.188,0,0,1-1.4,1.082c1.02.337,1.958.6,2.869.811a.188.188,0,0,1-.042.37Zm8.908-.036a.188.188,0,0,1-.045-.369,22.549,22.549,0,0,0,2.83-.909.187.187,0,1,1,.138.349,22.926,22.926,0,0,1-2.878.924A.188.188,0,0,1,10.337,2.228Z" transform="translate(623.559 467.894)"/>
        <g data-type="innerShadowGroup">
          <g class="cls-7" transform="matrix(1, 0, 0, 1, 589.5, 443.5)">
            <path id="Path_21301-3" data-name="Path 21301" class="cls-1" d="M3.75,7.5A3.75,3.75,0,1,1,7.5,3.75,3.75,3.75,0,0,1,3.75,7.5Z" transform="translate(48 19.52)"/>
          </g>
          <g class="cls-6" transform="matrix(1, 0, 0, 1, 589.5, 443.5)">
            <path id="Path_21301-4" data-name="Path 21301" class="cls-2" d="M3.75,7.5A3.75,3.75,0,1,1,7.5,3.75,3.75,3.75,0,0,1,3.75,7.5Z" transform="translate(48 19.52)"/>
          </g>
        </g>
        <g data-type="innerShadowGroup">
          <g class="cls-5" transform="matrix(1, 0, 0, 1, 589.5, 443.5)">
            <path id="Path_21300-3" data-name="Path 21300" class="cls-3" d="M15,0A15,15,0,1,0,30,15,15,15,0,0,0,15,0Z" transform="translate(4.5 1.5)"/>
          </g>
          <g class="cls-4" transform="matrix(1, 0, 0, 1, 589.5, 443.5)">
            <path id="Path_21300-4" data-name="Path 21300" class="cls-2" d="M15,0A15,15,0,1,0,30,15,15,15,0,0,0,15,0Z" transform="translate(4.5 1.5)"/>
          </g>
        </g>
      </g>
    </g>
  </g>
</svg>
