<svg id="_20x20" data-name="20x20" xmlns="http://www.w3.org/2000/svg" xmlns:xlink="http://www.w3.org/1999/xlink" width="20" height="20" viewBox="0 0 20 20">
  <defs>
    <clipPath id="clip-path">
      <rect id="Rectangle_4612" data-name="Rectangle 4612" width="20" height="20" fill="none"/>
    </clipPath>
  </defs>
  <g id="Mask_Group_272" data-name="Mask Group 272" clip-path="url(#clip-path)">
    <g id="photo-camera" transform="translate(0 -38.788)">
      <g id="Group_3488" data-name="Group 3488" transform="translate(0 40.119)">
        <path id="Path_14690" data-name="Path 14690" d="M19.214,43.567a2.569,2.569,0,0,0-1.885-.782H15l-.531-1.416a1.935,1.935,0,0,0-.724-.878,1.856,1.856,0,0,0-1.078-.37H7.333a1.855,1.855,0,0,0-1.078.37,1.935,1.935,0,0,0-.724.878L5,42.785H2.667a2.569,2.569,0,0,0-1.885.782A2.569,2.569,0,0,0,0,45.456v9.333a2.569,2.569,0,0,0,.781,1.885,2.569,2.569,0,0,0,1.885.782H17.333A2.667,2.667,0,0,0,20,54.788V45.456A2.569,2.569,0,0,0,19.214,43.567Zm-5.922,9.849A4.494,4.494,0,0,1,10,54.786,4.494,4.494,0,0,1,6.7,53.416a4.652,4.652,0,0,1,0-6.593A4.494,4.494,0,0,1,10,45.452a4.494,4.494,0,0,1,3.294,1.37,4.652,4.652,0,0,1,0,6.593Z" transform="translate(0 -40.119)" fill="#8e8d92"/>
        <path id="Path_14691" data-name="Path 14691" d="M213.65,250.774a3.005,3.005,0,1,0,2.12.878A2.889,2.889,0,0,0,213.65,250.774Z" transform="translate(-203.651 -243.777)" fill="#8e8d92"/>
      </g>
    </g>
  </g>
</svg>
