<svg id="_15x15_photo_back" data-name="15x15 photo back" xmlns="http://www.w3.org/2000/svg" xmlns:xlink="http://www.w3.org/1999/xlink" width="15" height="15" viewBox="0 0 15 15">
  <defs>
    <clipPath id="clip-path">
      <rect id="Rectangle_4561" data-name="Rectangle 4561" width="15" height="15" fill="none"/>
    </clipPath>
  </defs>
  <g id="Mask_Group_496" data-name="Mask Group 496" clip-path="url(#clip-path)">
    <g id="map-pointer" transform="translate(1.5 0)">
      <path id="Path_22056" data-name="Path 22056" d="M8.572,12.291l2.417-3.8a7.209,7.209,0,0,0,1.129-3.876,3.545,3.545,0,1,0-7.091,0A7.21,7.21,0,0,0,6.155,8.493Zm0-9.583A1.909,1.909,0,1,1,6.663,4.617,1.909,1.909,0,0,1,8.572,2.708Z" transform="translate(-2.571 -1.072)" fill="#c4c2c2"/>
      <circle id="Ellipse_271" data-name="Ellipse 271" cx="1.364" cy="1.364" r="1.364" transform="translate(4.636 2.181)" fill="#c4c2c2"/>
      <path id="Path_22057" data-name="Path 22057" d="M9.38,12.037l-.808,1.27-.808-1.27c-1.071.138-1.647.521-1.647.762,0,.333.956.818,2.455.818s2.455-.485,2.455-.818C11.026,12.558,10.451,12.175,9.38,12.037Z" transform="translate(-2.571 -1.072)" fill="#c4c2c2"/>
      <path id="Path_22058" data-name="Path 22058" d="M14.572,12.526H13.72c-.209-.94-1.489-1.721-3.356-2.036l-.321.5c1.63.235,2.85.846,3.111,1.532H12.39v.545h.76c-.31.8-1.952,1.574-4.306,1.63v-.268H8.3V14.7c-2.354-.056-4-.827-4.306-1.63h.76v-.545H3.989c.261-.687,1.481-1.3,3.111-1.532l-.321-.5c-1.866.315-3.146,1.1-3.356,2.036H2.571v.546h.85c.268,1.2,2.3,2.115,4.877,2.176v.824h.545v-.824c2.581-.061,4.607-.974,4.877-2.176h.85Z" transform="translate(-2.571 -1.072)" fill="#c4c2c2"/>
    </g>
  </g>
</svg>
