buy<svg xmlns="http://www.w3.org/2000/svg" xmlns:xlink="http://www.w3.org/1999/xlink" width="182.5" height="49" viewBox="0 0 182.5 49">
  <defs>
    <filter id="Path_21301" x="59.5" y="24.523" width="16" height="16" filterUnits="userSpaceOnUse">
      <feOffset dy="2" input="SourceAlpha"/>
      <feGaussianBlur stdDeviation="1" result="blur"/>
      <feFlood flood-opacity="0.2"/>
      <feComposite operator="in" in2="blur"/>
      <feComposite in="SourceGraphic"/>
    </filter>
    <filter id="Path_21301-2" x="59.5" y="24.523" width="16" height="16" filterUnits="userSpaceOnUse">
      <feOffset dy="3" input="SourceAlpha"/>
      <feGaussianBlur stdDeviation="2" result="blur-2"/>
      <feFlood flood-color="#fff" flood-opacity="0.302" result="color"/>
      <feComposite operator="out" in="SourceGraphic" in2="blur-2"/>
      <feComposite operator="in" in="color"/>
      <feComposite operator="in" in2="SourceGraphic"/>
    </filter>
    <filter id="Path_21300" x="0" y="0" width="49" height="49" filterUnits="userSpaceOnUse">
      <feOffset dy="3" input="SourceAlpha"/>
      <feGaussianBlur stdDeviation="1.5" result="blur-3"/>
      <feFlood flood-opacity="0.2"/>
      <feComposite operator="in" in2="blur-3"/>
      <feComposite in="SourceGraphic"/>
    </filter>
    <filter id="Path_21300-2" x="0" y="0" width="49" height="49" filterUnits="userSpaceOnUse">
      <feOffset dy="4" input="SourceAlpha"/>
      <feGaussianBlur stdDeviation="3" result="blur-4"/>
      <feFlood flood-color="#fff" flood-opacity="0.502" result="color-2"/>
      <feComposite operator="out" in="SourceGraphic" in2="blur-4"/>
      <feComposite operator="in" in="color-2"/>
      <feComposite operator="in" in2="SourceGraphic"/>
    </filter>
  </defs>
  <g id="Group_10582" data-name="Group 10582" transform="translate(-103.5 -404.5)">
    <g id="Group_10581" data-name="Group 10581" transform="translate(-486 -39)">
      <g id="Group_10580" data-name="Group 10580">
        <g id="Group_10579" data-name="Group 10579">
          <path id="Path_21306" data-name="Path 21306" d="M8.352,3.436c-.639,0-1.3-.03-1.976-.089a.25.25,0,0,1,.044-.5c.657.058,1.307.087,1.932.087.655,0,1.334-.032,2.017-.1a.25.25,0,0,1,.046.5C9.717,3.4,9.023,3.436,8.352,3.436Zm-5.9-.729A.251.251,0,0,1,2.4,2.7c-1.229-.282-2.5-.64-3.87-1.094a.25.25,0,0,1-.159-.316.25.25,0,0,1,.316-.159c1.36.449,2.611.8,3.825,1.082a.25.25,0,0,1-.056.494ZM14.33,2.658a.25.25,0,0,1-.06-.493A30.065,30.065,0,0,0,18.044.954a.25.25,0,1,1,.184.465,30.568,30.568,0,0,1-3.837,1.232A.251.251,0,0,1,14.33,2.658Z" transform="translate(632.864 475.838)"/>
          <g data-type="innerShadowGroup">
            <g transform="matrix(1, 0, 0, 1, 589.5, 443.5)" filter="url(#Path_21301)">
              <path id="Path_21301-3" data-name="Path 21301" d="M5,10a5,5,0,1,1,5-5A5,5,0,0,1,5,10Z" transform="translate(62.5 25.52)"/>
            </g>
            <g transform="matrix(1, 0, 0, 1, 589.5, 443.5)" filter="url(#Path_21301-2)">
              <path id="Path_21301-4" data-name="Path 21301" d="M5,10a5,5,0,1,1,5-5A5,5,0,0,1,5,10Z" transform="translate(62.5 25.52)" fill="#fff"/>
            </g>
          </g>
          <g data-type="innerShadowGroup">
            <g transform="matrix(1, 0, 0, 1, 589.5, 443.5)" filter="url(#Path_21300)">
              <path id="Path_21300-3" data-name="Path 21300" d="M20,0A20,20,0,1,0,40,20,20,20,0,0,0,20,0Z" transform="translate(4.5 1.5)" fill="#f53c3c"/>
            </g>
            <g transform="matrix(1, 0, 0, 1, 589.5, 443.5)" filter="url(#Path_21300-2)">
              <path id="Path_21300-4" data-name="Path 21300" d="M20,0A20,20,0,1,0,40,20,20,20,0,0,0,20,0Z" transform="translate(4.5 1.5)" fill="#fff"/>
            </g>
          </g>
        </g>
      </g>
    </g>
    <path id="Path_21308" data-name="Path 21308" d="M2.139-15.8H9.288a1.648,1.648,0,0,1,1.207.477,1.606,1.606,0,0,1,.483,1.191,1.523,1.523,0,0,1-.483,1.147,1.676,1.676,0,0,1-1.207.462H2.139A1.648,1.648,0,0,1,.933-13,1.606,1.606,0,0,1,.45-14.187a1.523,1.523,0,0,1,.483-1.147A1.676,1.676,0,0,1,2.139-15.8Zm3.227-3.723A1.694,1.694,0,0,1,6.649-19a1.8,1.8,0,0,1,.5,1.3V-4.447a1.283,1.283,0,0,0,.166.685.949.949,0,0,0,.452.387,1.594,1.594,0,0,0,.618.119,1.616,1.616,0,0,0,.664-.134,1.693,1.693,0,0,1,.694-.134,1.02,1.02,0,0,1,.769.387,1.55,1.55,0,0,1,.347,1.072,1.573,1.573,0,0,1-.92,1.37,3.858,3.858,0,0,1-1.976.536,10.517,10.517,0,0,1-1.4-.1A3.821,3.821,0,0,1,5.11-.768,3.112,3.112,0,0,1,3.979-2,4.848,4.848,0,0,1,3.527-4.3V-17.7A1.748,1.748,0,0,1,4.055-19,1.793,1.793,0,0,1,5.367-19.519ZM16.708-.157a1.743,1.743,0,0,1-1.3-.521,1.774,1.774,0,0,1-.513-1.3v-12.3a1.774,1.774,0,0,1,.513-1.3,1.743,1.743,0,0,1,1.3-.521,1.743,1.743,0,0,1,1.3.521,1.774,1.774,0,0,1,.513,1.3v2.8l-.211-2a4.637,4.637,0,0,1,.86-1.266,5.091,5.091,0,0,1,1.191-.923,5.451,5.451,0,0,1,1.418-.551,6.52,6.52,0,0,1,1.508-.179,2.325,2.325,0,0,1,1.523.506,1.5,1.5,0,0,1,.618,1.191,1.754,1.754,0,0,1-.513,1.415,1.7,1.7,0,0,1-1.116.432,2.527,2.527,0,0,1-1.041-.209,2.6,2.6,0,0,0-1.071-.209,2.65,2.65,0,0,0-1.1.253,3.027,3.027,0,0,0-1.026.789A4.144,4.144,0,0,0,18.8-10.9a5.457,5.457,0,0,0-.287,1.862v7.06a1.774,1.774,0,0,1-.513,1.3A1.743,1.743,0,0,1,16.708-.157ZM40.567-16.094a1.743,1.743,0,0,1,1.3.521,1.774,1.774,0,0,1,.513,1.3v12.66a8.007,8.007,0,0,1-1.041,4.364,5.9,5.9,0,0,1-2.79,2.338,10.281,10.281,0,0,1-3.921.715,15.127,15.127,0,0,1-2.051-.149,6.985,6.985,0,0,1-1.78-.447,2.569,2.569,0,0,1-1.252-.968A1.444,1.444,0,0,1,29.407,3a1.869,1.869,0,0,1,.875-1.177,1.523,1.523,0,0,1,1.267-.074q.483.149,1.267.462a4.86,4.86,0,0,0,1.81.313,6.19,6.19,0,0,0,2.308-.372A2.655,2.655,0,0,0,38.32.9a5.144,5.144,0,0,0,.468-2.4v-2l.633.715a5.222,5.222,0,0,1-1.282,1.623,5.245,5.245,0,0,1-1.825.968A8.142,8.142,0,0,1,33.9.14a5.235,5.235,0,0,1-2.79-.73,4.985,4.985,0,0,1-1.855-2.026,6.411,6.411,0,0,1-.664-2.964v-8.7a1.774,1.774,0,0,1,.513-1.3,1.743,1.743,0,0,1,1.3-.521,1.743,1.743,0,0,1,1.3.521,1.774,1.774,0,0,1,.513,1.3v7.626a3.583,3.583,0,0,0,.86,2.726,3.414,3.414,0,0,0,2.4.789,3.62,3.62,0,0,0,1.78-.4A2.692,2.692,0,0,0,38.366-4.73a4.286,4.286,0,0,0,.392-1.921v-7.626a1.774,1.774,0,0,1,.513-1.3A1.743,1.743,0,0,1,40.567-16.094ZM59.955-22.2a.868.868,0,0,1,.652.261.885.885,0,0,1,.253.64v20.24a.869.869,0,0,1-.264.637.872.872,0,0,1-.641.264A.862.862,0,0,1,59.3-.422a.889.889,0,0,1-.253-.637V-4.6l.528-.424a3.922,3.922,0,0,1-.456,1.765A5.958,5.958,0,0,1,57.84-1.576a6.615,6.615,0,0,1-1.93,1.244A6,6,0,0,1,53.523.14,6.556,6.556,0,0,1,49.9-.895a7.3,7.3,0,0,1-2.545-2.83A8.684,8.684,0,0,1,46.419-7.8a8.7,8.7,0,0,1,.935-4.081A7.233,7.233,0,0,1,49.892-14.7a6.545,6.545,0,0,1,3.6-1.024,6.387,6.387,0,0,1,2.372.443,6.455,6.455,0,0,1,1.976,1.218A5.947,5.947,0,0,1,59.19-12.3a4.6,4.6,0,0,1,.494,2.078l-.633-.462V-21.3a.889.889,0,0,1,.253-.637A.862.862,0,0,1,59.955-22.2ZM53.681-1.528a5.072,5.072,0,0,0,2.854-.812,5.572,5.572,0,0,0,1.938-2.234A7.163,7.163,0,0,0,59.178-7.8a7.11,7.11,0,0,0-.705-3.221,5.558,5.558,0,0,0-1.949-2.223,5.087,5.087,0,0,0-2.843-.812,5.034,5.034,0,0,0-2.813.812,5.641,5.641,0,0,0-1.961,2.223A7.017,7.017,0,0,0,48.191-7.8a7.019,7.019,0,0,0,.716,3.2,5.707,5.707,0,0,0,1.961,2.245A4.985,4.985,0,0,0,53.681-1.528ZM80.564-7.776a8.2,8.2,0,0,1-1,4.059A7.466,7.466,0,0,1,76.847-.891,7.43,7.43,0,0,1,72.948.14,7.447,7.447,0,0,1,69.061-.891,7.523,7.523,0,0,1,66.32-3.717a8.127,8.127,0,0,1-1.01-4.059,8.172,8.172,0,0,1,1.01-4.081,7.552,7.552,0,0,1,2.741-2.83,7.427,7.427,0,0,1,3.887-1.035,7.41,7.41,0,0,1,3.9,1.035,7.494,7.494,0,0,1,2.718,2.83A8.246,8.246,0,0,1,80.564-7.776Zm-1.81,0A6.754,6.754,0,0,0,78-11.015a5.774,5.774,0,0,0-2.066-2.223,5.54,5.54,0,0,0-2.986-.815,5.556,5.556,0,0,0-2.975.815,5.83,5.83,0,0,0-2.089,2.223,6.672,6.672,0,0,0-.765,3.239,6.609,6.609,0,0,0,.765,3.21,5.83,5.83,0,0,0,2.089,2.223,5.556,5.556,0,0,0,2.975.815,5.54,5.54,0,0,0,2.986-.815A5.774,5.774,0,0,0,78-4.566,6.689,6.689,0,0,0,78.754-7.776Zm5.392,5.213a1.2,1.2,0,0,1-.215-.7.72.72,0,0,1,.366-.562.784.784,0,0,1,.562-.164.881.881,0,0,1,.592.305,6.249,6.249,0,0,0,1.964,1.676,5.679,5.679,0,0,0,2.764.633,5.512,5.512,0,0,0,1.685-.279,3.19,3.19,0,0,0,1.369-.856,2.107,2.107,0,0,0,.543-1.493,2.022,2.022,0,0,0-.543-1.478,3.916,3.916,0,0,0-1.406-.89,14.812,14.812,0,0,0-1.836-.573q-1.026-.268-1.983-.607a7.089,7.089,0,0,1-1.7-.86,4.07,4.07,0,0,1-1.191-1.273,3.508,3.508,0,0,1-.445-1.817,3.663,3.663,0,0,1,.686-2.2,4.528,4.528,0,0,1,1.881-1.486,6.557,6.557,0,0,1,2.7-.532,7.7,7.7,0,0,1,1.644.19,6.735,6.735,0,0,1,1.712.637,5.29,5.29,0,0,1,1.523,1.229.793.793,0,0,1,.268.592.82.82,0,0,1-.313.629.877.877,0,0,1-.558.168.726.726,0,0,1-.52-.235,4.579,4.579,0,0,0-1.712-1.221,5.612,5.612,0,0,0-2.157-.41,4.918,4.918,0,0,0-1.636.272,3.019,3.019,0,0,0-1.282.838,2.153,2.153,0,0,0-.505,1.489,2.057,2.057,0,0,0,.6,1.411,4.213,4.213,0,0,0,1.482.9,21.041,21.041,0,0,0,2.074.659,18.323,18.323,0,0,1,1.851.555,6.318,6.318,0,0,1,1.561.808,3.629,3.629,0,0,1,1.086,1.24,3.932,3.932,0,0,1,.4,1.88,3.594,3.594,0,0,1-.735,2.268A4.673,4.673,0,0,1,92.747-.366,7.151,7.151,0,0,1,90.005.14a8.3,8.3,0,0,1-3.152-.622A6.727,6.727,0,0,1,84.146-2.563Z" transform="translate(190.55 434.2)"/>
  </g>
</svg>
