<svg xmlns="http://www.w3.org/2000/svg" width="33" height="10" viewBox="0 0 33 10">
  <path id="Path_21317" data-name="Path 21317" d="M1.037-19.913H3.52a.564.564,0,0,1,.419.17.582.582,0,0,1,.168.426.551.551,0,0,1-.168.41.574.574,0,0,1-.419.165H1.037a.564.564,0,0,1-.419-.17.582.582,0,0,1-.168-.426.551.551,0,0,1,.168-.41A.574.574,0,0,1,1.037-19.913Zm1.121-1.33a.58.58,0,0,1,.445.186.654.654,0,0,1,.173.463v4.734a.469.469,0,0,0,.058.245.333.333,0,0,0,.157.138.541.541,0,0,0,.215.043.548.548,0,0,0,.231-.048.574.574,0,0,1,.241-.048.351.351,0,0,1,.267.138.564.564,0,0,1,.12.383.563.563,0,0,1-.32.489,1.312,1.312,0,0,1-.686.191,3.555,3.555,0,0,1-.487-.037,1.3,1.3,0,0,1-.5-.181,1.1,1.1,0,0,1-.393-.441,1.773,1.773,0,0,1-.157-.819v-4.787a.633.633,0,0,1,.183-.463A.614.614,0,0,1,2.158-21.243ZM6.1-14.328a.6.6,0,0,1-.451-.186.643.643,0,0,1-.178-.463V-19.37a.643.643,0,0,1,.178-.463.6.6,0,0,1,.451-.186.6.6,0,0,1,.451.186.643.643,0,0,1,.178.463v1l-.073-.713a1.659,1.659,0,0,1,.3-.452,1.776,1.776,0,0,1,.414-.33,1.863,1.863,0,0,1,.492-.2,2.206,2.206,0,0,1,.524-.064.794.794,0,0,1,.529.181.542.542,0,0,1,.215.426.636.636,0,0,1-.178.505.581.581,0,0,1-.388.154.857.857,0,0,1-.361-.074.883.883,0,0,0-.372-.074.9.9,0,0,0-.382.09,1.055,1.055,0,0,0-.356.282,1.491,1.491,0,0,0-.262.473,2,2,0,0,0-.1.665v2.521a.643.643,0,0,1-.178.463A.6.6,0,0,1,6.1-14.328Zm8.288-5.691a.6.6,0,0,1,.451.186.643.643,0,0,1,.178.463v4.521a2.923,2.923,0,0,1-.361,1.559,2.064,2.064,0,0,1-.969.835,3.485,3.485,0,0,1-1.362.255,5.114,5.114,0,0,1-.712-.053,2.373,2.373,0,0,1-.618-.16.9.9,0,0,1-.435-.346.528.528,0,0,1-.047-.441.666.666,0,0,1,.3-.42.516.516,0,0,1,.44-.027q.168.053.44.165a1.647,1.647,0,0,0,.629.112,2.1,2.1,0,0,0,.8-.133.932.932,0,0,0,.482-.447,1.881,1.881,0,0,0,.162-.856v-.713l.22.255a1.858,1.858,0,0,1-.445.58,1.806,1.806,0,0,1-.634.346,2.756,2.756,0,0,1-.838.117,1.78,1.78,0,0,1-.969-.261,1.763,1.763,0,0,1-.644-.723,2.343,2.343,0,0,1-.231-1.059V-19.37a.643.643,0,0,1,.178-.463.6.6,0,0,1,.451-.186.6.6,0,0,1,.451.186.643.643,0,0,1,.178.463v2.723a1.3,1.3,0,0,0,.3.973,1.165,1.165,0,0,0,.833.282,1.23,1.23,0,0,0,.618-.144.951.951,0,0,0,.388-.426,1.567,1.567,0,0,0,.136-.686V-19.37a.643.643,0,0,1,.178-.463A.6.6,0,0,1,14.386-20.019ZM21.12-22.2a.3.3,0,0,1,.227.093.321.321,0,0,1,.088.229v7.229a.315.315,0,0,1-.092.227.3.3,0,0,1-.223.094.3.3,0,0,1-.227-.094.322.322,0,0,1-.088-.227v-1.263l.183-.152a1.432,1.432,0,0,1-.158.63,2.123,2.123,0,0,1-.445.6,2.292,2.292,0,0,1-.671.444,2.035,2.035,0,0,1-.829.169,2.232,2.232,0,0,1-1.259-.37,2.582,2.582,0,0,1-.884-1.011,3.173,3.173,0,0,1-.325-1.455,3.179,3.179,0,0,1,.325-1.457,2.56,2.56,0,0,1,.881-1.007,2.228,2.228,0,0,1,1.251-.366,2.165,2.165,0,0,1,.824.158,2.233,2.233,0,0,1,.686.435,2.119,2.119,0,0,1,.469.63,1.68,1.68,0,0,1,.172.742l-.22-.165v-3.793a.322.322,0,0,1,.088-.227A.3.3,0,0,1,21.12-22.2Zm-2.179,7.383a1.726,1.726,0,0,0,.991-.29,1.975,1.975,0,0,0,.673-.8,2.619,2.619,0,0,0,.245-1.152,2.6,2.6,0,0,0-.245-1.15A1.969,1.969,0,0,0,19.928-19a1.732,1.732,0,0,0-.988-.29,1.714,1.714,0,0,0-.977.29,2,2,0,0,0-.681.794,2.565,2.565,0,0,0-.249,1.15,2.565,2.565,0,0,0,.249,1.144,2.022,2.022,0,0,0,.681.8A1.7,1.7,0,0,0,18.941-14.817Zm9.338-2.231a3,3,0,0,1-.347,1.449,2.635,2.635,0,0,1-.944,1.009,2.527,2.527,0,0,1-1.354.368,2.533,2.533,0,0,1-1.35-.368,2.655,2.655,0,0,1-.952-1.009,2.968,2.968,0,0,1-.351-1.449,2.984,2.984,0,0,1,.351-1.457,2.665,2.665,0,0,1,.952-1.011,2.526,2.526,0,0,1,1.35-.37,2.52,2.52,0,0,1,1.354.37,2.645,2.645,0,0,1,.944,1.011A3.011,3.011,0,0,1,28.279-17.048Zm-.629,0a2.467,2.467,0,0,0-.262-1.157A2.041,2.041,0,0,0,26.671-19a1.885,1.885,0,0,0-1.037-.291A1.89,1.89,0,0,0,24.6-19a2.06,2.06,0,0,0-.726.794,2.437,2.437,0,0,0-.266,1.157,2.414,2.414,0,0,0,.266,1.146,2.06,2.06,0,0,0,.726.794,1.89,1.89,0,0,0,1.033.291,1.885,1.885,0,0,0,1.037-.291,2.041,2.041,0,0,0,.718-.794A2.444,2.444,0,0,0,27.651-17.048Zm1.873,1.862a.438.438,0,0,1-.075-.251.258.258,0,0,1,.127-.2.267.267,0,0,1,.2-.059.3.3,0,0,1,.206.109,2.188,2.188,0,0,0,.682.6,1.929,1.929,0,0,0,.96.226,1.867,1.867,0,0,0,.585-.1,1.1,1.1,0,0,0,.475-.306.765.765,0,0,0,.189-.533.734.734,0,0,0-.189-.528,1.356,1.356,0,0,0-.489-.318,5.043,5.043,0,0,0-.638-.2q-.356-.1-.689-.217a2.437,2.437,0,0,1-.592-.307,1.438,1.438,0,0,1-.414-.455,1.281,1.281,0,0,1-.155-.649,1.334,1.334,0,0,1,.238-.785A1.581,1.581,0,0,1,30.6-19.7a2.224,2.224,0,0,1,.936-.19,2.6,2.6,0,0,1,.571.068,2.3,2.3,0,0,1,.595.227,1.848,1.848,0,0,1,.529.439.287.287,0,0,1,.093.211.3.3,0,0,1-.109.225.3.3,0,0,1-.194.06.249.249,0,0,1-.181-.084,1.592,1.592,0,0,0-.595-.436,1.9,1.9,0,0,0-.749-.146,1.666,1.666,0,0,0-.568.1,1.047,1.047,0,0,0-.445.3.782.782,0,0,0-.176.532.745.745,0,0,0,.208.5,1.457,1.457,0,0,0,.515.322,7.165,7.165,0,0,0,.72.235,6.234,6.234,0,0,1,.643.2,2.174,2.174,0,0,1,.542.289,1.286,1.286,0,0,1,.377.443,1.437,1.437,0,0,1,.14.672,1.308,1.308,0,0,1-.255.81,1.627,1.627,0,0,1-.684.52,2.424,2.424,0,0,1-.952.181,2.815,2.815,0,0,1-1.095-.222A2.345,2.345,0,0,1,29.523-15.187Z" transform="translate(-0.45 22.2)" fill="#8d8d8d"/>
</svg>
