<svg xmlns="http://www.w3.org/2000/svg" width="145.656" height="52.4" viewBox="0 0 145.656 52.4">
  <g id="Group_10898" data-name="Group 10898" transform="translate(-142 -426)">
    <path id="Path_21307" data-name="Path 21307" d="M2.139-15.8H9.288a1.648,1.648,0,0,1,1.207.477,1.606,1.606,0,0,1,.483,1.191,1.523,1.523,0,0,1-.483,1.147,1.676,1.676,0,0,1-1.207.462H2.139A1.648,1.648,0,0,1,.933-13,1.606,1.606,0,0,1,.45-14.187a1.523,1.523,0,0,1,.483-1.147A1.676,1.676,0,0,1,2.139-15.8Zm3.227-3.723A1.694,1.694,0,0,1,6.649-19a1.8,1.8,0,0,1,.5,1.3V-4.447a1.283,1.283,0,0,0,.166.685.949.949,0,0,0,.452.387,1.594,1.594,0,0,0,.618.119,1.616,1.616,0,0,0,.664-.134,1.693,1.693,0,0,1,.694-.134,1.02,1.02,0,0,1,.769.387,1.55,1.55,0,0,1,.347,1.072,1.573,1.573,0,0,1-.92,1.37,3.858,3.858,0,0,1-1.976.536,10.517,10.517,0,0,1-1.4-.1A3.821,3.821,0,0,1,5.11-.768,3.112,3.112,0,0,1,3.979-2,4.848,4.848,0,0,1,3.527-4.3V-17.7A1.748,1.748,0,0,1,4.055-19,1.793,1.793,0,0,1,5.367-19.519ZM16.708-.157a1.743,1.743,0,0,1-1.3-.521,1.774,1.774,0,0,1-.513-1.3v-12.3a1.774,1.774,0,0,1,.513-1.3,1.743,1.743,0,0,1,1.3-.521,1.743,1.743,0,0,1,1.3.521,1.774,1.774,0,0,1,.513,1.3v2.8l-.211-2a4.637,4.637,0,0,1,.86-1.266,5.091,5.091,0,0,1,1.191-.923,5.451,5.451,0,0,1,1.418-.551,6.52,6.52,0,0,1,1.508-.179,2.325,2.325,0,0,1,1.523.506,1.5,1.5,0,0,1,.618,1.191,1.754,1.754,0,0,1-.513,1.415,1.7,1.7,0,0,1-1.116.432,2.527,2.527,0,0,1-1.041-.209,2.6,2.6,0,0,0-1.071-.209,2.65,2.65,0,0,0-1.1.253,3.027,3.027,0,0,0-1.026.789A4.144,4.144,0,0,0,18.8-10.9a5.457,5.457,0,0,0-.287,1.862v7.06a1.774,1.774,0,0,1-.513,1.3A1.743,1.743,0,0,1,16.708-.157ZM40.567-16.094a1.743,1.743,0,0,1,1.3.521,1.774,1.774,0,0,1,.513,1.3v12.66a8.007,8.007,0,0,1-1.041,4.364,5.9,5.9,0,0,1-2.79,2.338,10.281,10.281,0,0,1-3.921.715,15.127,15.127,0,0,1-2.051-.149,6.985,6.985,0,0,1-1.78-.447,2.569,2.569,0,0,1-1.252-.968A1.444,1.444,0,0,1,29.407,3a1.869,1.869,0,0,1,.875-1.177,1.523,1.523,0,0,1,1.267-.074q.483.149,1.267.462a4.86,4.86,0,0,0,1.81.313,6.19,6.19,0,0,0,2.308-.372A4.868,4.868,0,0,0,38.32.9a9.352,9.352,0,0,0,.468-2.4v-2l.633.715a5.222,5.222,0,0,1-1.282,1.623,5.245,5.245,0,0,1-1.825.968A8.142,8.142,0,0,1,33.9.14a5.235,5.235,0,0,1-2.79-.73,4.985,4.985,0,0,1-1.855-2.026,6.411,6.411,0,0,1-.664-2.964v-8.7a1.774,1.774,0,0,1,.513-1.3,1.743,1.743,0,0,1,1.3-.521,1.743,1.743,0,0,1,1.3.521,1.774,1.774,0,0,1,.513,1.3v7.626a3.583,3.583,0,0,0,.86,2.726,3.414,3.414,0,0,0,2.4.789,3.62,3.62,0,0,0,1.78-.4A2.692,2.692,0,0,0,38.366-4.73a4.286,4.286,0,0,0,.392-1.921v-7.626a1.774,1.774,0,0,1,.513-1.3A1.743,1.743,0,0,1,40.567-16.094ZM59.955-22.2a.868.868,0,0,1,.652.261.885.885,0,0,1,.253.64v20.24a.869.869,0,0,1-.264.637.872.872,0,0,1-.641.264A.862.862,0,0,1,59.3-.422a.889.889,0,0,1-.253-.637V-4.6l.528-.424a3.922,3.922,0,0,1-.456,1.765A5.958,5.958,0,0,1,57.84-1.576a6.615,6.615,0,0,1-1.93,1.244A6,6,0,0,1,53.523.14,6.556,6.556,0,0,1,49.9-.895a7.3,7.3,0,0,1-2.545-2.83A8.684,8.684,0,0,1,46.419-7.8a8.7,8.7,0,0,1,.935-4.081A7.233,7.233,0,0,1,49.892-14.7a6.545,6.545,0,0,1,3.6-1.024,6.387,6.387,0,0,1,2.372.443,6.455,6.455,0,0,1,1.976,1.218A5.947,5.947,0,0,1,59.19-12.3a4.6,4.6,0,0,1,.494,2.078l-.633-.462V-21.3a.889.889,0,0,1,.253-.637A.862.862,0,0,1,59.955-22.2ZM53.681-1.528a5.072,5.072,0,0,0,2.854-.812,5.572,5.572,0,0,0,1.938-2.234A7.163,7.163,0,0,0,59.178-7.8a7.11,7.11,0,0,0-.705-3.221,5.558,5.558,0,0,0-1.949-2.223,5.087,5.087,0,0,0-2.843-.812,5.034,5.034,0,0,0-2.813.812,5.641,5.641,0,0,0-1.961,2.223A7.017,7.017,0,0,0,48.191-7.8a7.019,7.019,0,0,0,.716,3.2,5.707,5.707,0,0,0,1.961,2.245A4.985,4.985,0,0,0,53.681-1.528ZM80.564-7.776a8.2,8.2,0,0,1-1,4.059A7.466,7.466,0,0,1,76.847-.891,7.43,7.43,0,0,1,72.948.14,7.447,7.447,0,0,1,69.061-.891,7.523,7.523,0,0,1,66.32-3.717a8.127,8.127,0,0,1-1.01-4.059,8.172,8.172,0,0,1,1.01-4.081,7.552,7.552,0,0,1,2.741-2.83,7.427,7.427,0,0,1,3.887-1.035,7.41,7.41,0,0,1,3.9,1.035,7.494,7.494,0,0,1,2.718,2.83A8.246,8.246,0,0,1,80.564-7.776Zm-1.81,0A6.754,6.754,0,0,0,78-11.015a5.774,5.774,0,0,0-2.066-2.223,5.54,5.54,0,0,0-2.986-.815,5.556,5.556,0,0,0-2.975.815,5.83,5.83,0,0,0-2.089,2.223,6.672,6.672,0,0,0-.765,3.239,6.609,6.609,0,0,0,.765,3.21,5.83,5.83,0,0,0,2.089,2.223,5.556,5.556,0,0,0,2.975.815,5.54,5.54,0,0,0,2.986-.815A5.774,5.774,0,0,0,78-4.566,6.689,6.689,0,0,0,78.754-7.776Zm5.392,5.213a1.2,1.2,0,0,1-.215-.7.72.72,0,0,1,.366-.562.784.784,0,0,1,.562-.164.881.881,0,0,1,.592.305,6.249,6.249,0,0,0,1.964,1.676,5.679,5.679,0,0,0,2.764.633,5.512,5.512,0,0,0,1.685-.279,3.19,3.19,0,0,0,1.369-.856,2.107,2.107,0,0,0,.543-1.493,2.022,2.022,0,0,0-.543-1.478,3.916,3.916,0,0,0-1.406-.89,14.812,14.812,0,0,0-1.836-.573q-1.026-.268-1.983-.607a7.089,7.089,0,0,1-1.7-.86,4.07,4.07,0,0,1-1.191-1.273,3.508,3.508,0,0,1-.445-1.817,3.663,3.663,0,0,1,.686-2.2,4.528,4.528,0,0,1,1.881-1.486,6.557,6.557,0,0,1,2.7-.532,7.7,7.7,0,0,1,1.644.19,6.735,6.735,0,0,1,1.712.637,5.29,5.29,0,0,1,1.523,1.229.793.793,0,0,1,.268.592.82.82,0,0,1-.313.629.877.877,0,0,1-.558.168.726.726,0,0,1-.52-.235,4.579,4.579,0,0,0-1.712-1.221,5.612,5.612,0,0,0-2.157-.41,4.918,4.918,0,0,0-1.636.272,3.019,3.019,0,0,0-1.282.838,2.153,2.153,0,0,0-.505,1.489,2.057,2.057,0,0,0,.6,1.411,4.213,4.213,0,0,0,1.482.9,21.041,21.041,0,0,0,2.074.659,18.323,18.323,0,0,1,1.851.555,6.318,6.318,0,0,1,1.561.808,3.629,3.629,0,0,1,1.086,1.24,3.932,3.932,0,0,1,.4,1.88,3.594,3.594,0,0,1-.735,2.268A4.673,4.673,0,0,1,92.747-.366,7.151,7.151,0,0,1,90.005.14a8.3,8.3,0,0,1-3.152-.622A6.727,6.727,0,0,1,84.146-2.563Z" transform="translate(167.55 448.2)"/>
    <path id="Path_21435" data-name="Path 21435" d="M3.576,0A.225.225,0,0,1,3.4-.072.241.241,0,0,1,3.336-.24V-8.112h.48V-.24a.23.23,0,0,1-.072.168A.23.23,0,0,1,3.576,0ZM.66-7.944A.241.241,0,0,1,.492-8.01.211.211,0,0,1,.42-8.172a.211.211,0,0,1,.072-.162A.241.241,0,0,1,.66-8.4H6.492a.241.241,0,0,1,.168.066.211.211,0,0,1,.072.162A.207.207,0,0,1,6.66-8a.254.254,0,0,1-.168.06ZM7.728,0a.225.225,0,0,1-.174-.072A.241.241,0,0,1,7.488-.24V-5.748a.23.23,0,0,1,.072-.168.23.23,0,0,1,.168-.072.225.225,0,0,1,.174.072.241.241,0,0,1,.066.168V-3.72l-.2.312a2.952,2.952,0,0,1,.162-.948A3.153,3.153,0,0,1,8.4-5.25a2.5,2.5,0,0,1,.762-.672A2.05,2.05,0,0,1,10.2-6.18a1.488,1.488,0,0,1,.36.048.22.22,0,0,1,.192.228.272.272,0,0,1-.06.18.193.193,0,0,1-.156.072.388.388,0,0,1-.174-.054.642.642,0,0,0-.294-.054,1.432,1.432,0,0,0-.756.228,2.671,2.671,0,0,0-.678.606,3.227,3.227,0,0,0-.486.822,2.292,2.292,0,0,0-.18.864v3A.23.23,0,0,1,7.9-.072.23.23,0,0,1,7.728,0Zm8.748-6.18a.225.225,0,0,1,.174.072.241.241,0,0,1,.066.168V-.588a3.246,3.246,0,0,1-.372,1.6A2.608,2.608,0,0,1,15.336,2.04a2.9,2.9,0,0,1-1.452.36,3.429,3.429,0,0,1-.99-.132,2.528,2.528,0,0,1-.714-.324.451.451,0,0,1-.132-.144.181.181,0,0,1,0-.18.261.261,0,0,1,.138-.132.173.173,0,0,1,.174.024,5.026,5.026,0,0,0,.618.288,2.454,2.454,0,0,0,.93.168,2.262,2.262,0,0,0,1.218-.324,2.224,2.224,0,0,0,.816-.9,2.891,2.891,0,0,0,.294-1.332v-.888l.024.3a1.954,1.954,0,0,1-.51.654,2.785,2.785,0,0,1-.768.468A2.311,2.311,0,0,1,14.1.12a2.279,2.279,0,0,1-1.218-.294,1.74,1.74,0,0,1-.7-.81A3.049,3.049,0,0,1,11.964-2.2V-5.94a.241.241,0,0,1,.066-.168A.225.225,0,0,1,12.2-6.18a.225.225,0,0,1,.174.072.241.241,0,0,1,.066.168V-2.2A2.208,2.208,0,0,0,12.822-.84a1.5,1.5,0,0,0,1.278.5,2.082,2.082,0,0,0,1.026-.27,2.417,2.417,0,0,0,.8-.7,1.5,1.5,0,0,0,.312-.888V-5.94a.241.241,0,0,1,.066-.168A.225.225,0,0,1,16.476-6.18ZM25.632-8.4a3.348,3.348,0,0,1,1.56.342,3.034,3.034,0,0,1,1.086.936,4.147,4.147,0,0,1,.63,1.35,6.008,6.008,0,0,1,.2,1.572,5.835,5.835,0,0,1-.366,2.106A3.338,3.338,0,0,1,27.612-.57a3.236,3.236,0,0,1-1.98.57h-3.12a.23.23,0,0,1-.168-.072.23.23,0,0,1-.072-.168V-8.16a.23.23,0,0,1,.072-.168.23.23,0,0,1,.168-.072Zm-.12,7.92a2.939,2.939,0,0,0,1.782-.5,2.879,2.879,0,0,0,1-1.344A5.3,5.3,0,0,0,28.608-4.2a5.579,5.579,0,0,0-.174-1.4A3.584,3.584,0,0,0,27.888-6.8a2.622,2.622,0,0,0-.96-.822,3.084,3.084,0,0,0-1.416-.3H22.7l.072-.1V-.372L22.7-.48Zm5.736.24a.23.23,0,0,1-.072.168A.23.23,0,0,1,31.008,0a.225.225,0,0,1-.174-.072.241.241,0,0,1-.066-.168v-5.7a.23.23,0,0,1,.072-.168.23.23,0,0,1,.168-.072.225.225,0,0,1,.174.072.241.241,0,0,1,.066.168ZM31.008-7A.427.427,0,0,1,30.7-7.1a.363.363,0,0,1-.114-.276v-.1a.355.355,0,0,1,.12-.276.449.449,0,0,1,.312-.108.394.394,0,0,1,.282.108.364.364,0,0,1,.114.276v.1A.364.364,0,0,1,31.3-7.1.41.41,0,0,1,31.008-7ZM33.54,0a.225.225,0,0,1-.174-.072A.241.241,0,0,1,33.3-.24V-5.748a.23.23,0,0,1,.072-.168.23.23,0,0,1,.168-.072.225.225,0,0,1,.174.072.241.241,0,0,1,.066.168V-3.72l-.2.312a2.952,2.952,0,0,1,.162-.948,3.153,3.153,0,0,1,.474-.894,2.5,2.5,0,0,1,.762-.672,2.05,2.05,0,0,1,1.038-.258,1.488,1.488,0,0,1,.36.048.22.22,0,0,1,.192.228.272.272,0,0,1-.06.18.194.194,0,0,1-.156.072.388.388,0,0,1-.174-.054.642.642,0,0,0-.294-.054,1.432,1.432,0,0,0-.756.228,2.671,2.671,0,0,0-.678.606,3.227,3.227,0,0,0-.486.822,2.292,2.292,0,0,0-.18.864v3a.23.23,0,0,1-.072.168A.23.23,0,0,1,33.54,0Zm6.672.12a3.215,3.215,0,0,1-1.59-.384A2.779,2.779,0,0,1,37.536-1.35,3.3,3.3,0,0,1,37.14-3a3.51,3.51,0,0,1,.39-1.716A2.85,2.85,0,0,1,38.538-5.8a2.477,2.477,0,0,1,1.314-.378,3.057,3.057,0,0,1,.984.162,2.419,2.419,0,0,1,.858.5,2.585,2.585,0,0,1,.612.852,3.164,3.164,0,0,1,.258,1.218.251.251,0,0,1-.072.174.222.222,0,0,1-.168.078h-4.9l-.072-.456h4.836l-.12.108v-.216a1.978,1.978,0,0,0-.4-1.068,2.236,2.236,0,0,0-.822-.654,2.347,2.347,0,0,0-1-.222,2,2,0,0,0-.756.162,2.27,2.27,0,0,0-.732.492,2.5,2.5,0,0,0-.546.834,3.041,3.041,0,0,0-.21,1.176A3.063,3.063,0,0,0,37.9-1.692a2.363,2.363,0,0,0,.876.984,2.61,2.61,0,0,0,1.434.372,2.127,2.127,0,0,0,.768-.138,2.448,2.448,0,0,0,.648-.366,2.247,2.247,0,0,0,.468-.492.274.274,0,0,1,.2-.108.188.188,0,0,1,.144.066.217.217,0,0,1,.06.15.223.223,0,0,1-.048.144,3.555,3.555,0,0,1-.954.84A2.4,2.4,0,0,1,40.212.12ZM46.9-6.18a4.12,4.12,0,0,1,1.014.12,2.453,2.453,0,0,1,.768.318q.294.2.294.414a.249.249,0,0,1-.066.162.2.2,0,0,1-.162.078.3.3,0,0,1-.21-.072,1.757,1.757,0,0,1-.162-.174.746.746,0,0,0-.264-.186,1.922,1.922,0,0,0-.474-.144,3.975,3.975,0,0,0-.75-.06,2.352,2.352,0,0,0-1.272.36,2.661,2.661,0,0,0-.918.966,2.722,2.722,0,0,0-.342,1.362,2.948,2.948,0,0,0,.318,1.38,2.435,2.435,0,0,0,.888.966,2.461,2.461,0,0,0,1.326.354,2.541,2.541,0,0,0,.822-.1,2.922,2.922,0,0,0,.486-.222,1.114,1.114,0,0,0,.348-.276.278.278,0,0,1,.228-.132.191.191,0,0,1,.15.06.224.224,0,0,1,.054.156q0,.144-.264.378a2.388,2.388,0,0,1-.738.414,3.158,3.158,0,0,1-1.122.18A2.891,2.891,0,0,1,45.3-.294a2.882,2.882,0,0,1-1.05-1.128,6.352,6.352,0,0,1-.378-1.614A6.084,6.084,0,0,1,44.25-4.59a3.047,3.047,0,0,1,1.056-1.152A2.865,2.865,0,0,1,46.9-6.18Zm3.06.144H52.74a.211.211,0,0,1,.162.072.227.227,0,0,1,.066.156.22.22,0,0,1-.066.162.22.22,0,0,1-.162.066H49.956a.218.218,0,0,1-.156-.072.218.218,0,0,1-.072-.156A.211.211,0,0,1,49.8-5.97.227.227,0,0,1,49.956-6.036ZM51.18-7.8a.225.225,0,0,1,.174.072.241.241,0,0,1,.066.168v6.252a1.262,1.262,0,0,0,.1.582.48.48,0,0,0,.258.24.916.916,0,0,0,.3.054.388.388,0,0,0,.144-.024.388.388,0,0,1,.144-.024.188.188,0,0,1,.144.066.217.217,0,0,1,.06.15.222.222,0,0,1-.138.186A.687.687,0,0,1,52.092,0q-.072,0-.258-.006a.984.984,0,0,1-.4-.108.822.822,0,0,1-.354-.372,1.743,1.743,0,0,1-.144-.8V-7.56a.23.23,0,0,1,.072-.168A.23.23,0,0,1,51.18-7.8Zm14.1,3.6a5,5,0,0,1-.294,1.752,4.019,4.019,0,0,1-.834,1.368,3.728,3.728,0,0,1-1.272.888A4.059,4.059,0,0,1,61.272.12a4.059,4.059,0,0,1-1.608-.312,3.728,3.728,0,0,1-1.272-.888,4.019,4.019,0,0,1-.834-1.368A5,5,0,0,1,57.264-4.2a5,5,0,0,1,.294-1.752,4.019,4.019,0,0,1,.834-1.368,3.728,3.728,0,0,1,1.272-.888,4.059,4.059,0,0,1,1.608-.312,4.059,4.059,0,0,1,1.608.312,3.728,3.728,0,0,1,1.272.888,4.019,4.019,0,0,1,.834,1.368A5,5,0,0,1,65.28-4.2Zm-.5,0a4.305,4.305,0,0,0-.45-2.016A3.349,3.349,0,0,0,63.09-7.56a3.418,3.418,0,0,0-1.818-.48,3.426,3.426,0,0,0-1.812.48,3.335,3.335,0,0,0-1.242,1.344,4.3,4.3,0,0,0-.45,2.016,4.3,4.3,0,0,0,.45,2.016A3.335,3.335,0,0,0,59.46-.84a3.426,3.426,0,0,0,1.812.48A3.418,3.418,0,0,0,63.09-.84a3.349,3.349,0,0,0,1.236-1.344A4.305,4.305,0,0,0,64.776-4.2ZM69.66-6.18a2.268,2.268,0,0,1,1.23.3,1.774,1.774,0,0,1,.7.816,2.886,2.886,0,0,1,.222,1.152V-.24a.23.23,0,0,1-.072.168A.23.23,0,0,1,71.568,0a.225.225,0,0,1-.174-.072.241.241,0,0,1-.066-.168V-3.864a2.424,2.424,0,0,0-.174-.936,1.464,1.464,0,0,0-.552-.672,1.755,1.755,0,0,0-.99-.252,2.283,2.283,0,0,0-1.032.252,2.42,2.42,0,0,0-.834.672,1.478,1.478,0,0,0-.33.936V-.24a.23.23,0,0,1-.072.168A.23.23,0,0,1,67.176,0,.225.225,0,0,1,67-.072a.241.241,0,0,1-.066-.168V-5.748a.23.23,0,0,1,.072-.168.23.23,0,0,1,.168-.072.225.225,0,0,1,.174.072.241.241,0,0,1,.066.168v1.176l-.3.576a1.636,1.636,0,0,1,.228-.828,2.56,2.56,0,0,1,.6-.7,2.974,2.974,0,0,1,.822-.48A2.465,2.465,0,0,1,69.66-6.18ZM74.4-.24a.23.23,0,0,1-.072.168A.23.23,0,0,1,74.16,0a.225.225,0,0,1-.174-.072A.241.241,0,0,1,73.92-.24v-8.4a.23.23,0,0,1,.072-.168.23.23,0,0,1,.168-.072.225.225,0,0,1,.174.072.241.241,0,0,1,.066.168Zm2.592,0a.23.23,0,0,1-.072.168A.23.23,0,0,1,76.752,0a.225.225,0,0,1-.174-.072.241.241,0,0,1-.066-.168v-5.7a.23.23,0,0,1,.072-.168.23.23,0,0,1,.168-.072.225.225,0,0,1,.174.072.241.241,0,0,1,.066.168ZM76.752-7a.427.427,0,0,1-.306-.108.364.364,0,0,1-.114-.276v-.1a.355.355,0,0,1,.12-.276.449.449,0,0,1,.312-.108.394.394,0,0,1,.282.108.364.364,0,0,1,.114.276v.1a.364.364,0,0,1-.114.276A.41.41,0,0,1,76.752-7Zm5.016.816a2.268,2.268,0,0,1,1.23.3,1.774,1.774,0,0,1,.7.816,2.886,2.886,0,0,1,.222,1.152V-.24a.23.23,0,0,1-.072.168A.23.23,0,0,1,83.676,0,.225.225,0,0,1,83.5-.072a.241.241,0,0,1-.066-.168V-3.864a2.424,2.424,0,0,0-.174-.936,1.464,1.464,0,0,0-.552-.672,1.755,1.755,0,0,0-.99-.252,2.283,2.283,0,0,0-1.032.252,2.42,2.42,0,0,0-.834.672,1.478,1.478,0,0,0-.33.936V-.24a.23.23,0,0,1-.072.168A.23.23,0,0,1,79.284,0a.225.225,0,0,1-.174-.072.241.241,0,0,1-.066-.168V-5.748a.23.23,0,0,1,.072-.168.23.23,0,0,1,.168-.072.225.225,0,0,1,.174.072.241.241,0,0,1,.066.168v1.176l-.3.576a1.636,1.636,0,0,1,.228-.828,2.56,2.56,0,0,1,.6-.7,2.974,2.974,0,0,1,.822-.48A2.465,2.465,0,0,1,81.768-6.18Zm6.9,6.3a3.215,3.215,0,0,1-1.59-.384A2.779,2.779,0,0,1,85.992-1.35,3.3,3.3,0,0,1,85.6-3a3.51,3.51,0,0,1,.39-1.716A2.85,2.85,0,0,1,86.994-5.8a2.477,2.477,0,0,1,1.314-.378,3.057,3.057,0,0,1,.984.162,2.419,2.419,0,0,1,.858.5,2.585,2.585,0,0,1,.612.852,3.164,3.164,0,0,1,.258,1.218.25.25,0,0,1-.072.174.222.222,0,0,1-.168.078h-4.9l-.072-.456h4.836l-.12.108v-.216a1.978,1.978,0,0,0-.4-1.068,2.236,2.236,0,0,0-.822-.654,2.347,2.347,0,0,0-1-.222,2,2,0,0,0-.756.162,2.27,2.27,0,0,0-.732.492,2.5,2.5,0,0,0-.546.834,3.041,3.041,0,0,0-.21,1.176,3.063,3.063,0,0,0,.294,1.344,2.363,2.363,0,0,0,.876.984,2.61,2.61,0,0,0,1.434.372,2.127,2.127,0,0,0,.768-.138,2.448,2.448,0,0,0,.648-.366,2.247,2.247,0,0,0,.468-.492.274.274,0,0,1,.2-.108.188.188,0,0,1,.144.066.217.217,0,0,1,.06.15.223.223,0,0,1-.048.144,3.556,3.556,0,0,1-.954.84A2.4,2.4,0,0,1,88.668.12ZM98.4.12a3.564,3.564,0,0,1-1.608-.312,4.791,4.791,0,0,1-1.3-.948.313.313,0,0,1-.048-.066.23.23,0,0,1-.024-.114.272.272,0,0,1,.084-.186.245.245,0,0,1,.18-.09.274.274,0,0,1,.2.108,3.223,3.223,0,0,0,1.122.84,3.234,3.234,0,0,0,1.338.288,2.842,2.842,0,0,0,1.092-.2,1.763,1.763,0,0,0,.756-.564,1.385,1.385,0,0,0,.276-.858,1.492,1.492,0,0,0-.336-.984,2.5,2.5,0,0,0-.834-.612q-.51-.24-1.074-.444-.444-.168-.876-.348a3.678,3.678,0,0,1-.78-.438,1.88,1.88,0,0,1-.552-.648,2.067,2.067,0,0,1-.2-.966,1.864,1.864,0,0,1,.318-1.062,2.2,2.2,0,0,1,.912-.756,3.26,3.26,0,0,1,1.41-.282,3.723,3.723,0,0,1,1.332.246,2.238,2.238,0,0,1,1.02.738.521.521,0,0,1,.12.252.236.236,0,0,1-.09.168.284.284,0,0,1-.2.084.193.193,0,0,1-.156-.072,2.21,2.21,0,0,0-.522-.5,2.434,2.434,0,0,0-.69-.324,2.853,2.853,0,0,0-.816-.114,2.852,2.852,0,0,0-1.068.192,1.853,1.853,0,0,0-.768.546,1.334,1.334,0,0,0-.288.87,1.3,1.3,0,0,0,.318.906,2.535,2.535,0,0,0,.81.588q.492.234,1.008.426.456.156.906.342a3.687,3.687,0,0,1,.816.462,2.01,2.01,0,0,1,.582.7,2.3,2.3,0,0,1,.216,1.056,1.778,1.778,0,0,1-.318,1.02,2.29,2.29,0,0,1-.894.756A3.164,3.164,0,0,1,98.4.12Zm6.876-6.18a2.129,2.129,0,0,1,1.194.312,1.91,1.91,0,0,1,.708.84,2.841,2.841,0,0,1,.234,1.164v3.5a.23.23,0,0,1-.072.168.23.23,0,0,1-.168.072A.225.225,0,0,1,107-.072a.241.241,0,0,1-.066-.168v-3.5a2.5,2.5,0,0,0-.168-.936,1.465,1.465,0,0,0-.528-.672,1.644,1.644,0,0,0-.96-.252,2.187,2.187,0,0,0-1.008.252,2.334,2.334,0,0,0-.81.672,1.513,1.513,0,0,0-.318.936v3.5a.23.23,0,0,1-.072.168A.23.23,0,0,1,102.9,0a.225.225,0,0,1-.174-.072.241.241,0,0,1-.066-.168v-8.4a.23.23,0,0,1,.072-.168.23.23,0,0,1,.168-.072.225.225,0,0,1,.174.072.241.241,0,0,1,.066.168v4.188l-.3.576a1.706,1.706,0,0,1,.216-.828,2.515,2.515,0,0,1,.57-.7,2.785,2.785,0,0,1,.786-.48A2.3,2.3,0,0,1,105.276-6.06Zm9.732,3.036a3.328,3.328,0,0,1-.384,1.6,2.942,2.942,0,0,1-1.05,1.128,2.816,2.816,0,0,1-1.518.414,2.824,2.824,0,0,1-1.512-.414,2.971,2.971,0,0,1-1.062-1.128,3.286,3.286,0,0,1-.39-1.6,3.311,3.311,0,0,1,.39-1.614,2.971,2.971,0,0,1,1.062-1.128,2.824,2.824,0,0,1,1.512-.414,2.816,2.816,0,0,1,1.518.414,2.942,2.942,0,0,1,1.05,1.128A3.353,3.353,0,0,1,115.008-3.024Zm-.48,0a2.938,2.938,0,0,0-.318-1.386,2.476,2.476,0,0,0-.876-.96,2.334,2.334,0,0,0-1.278-.354,2.343,2.343,0,0,0-1.272.354,2.505,2.505,0,0,0-.888.96,2.894,2.894,0,0,0-.324,1.386A2.868,2.868,0,0,0,109.9-1.65a2.505,2.505,0,0,0,.888.96,2.343,2.343,0,0,0,1.272.354,2.334,2.334,0,0,0,1.278-.354,2.476,2.476,0,0,0,.876-.96A2.912,2.912,0,0,0,114.528-3.024Zm4.944-3.036a2.608,2.608,0,0,1,1.428.4,2.826,2.826,0,0,1,.99,1.086A3.316,3.316,0,0,1,122.256-3a3.326,3.326,0,0,1-.366,1.572,2.844,2.844,0,0,1-1,1.1,2.587,2.587,0,0,1-1.422.4,2.547,2.547,0,0,1-.762-.114,2.583,2.583,0,0,1-.678-.324,2.687,2.687,0,0,1-.57-.522,3.5,3.5,0,0,1-.45-.708l.156-.168V2.16a.241.241,0,0,1-.066.168.225.225,0,0,1-.174.072.246.246,0,0,1-.24-.24V-5.82a.241.241,0,0,1,.066-.168.225.225,0,0,1,.174-.072.225.225,0,0,1,.174.072.241.241,0,0,1,.066.168v1.536l-.156-.084a2.931,2.931,0,0,1,.42-.768,2.243,2.243,0,0,1,.576-.528,2.445,2.445,0,0,1,.7-.3A3.061,3.061,0,0,1,119.472-6.06Zm-.024.456a2.179,2.179,0,0,0-1.206.336,2.345,2.345,0,0,0-.822.918,2.907,2.907,0,0,0-.3,1.35,2.953,2.953,0,0,0,.3,1.35,2.326,2.326,0,0,0,.822.93,2.179,2.179,0,0,0,1.206.336,2.158,2.158,0,0,0,1.194-.336,2.37,2.37,0,0,0,.828-.93A2.905,2.905,0,0,0,121.776-3a2.869,2.869,0,0,0-.306-1.344,2.38,2.38,0,0,0-.828-.924A2.158,2.158,0,0,0,119.448-5.6Zm7.272-.456a2.608,2.608,0,0,1,1.428.4,2.826,2.826,0,0,1,.99,1.086A3.316,3.316,0,0,1,129.5-3a3.326,3.326,0,0,1-.366,1.572,2.844,2.844,0,0,1-1,1.1,2.587,2.587,0,0,1-1.422.4,2.547,2.547,0,0,1-.762-.114,2.583,2.583,0,0,1-.678-.324,2.687,2.687,0,0,1-.57-.522,3.5,3.5,0,0,1-.45-.708l.156-.168V2.16a.241.241,0,0,1-.066.168.225.225,0,0,1-.174.072.246.246,0,0,1-.24-.24V-5.82A.241.241,0,0,1,124-5.988a.225.225,0,0,1,.174-.072.225.225,0,0,1,.174.072.241.241,0,0,1,.066.168v1.536l-.156-.084a2.931,2.931,0,0,1,.42-.768,2.243,2.243,0,0,1,.576-.528,2.445,2.445,0,0,1,.7-.3A3.061,3.061,0,0,1,126.72-6.06ZM126.7-5.6a2.179,2.179,0,0,0-1.206.336,2.345,2.345,0,0,0-.822.918,2.907,2.907,0,0,0-.3,1.35,2.953,2.953,0,0,0,.3,1.35,2.326,2.326,0,0,0,.822.93,2.179,2.179,0,0,0,1.206.336A2.158,2.158,0,0,0,127.89-.72a2.37,2.37,0,0,0,.828-.93A2.905,2.905,0,0,0,129.024-3a2.869,2.869,0,0,0-.306-1.344,2.38,2.38,0,0,0-.828-.924A2.158,2.158,0,0,0,126.7-5.6ZM131.664-.24a.23.23,0,0,1-.072.168.23.23,0,0,1-.168.072.225.225,0,0,1-.174-.072.241.241,0,0,1-.066-.168v-5.7a.23.23,0,0,1,.072-.168.23.23,0,0,1,.168-.072.225.225,0,0,1,.174.072.241.241,0,0,1,.066.168ZM131.424-7a.427.427,0,0,1-.306-.108A.363.363,0,0,1,131-7.38v-.1a.355.355,0,0,1,.12-.276.449.449,0,0,1,.312-.108.394.394,0,0,1,.282.108.363.363,0,0,1,.114.276v.1a.363.363,0,0,1-.114.276A.41.41,0,0,1,131.424-7Zm5.016.816a2.268,2.268,0,0,1,1.23.3,1.774,1.774,0,0,1,.7.816,2.886,2.886,0,0,1,.222,1.152V-.24a.23.23,0,0,1-.072.168.23.23,0,0,1-.168.072.225.225,0,0,1-.174-.072.241.241,0,0,1-.066-.168V-3.864a2.424,2.424,0,0,0-.174-.936,1.464,1.464,0,0,0-.552-.672,1.755,1.755,0,0,0-.99-.252,2.283,2.283,0,0,0-1.032.252,2.42,2.42,0,0,0-.834.672,1.478,1.478,0,0,0-.33.936V-.24a.23.23,0,0,1-.072.168.23.23,0,0,1-.168.072.225.225,0,0,1-.174-.072.241.241,0,0,1-.066-.168V-5.748a.23.23,0,0,1,.072-.168.23.23,0,0,1,.168-.072.225.225,0,0,1,.174.072.241.241,0,0,1,.066.168v1.176L133.9-4a1.636,1.636,0,0,1,.228-.828,2.559,2.559,0,0,1,.6-.7,2.974,2.974,0,0,1,.822-.48A2.465,2.465,0,0,1,136.44-6.18Zm6.732,0a2.63,2.63,0,0,1,1.008.192,2.891,2.891,0,0,1,.822.5,2.52,2.52,0,0,1,.552.672,1.462,1.462,0,0,1,.2.708l-.156-.444v-1.2a.241.241,0,0,1,.066-.168.225.225,0,0,1,.174-.072.225.225,0,0,1,.174.072.241.241,0,0,1,.066.168v5.16a3.2,3.2,0,0,1-.378,1.6A2.6,2.6,0,0,1,144.66,2.04a3.158,3.158,0,0,1-1.536.36,3.837,3.837,0,0,1-.966-.126,3.137,3.137,0,0,1-.81-.318q-.324-.192-.324-.408a.224.224,0,0,1,.054-.156.191.191,0,0,1,.15-.06.285.285,0,0,1,.222.132.877.877,0,0,0,.366.24l.294.1a3.044,3.044,0,0,0,.45.1,3.76,3.76,0,0,0,.588.042,2.332,2.332,0,0,0,1.794-.7,2.577,2.577,0,0,0,.654-1.83V-1.776l.12.012a2.549,2.549,0,0,1-.42.876,2.4,2.4,0,0,1-.63.582,2.662,2.662,0,0,1-.744.324,2.962,2.962,0,0,1-.75.1,2.712,2.712,0,0,1-1.482-.414,2.974,2.974,0,0,1-1.038-1.128,3.353,3.353,0,0,1-.384-1.614,3.353,3.353,0,0,1,.384-1.614,2.927,2.927,0,0,1,1.038-1.122A2.742,2.742,0,0,1,143.172-6.18Zm.024.456a2.321,2.321,0,0,0-1.254.348,2.431,2.431,0,0,0-.876.954,2.939,2.939,0,0,0-.318,1.386,2.948,2.948,0,0,0,.318,1.38,2.465,2.465,0,0,0,.876.966,2.292,2.292,0,0,0,1.254.354,2.321,2.321,0,0,0,1.248-.342,2.446,2.446,0,0,0,.876-.948,2.946,2.946,0,0,0,.324-1.41,2.946,2.946,0,0,0-.324-1.41,2.4,2.4,0,0,0-.876-.942A2.352,2.352,0,0,0,143.2-5.724Z" transform="translate(141.58 476)"/>
  </g>
</svg>
