<svg xmlns="http://www.w3.org/2000/svg" xmlns:xlink="http://www.w3.org/1999/xlink" width="75.5" height="49" viewBox="0 0 75.5 49">
  <defs>
    <filter id="Path_21301" x="59.5" y="24.523" width="16" height="16" filterUnits="userSpaceOnUse">
      <feOffset dy="2" input="SourceAlpha"/>
      <feGaussianBlur stdDeviation="1" result="blur"/>
      <feFlood flood-opacity="0.2"/>
      <feComposite operator="in" in2="blur"/>
      <feComposite in="SourceGraphic"/>
    </filter>
    <filter id="Path_21301-2" x="59.5" y="24.523" width="16" height="16" filterUnits="userSpaceOnUse">
      <feOffset dy="3" input="SourceAlpha"/>
      <feGaussianBlur stdDeviation="2" result="blur-2"/>
      <feFlood flood-color="#fff" flood-opacity="0.302" result="color"/>
      <feComposite operator="out" in="SourceGraphic" in2="blur-2"/>
      <feComposite operator="in" in="color"/>
      <feComposite operator="in" in2="SourceGraphic"/>
    </filter>
    <filter id="Path_21300" x="0" y="0" width="49" height="49" filterUnits="userSpaceOnUse">
      <feOffset dy="3" input="SourceAlpha"/>
      <feGaussianBlur stdDeviation="1.5" result="blur-3"/>
      <feFlood flood-opacity="0.2"/>
      <feComposite operator="in" in2="blur-3"/>
      <feComposite in="SourceGraphic"/>
    </filter>
    <filter id="Path_21300-2" x="0" y="0" width="49" height="49" filterUnits="userSpaceOnUse">
      <feOffset dy="4" input="SourceAlpha"/>
      <feGaussianBlur stdDeviation="3" result="blur-4"/>
      <feFlood flood-color="#fff" flood-opacity="0.502" result="color-2"/>
      <feComposite operator="out" in="SourceGraphic" in2="blur-4"/>
      <feComposite operator="in" in="color-2"/>
      <feComposite operator="in" in2="SourceGraphic"/>
    </filter>
  </defs>
  <g id="Group_10513" data-name="Group 10513" transform="translate(-589.5 -443.5)">
    <path id="Path_21306" data-name="Path 21306" d="M8.352,3.436c-.639,0-1.3-.03-1.976-.089a.25.25,0,0,1,.044-.5c.657.058,1.307.087,1.932.087.655,0,1.334-.032,2.017-.1a.25.25,0,0,1,.046.5C9.717,3.4,9.023,3.436,8.352,3.436Zm-5.9-.729A.251.251,0,0,1,2.4,2.7c-1.229-.282-2.5-.64-3.87-1.094a.25.25,0,0,1-.159-.316.25.25,0,0,1,.316-.159c1.36.449,2.611.8,3.825,1.082a.25.25,0,0,1-.056.494ZM14.33,2.658a.25.25,0,0,1-.06-.493A30.065,30.065,0,0,0,18.044.954a.25.25,0,1,1,.184.465,30.568,30.568,0,0,1-3.837,1.232A.251.251,0,0,1,14.33,2.658Z" transform="translate(632.864 475.838)"/>
    <g data-type="innerShadowGroup">
      <g transform="matrix(1, 0, 0, 1, 589.5, 443.5)" filter="url(#Path_21301)">
        <path id="Path_21301-3" data-name="Path 21301" d="M5,10a5,5,0,1,1,5-5A5,5,0,0,1,5,10Z" transform="translate(62.5 25.52)"/>
      </g>
      <g transform="matrix(1, 0, 0, 1, 589.5, 443.5)" filter="url(#Path_21301-2)">
        <path id="Path_21301-4" data-name="Path 21301" d="M5,10a5,5,0,1,1,5-5A5,5,0,0,1,5,10Z" transform="translate(62.5 25.52)" fill="#fff"/>
      </g>
    </g>
    <g data-type="innerShadowGroup">
      <g transform="matrix(1, 0, 0, 1, 589.5, 443.5)" filter="url(#Path_21300)">
        <path id="Path_21300-3" data-name="Path 21300" d="M20,0A20,20,0,1,0,40,20,20,20,0,0,0,20,0Z" transform="translate(4.5 1.5)" fill="#f53c3c"/>
      </g>
      <g transform="matrix(1, 0, 0, 1, 589.5, 443.5)" filter="url(#Path_21300-2)">
        <path id="Path_21300-4" data-name="Path 21300" d="M20,0A20,20,0,1,0,40,20,20,20,0,0,0,20,0Z" transform="translate(4.5 1.5)" fill="#fff"/>
      </g>
    </g>
  </g>
</svg>
