<svg id="_20x20" data-name="20x20" xmlns="http://www.w3.org/2000/svg" xmlns:xlink="http://www.w3.org/1999/xlink" width="20" height="20" viewBox="0 0 20 20">
  <defs>
    <clipPath id="clip-path">
      <rect id="Rectangle_4612" data-name="Rectangle 4612" width="20" height="20" fill="none"/>
    </clipPath>
  </defs>
  <g id="Mask_Group_387" data-name="Mask Group 387" clip-path="url(#clip-path)">
    <g id="shopping-2" transform="translate(3.927 0)">
      <path id="Path_21583" data-name="Path 21583" d="M7,8.109a11.114,11.114,0,0,1,.782,2.052,3.016,3.016,0,0,1,.1,1.075,3.487,3.487,0,0,1,1.3.13A4.466,4.466,0,0,1,11.1,12.472a2.627,2.627,0,0,0,1.042.651,1.914,1.914,0,0,0,.944-.065c-.065-.13-.163-.293-.228-.423a2.912,2.912,0,0,1-.358-1.563,4.625,4.625,0,0,1,.261-1.335c.293-.814.619-1.6.912-2.41.2-.521.423-1.042.586-1.6.163-.488-.033-.749-.521-.912-.423-.1-.879-.2-1.3-.326a8.73,8.73,0,0,1-.879-.228.71.71,0,0,1-.488-.554c-.033-.228-.065-.423-.1-.651a.217.217,0,0,0-.163-.228l-.391-.1V2.377a.114.114,0,0,1,.033-.065c.2-.163.228-.228.033-.423a.253.253,0,0,1-.065-.326,1.416,1.416,0,0,0,.13-.228.565.565,0,0,0,.1-.456.558.558,0,0,0-.423-.456.486.486,0,0,0-.488.293A.386.386,0,0,0,9.7.977c.065.2.13.326.2.488.1.2.13.326-.033.456-.13.13-.13.261.033.358.033.033.065.065.065.1v.358c-.13.033-.228.065-.358.1s-.2.13-.228.293c-.033.228-.065.423-.1.651a.488.488,0,0,1-.358.456,2.552,2.552,0,0,1-.456.163c-.619.163-1.237.293-1.856.456-.488.13-.684.423-.521.912A23.184,23.184,0,0,0,7,8.109Z" transform="translate(-4.233 -0.418)" fill="#8e8e8e"/>
      <path id="Path_21584" data-name="Path 21584" d="M12.472,15.306a3.212,3.212,0,0,1-.782-.1A4.248,4.248,0,0,1,9.7,14.1a2.423,2.423,0,0,0-1.042-.651,2.732,2.732,0,0,0-1.693.228,3.832,3.832,0,0,0-.423,1.693c0,.326,0,.651.033.977.033.391.065.782.13,1.172a1.073,1.073,0,0,0,.912.977h.033a8.433,8.433,0,0,0,1.791.228c.163,0,.326.033.488.033H10V20.19a.228.228,0,1,0,.456,0v-1.4h.326c.423-.033.814-.065,1.237-.13a11.079,11.079,0,0,0,1.107-.228.726.726,0,0,0,.554-.651c.065-.488.13-.977.163-1.465a7.046,7.046,0,0,0,0-1.172A6.8,6.8,0,0,1,12.472,15.306Z" transform="translate(-4.233 -0.418)" fill="#8e8e8e"/>
      <path id="Path_21585" data-name="Path 21585" d="M8.63,12.7a2.754,2.754,0,0,1,1.335.782,3.948,3.948,0,0,0,1.628.977Q13.645,15,16.38,12.8l-.423-.521c-.293.228-.586.456-.847.619v.488h-.2v-.391c-.293.163-.554.326-.814.456v.521h-.2v-.456a5.169,5.169,0,0,1-.651.228v.488h-.2v-.456a4.413,4.413,0,0,1-.651.065V14.3h-.2V13.84a2.514,2.514,0,0,1-.488-.065c-.1-.033-.228-.065-.326-.1v.391h-.2v-.456a4.68,4.68,0,0,1-.814-.586v.423h-.2v-.586a4.025,4.025,0,0,0-.814-.586v.456h-.2v-.554a2.751,2.751,0,0,0-.554-.163.717.717,0,0,0-.261-.033v.488h-.2v-.521a2.36,2.36,0,0,0-.814.065v.456h-.2v-.423a4.966,4.966,0,0,0-.814.293v.586h-.2v-.521a7.675,7.675,0,0,0-.814.488v.554h-.2v-.423a9.226,9.226,0,0,0-.912.749l.488.521c1.6-1.27,2.833-1.824,3.908-1.6Z" transform="translate(-4.233 -0.418)" fill="#8e8e8e"/>
    </g>
  </g>
</svg>
