<svg xmlns="http://www.w3.org/2000/svg" xmlns:xlink="http://www.w3.org/1999/xlink" width="25" height="25" viewBox="0 0 25 25">
  <defs>
    <clipPath id="clip-path">
      <rect id="Rectangle_4587" data-name="Rectangle 4587" width="25" height="25" fill="none"/>
    </clipPath>
  </defs>
  <g id="Mask_Group_265" data-name="Mask Group 265" clip-path="url(#clip-path)">
    <g id="Group" transform="translate(0 0.794)">
      <path id="Path_14962" data-name="Path 14962" d="M20.406,18.015l-4.8-1.2v-1.2a6.943,6.943,0,0,0,2.4-3.6,1.548,1.548,0,0,0,1.2-1.2v-2.4c.054-.428.283-.877,0-1.2-.167-.191-.969.088-1.2,0V4.8h1.2a2.986,2.986,0,0,0,0-3.6C18.445.04,16.19,0,14.4,0a6.615,6.615,0,0,0-3.6,1.2c-4.324.09-4.8,1.645-4.8,3.6,0,.455-.073,1.783,0,2.4-.261.082.185-.21,0,0-.289.328-1.255.767-1.2,1.2l1.2,2.4a1.393,1.393,0,0,0,1.2,1.2c.21,1.394.221,2.591,1.2,3.6v1.2l-3.6,1.2a6.71,6.71,0,0,0-4.8,6c0,.28-.28,0,0,0h24.02c.28,0,0,.28,0,0C24.009,21.4,22.948,18.656,20.406,18.015Z" transform="translate(0.135)" fill="#C4C2C2"/>
    </g>
  </g>
</svg>
