<svg id="Group_3710" data-name="Group 3710" xmlns="http://www.w3.org/2000/svg" width="12" height="12" viewBox="0 0 12 12">
  <path id="Path_15157" data-name="Path 15157" d="M11.853,37.419l-4.5-5.142c-.315-.36-.853-.105-.853.4v2.288A6.988,6.988,0,0,0,.316,40.5,10.177,10.177,0,0,0,0,43.372c0,.11,0,.142,0,.165a.493.493,0,0,0,.929.292,8.559,8.559,0,0,1,1.882-2.507A4.7,4.7,0,0,1,6.5,40.027v2.938c0,.509.538.764.853.4l4.5-5.142A.631.631,0,0,0,11.853,37.419Z" transform="translate(0 -32.109)" fill="#007cff"/>
</svg>
