<svg xmlns="http://www.w3.org/2000/svg" xmlns:xlink="http://www.w3.org/1999/xlink" width="20" height="20" viewBox="0 0 20 20">
  <defs>
    <clipPath id="clip-path">
      <rect id="Rectangle_4561" data-name="Rectangle 4561" width="20" height="20" transform="translate(-0.276 -0.013)" fill="none"/>
    </clipPath>
  </defs>
  <g id="Mask_Group_129" data-name="Mask Group 129" transform="translate(0.276 0.013)" clip-path="url(#clip-path)">
    <g id="party-popper" transform="translate(-0.001 0)">
      <path id="Path_18929" data-name="Path 18929" d="M10.671,14.41c-.781.288-1.772.652-3.026,1.117-2.142-.3-4.392-1-5.365-2.6.354-.954.663-1.791.937-2.529,1.833,2.118,5.037,3.463,7.455,4.007Z" transform="translate(-0.665 2.092)" fill="#8d8d8d"/>
      <path id="Path_18930" data-name="Path 18930" d="M10.952,8.77C8.868,6.687,6.184,5.148,5.09,6.244c-.233.233-.163.094-1.785,4.5,1.73,2.5,6.1,4.239,9.144,4.392.91-.342.889-.359,1.029-.5C14.82,13.29,12.293,10.11,10.952,8.77Zm1.771,5.106c-.1.1-.575.108-1.416-.307A11.847,11.847,0,0,1,8.371,11.35C6.1,9.081,5.572,7.272,5.845,7a.334.334,0,0,1,.236-.065c.613,0,2.2.677,4.117,2.592a11.852,11.852,0,0,1,2.22,2.936C12.832,13.3,12.825,13.774,12.722,13.876Z" transform="translate(-0.323 0.588)" fill="#8d8d8d"/>
      <path id="Path_18931" data-name="Path 18931" d="M6.093,15.321c-1.233.458-2.654.989-4.3,1.608a.534.534,0,0,1-.686-.686c.416-1.113.791-2.12,1.132-3.038A7.478,7.478,0,0,0,6.093,15.321Z" transform="translate(-1.067 3.024)" fill="#8d8d8d"/>
      <path id="Path_18932" data-name="Path 18932" d="M11.528,2.431a3.451,3.451,0,0,0-.871.221c.327.5,1.011,1.142.594,1.978-.374.747-1.15.7-1.824.727.414.565.892,1.138.523,1.876-.382.765-1.384.924-1.976,1.02a.354.354,0,0,1-.4-.287l-.13-.7a.357.357,0,0,1,.289-.416A3.419,3.419,0,0,0,8.6,6.631C8.27,6.132,7.589,5.485,8,4.653c.373-.745,1.149-.7,1.824-.727-.414-.565-.892-1.138-.523-1.876.382-.764,1.385-.924,1.975-1.02a.353.353,0,0,1,.4.287l.13.7a.353.353,0,0,1-.287.415Z" transform="translate(1.049 -1.026)" fill="#8d8d8d"/>
      <path id="Path_18933" data-name="Path 18933" d="M16.881,6.371l.7.13a.353.353,0,0,1,.287.4c-.1.59-.256,1.593-1.02,1.975-.738.369-1.311-.109-1.876-.523-.023.675.019,1.452-.727,1.824-.832.416-1.478-.265-1.977-.594a3.419,3.419,0,0,0-.221.871.356.356,0,0,1-.416.289l-.7-.13a.353.353,0,0,1-.287-.4c.1-.591.256-1.593,1.02-1.976.737-.369,1.311.11,1.876.523.023-.674-.021-1.451.727-1.824.836-.418,1.475.266,1.978.594a3.451,3.451,0,0,0,.221-.871.356.356,0,0,1,.415-.287Z" transform="translate(2.116 0.75)" fill="#8d8d8d"/>
      <path id="Path_18934" data-name="Path 18934" d="M14.118,11.483H12.766a.213.213,0,0,1-.214-.214v-.641a.213.213,0,0,1,.214-.214h1.352a.213.213,0,0,1,.214.214v.641A.213.213,0,0,1,14.118,11.483Z" transform="translate(2.751 2.096)" fill="#8d8d8d"/>
      <path id="Path_18935" data-name="Path 18935" d="M15.285,1.952l-.957.957a.214.214,0,0,1-.3,0l-.453-.453a.214.214,0,0,1,0-.3l.957-.957a.213.213,0,0,1,.3,0l.453.453A.214.214,0,0,1,15.285,1.952Z" transform="translate(3.07 -0.99)" fill="#8d8d8d"/>
      <path id="Path_18936" data-name="Path 18936" d="M6.73,3.916H6.089A.213.213,0,0,1,5.876,3.7V2.35a.213.213,0,0,1,.214-.214H6.73a.213.213,0,0,1,.214.214V3.7A.213.213,0,0,1,6.73,3.916Z" transform="translate(0.531 -0.656)" fill="#8d8d8d"/>
      <path id="Path_18937" data-name="Path 18937" d="M10.511,8.323l-.534-.356a.215.215,0,0,1-.06-.3C11.369,5.6,14.17,3.445,17.133,3.341a.219.219,0,0,1,.223.219V4.2a.209.209,0,0,1-.2.208c-2.479.1-5.019,1.965-6.354,3.861a.206.206,0,0,1-.287.054Z" transform="translate(1.862 -0.256)" fill="#8d8d8d"/>
    </g>
  </g>
</svg>
