<svg xmlns="http://www.w3.org/2000/svg" xmlns:xlink="http://www.w3.org/1999/xlink" width="10" height="10" viewBox="0 0 10 10">
  <defs>
    <clipPath id="clip-path">
      <rect id="Rectangle_4632" data-name="Rectangle 4632" width="10" height="10" fill="none"/>
    </clipPath>
  </defs>
  <g id="Group_10809" data-name="Group 10809" transform="translate(-45 -444)">
    <g id="Mask_Group_304" data-name="Mask Group 304" transform="translate(45 444)" clip-path="url(#clip-path)">
      <g id="password" transform="translate(0.093 0)">
        <path id="Path_21415" data-name="Path 21415" d="M2.417,11.5H6.463a.777.777,0,0,0,.776-.776V8.048a.2.2,0,1,0-.4,0v2.676a.376.376,0,0,1-.376.376H2.417a.378.378,0,0,1-.378-.376V2.278A.378.378,0,0,1,2.417,1.9H6.463a.378.378,0,0,1,.376.378v1.4a.2.2,0,1,0,.4,0v-1.4A.778.778,0,0,0,6.463,1.5H2.417a.779.779,0,0,0-.778.778v8.446A.778.778,0,0,0,2.417,11.5Z" transform="translate(-1.639 -1.5)" fill="#8d8d8d"/>
        <path id="Path_21416" data-name="Path 21416" d="M6.424,2.67a.2.2,0,0,0-.2-.2H4.285a.2.2,0,0,0,0,.4H6.224A.2.2,0,0,0,6.424,2.67Z" transform="translate(-2.454 -1.823)" fill="#8d8d8d"/>
        <path id="Path_21417" data-name="Path 21417" d="M5.531,15.331h.277a.2.2,0,1,0,0-.4H5.531a.2.2,0,1,0,0,.4Z" transform="translate(-2.87 -5.977)" fill="#8d8d8d"/>
        <path id="Path_21418" data-name="Path 21418" d="M8.258,2.814a.209.209,0,0,0,.058-.142.2.2,0,0,0-.058-.142.209.209,0,0,0-.284,0,.2.2,0,0,0-.058.142.2.2,0,0,0,.342.142Z" transform="translate(-3.731 -1.825)" fill="#8d8d8d"/>
        <path id="Path_21419" data-name="Path 21419" d="M5.54,5.869v3.57a.2.2,0,0,0,.114.18.181.181,0,0,0,.086.02.2.2,0,0,0,.126-.044l.928-.756h5.76a.2.2,0,0,0,.2-.2V5.869a.2.2,0,0,0-.2-.2H5.74a.2.2,0,0,0-.2.2Zm5.026,1.276a.2.2,0,1,1,.2-.346l.189.109V6.69a.2.2,0,1,1,.4,0v.218l.188-.109a.2.2,0,1,1,.2.346l-.189.109.189.109a.2.2,0,1,1-.2.346L11.355,7.6v.218a.2.2,0,1,1-.4,0V7.6l-.189.109a.2.2,0,1,1-.2-.346l.189-.109Zm-2.008,0a.2.2,0,1,1,.2-.346l.188.109V6.69a.2.2,0,0,1,.4,0v.218L9.535,6.8a.2.2,0,1,1,.2.346l-.189.109.189.109a.2.2,0,1,1-.2.346L9.347,7.6v.218a.2.2,0,1,1-.4,0V7.6l-.188.109a.2.2,0,1,1-.2-.346l.189-.109Zm-2.008,0a.2.2,0,1,1,.2-.346l.188.109V6.69a.2.2,0,1,1,.4,0v.218L7.528,6.8a.2.2,0,1,1,.2.346l-.189.109.189.109a.2.2,0,1,1-.2.346L7.339,7.6v.218a.2.2,0,1,1-.4,0V7.6l-.188.109a.2.2,0,0,1-.2-.346l.189-.109Z" transform="translate(-2.939 -2.89)" fill="#8d8d8d"/>
      </g>
    </g>
  </g>
</svg>
