<svg xmlns="http://www.w3.org/2000/svg" width="15" height="15" viewBox="0 0 15 15">
  <path id="Path_21462" data-name="Path 21462" d="M2.1,2.165A1.567,1.567,0,0,1,.942,1.7,1.573,1.573,0,0,1,.48.544,1.479,1.479,0,0,1,.942-.586,1.623,1.623,0,0,1,2.1-1.02H13.862a1.594,1.594,0,0,1,1.156.449A1.525,1.525,0,0,1,15.48.573a1.525,1.525,0,0,1-.462,1.144,1.594,1.594,0,0,1-1.156.449ZM7.937,7.812a1.847,1.847,0,0,1-1.344-.521,1.78,1.78,0,0,1-.535-1.332V-5.335a1.756,1.756,0,0,1,.549-1.332,1.9,1.9,0,0,1,1.358-.521,1.787,1.787,0,0,1,1.344.521,1.834,1.834,0,0,1,.506,1.332V5.959A1.806,1.806,0,0,1,9.3,7.291,1.835,1.835,0,0,1,7.937,7.812Z" transform="translate(-0.48 7.188)" fill="#505050"/>
</svg>
