<svg xmlns="http://www.w3.org/2000/svg" xmlns:xlink="http://www.w3.org/1999/xlink" width="10" height="10" viewBox="0 0 10 10">
  <defs>
    <clipPath id="clip-path">
      <rect id="Rectangle_4722" data-name="Rectangle 4722" width="10" height="10" fill="none"/>
    </clipPath>
  </defs>
  <g id="Mask_Group_301" data-name="Mask Group 301" clip-path="url(#clip-path)">
    <g id="Layer_16" data-name="Layer 16" transform="translate(0.655 0)">
      <path id="Path_21414" data-name="Path 21414" d="M9.344,4.151V4.145a11.232,11.232,0,0,0-.265-2.33l-.006-.031-.01-.033a.917.917,0,0,0-.6-.548C7.513.834,6.394.409,5.3.048A1.022,1.022,0,0,0,5.022,0H4.978A1.026,1.026,0,0,0,4.7.047C3.607.409,2.487.834,1.536,1.2a.92.92,0,0,0-.6.548l-.011.033-.006.029v0A11.191,11.191,0,0,0,.656,4.145v.006A7.653,7.653,0,0,0,.833,6.283l.01.036A3.689,3.689,0,0,0,1.5,7.5,7.921,7.921,0,0,0,2.824,8.773,11.066,11.066,0,0,0,4.573,9.9l.013.006h0a.944.944,0,0,0,.824,0L5.427,9.9l.007,0A11.122,11.122,0,0,0,7.175,8.774,7.96,7.96,0,0,0,8.5,7.5a3.685,3.685,0,0,0,.655-1.178L9.163,6.3l0-.014a7.652,7.652,0,0,0,.177-2.132ZM4.977,2.5A1.094,1.094,0,1,1,3.884,3.591,1.094,1.094,0,0,1,4.977,2.5ZM6.8,6.328v0a.79.79,0,0,1-.194.434.759.759,0,0,1-.407.245,6.76,6.76,0,0,1-1.139.1,7.465,7.465,0,0,1-1.266-.1.759.759,0,0,1-.407-.246.791.791,0,0,1-.194-.434v0a2.5,2.5,0,0,1-.011-.35,1.724,1.724,0,0,1,.011-.29v0a.671.671,0,0,1,.194-.405.685.685,0,0,1,.408-.2c.226-.024.914-.037,1.264-.037s.911.013,1.137.037a.684.684,0,0,1,.408.2.672.672,0,0,1,.195.406v0a2.507,2.507,0,0,1,.017.288,3.348,3.348,0,0,1-.017.352Z" transform="translate(-0.655 0)" fill="#388cff"/>
    </g>
  </g>
</svg>
