<svg id="_20x20" data-name="20x20" xmlns="http://www.w3.org/2000/svg" xmlns:xlink="http://www.w3.org/1999/xlink" width="20" height="20" viewBox="0 0 20 20">
  <defs>
    <clipPath id="clip-path">
      <rect id="Rectangle_4612" data-name="Rectangle 4612" width="20" height="20" fill="none"/>
    </clipPath>
  </defs>
  <g id="Mask_Group_370" data-name="Mask Group 370" clip-path="url(#clip-path)">
    <g id="settings">
      <g id="Group_11210" data-name="Group 11210">
        <ellipse id="Ellipse_268" data-name="Ellipse 268" cx="2.969" cy="2.93" rx="2.969" ry="2.93" transform="translate(7.031 7.051)" fill="#8d8d8d"/>
        <path id="Path_21474" data-name="Path 21474" d="M17.07,8.223h-.035A1.1,1.1,0,0,1,16,7.521a1.143,1.143,0,0,1,.263-1.274.586.586,0,0,0,0-.824L14.6,3.766a.636.636,0,0,0-.854.025,1.1,1.1,0,0,1-1.231.239,1.168,1.168,0,0,1-.754-1.08.586.586,0,0,0-.586-.586H8.828a.617.617,0,0,0-.586.621A1.134,1.134,0,0,1,7.5,4.024a1.147,1.147,0,0,1-1.273-.263.585.585,0,0,0-.824,0L3.746,5.423a.617.617,0,0,0,.025.854A1.1,1.1,0,0,1,4.01,7.507a1.141,1.141,0,0,1-1.08.715.586.586,0,0,0-.586.586v2.344a.617.617,0,0,0,.621.586,1.1,1.1,0,0,1,1.039.7,1.142,1.142,0,0,1-.263,1.273.586.586,0,0,0,0,.824L5.4,16.2a.636.636,0,0,0,.854-.025,1.093,1.093,0,0,1,1.231-.239,1.226,1.226,0,0,1,.754,1.119.586.586,0,0,0,.586.586h2.344a.617.617,0,0,0,.586-.621,1.186,1.186,0,0,1,.742-1.078,1.14,1.14,0,0,1,1.273.263.585.585,0,0,0,.824,0l1.657-1.657a.617.617,0,0,0-.025-.854,1.118,1.118,0,0,1-.24-1.23,1.151,1.151,0,0,1,1.081-.716.586.586,0,0,0,.586-.586V8.809a.586.586,0,0,0-.586-.586ZM10,14.082a4.1,4.1,0,1,1,4.141-4.1A4.14,4.14,0,0,1,10,14.082Z" fill="#8d8d8d"/>
      </g>
      <path id="Path_21475" data-name="Path 21475" d="M18.612,6.14a.586.586,0,0,0-.343.755,8.744,8.744,0,0,1,.559,3.086A8.825,8.825,0,0,1,3.735,16.2a.586.586,0,0,0-1,.414v1.658a.586.586,0,0,0,1.172,0V17.9A9.992,9.992,0,0,0,20,9.98a9.918,9.918,0,0,0-.633-3.5.588.588,0,0,0-.755-.343Z" fill="#505050"/>
      <path id="Path_21476" data-name="Path 21476" d="M16.681,1.108a.612.612,0,0,0-.586.585v.372A10.026,10.026,0,0,0,0,9.98a9.918,9.918,0,0,0,.633,3.5.586.586,0,0,0,1.1-.412A8.744,8.744,0,0,1,1.172,9.98,8.848,8.848,0,0,1,16.263,3.769a.586.586,0,0,0,1-.413l0-1.661a.586.586,0,0,0-.585-.587Z" fill="#505050"/>
    </g>
  </g>
</svg>
