<svg xmlns="http://www.w3.org/2000/svg" width="20" height="19.972" viewBox="0 0 20 19.972">
  <path id="refund" d="M11.393,17.8a6.4,6.4,0,1,0-6.4-6.41,6.416,6.416,0,0,0,6.4,6.41ZM9.016,9.692c.147-.968,1.113-1.306,2.007-1.386V7.8a.372.372,0,0,1,.37-.371.376.376,0,0,1,.37.371v.5a2.324,2.324,0,0,1,1.519.585,1.686,1.686,0,0,1,.511,1.119.37.37,0,1,1-.741.007c-.007-.1-.067-.889-1.289-.978v1.816c2.554.2,2.847,3.546,0,3.454v.667a.37.37,0,0,1-.741,0v-.7c-.844-.111-2.015-.548-2.015-1.571a.37.37,0,1,1,.741,0c0,.519.83.741,1.274.823V11.6A1.8,1.8,0,0,1,9.016,9.692Zm2.748,3.876V11.6a1.289,1.289,0,0,1,1.289,1.223C13.042,13.453,12.36,13.532,11.764,13.568Zm-.741-4.513V10.87C9.325,10.823,9.292,9.108,11.023,9.055Zm-8.4-2.521c.287-.326.556-1.241,1.112-.917.44.433-.33.9-.483,1.308a.37.37,0,1,1-.629-.391ZM1.67,8.969c.194-.393.216-1.341.837-1.174a.371.371,0,0,1,.2.485c-.246.364-.182,1.26-.788,1.151a.371.371,0,0,1-.247-.462Zm-.294,2.6c.086-.428-.139-1.355.5-1.351a.37.37,0,0,1,.317.417c-.144.416.15,1.244-.451,1.316a.37.37,0,0,1-.37-.383Zm.388,2.588c-.028-.44-.484-1.27.138-1.435.618,0,.4.862.583,1.267a.37.37,0,0,1-.721.168Zm1.371,2.6c-.484-.075-.549-.774-.767-1.135a.37.37,0,1,1,.686-.28C3.163,15.766,3.932,16.61,3.135,16.753ZM4.978,18.1a.373.373,0,0,1-.271.624c-.43-.084-.651-.615-.939-.911a.37.37,0,1,1,.59-.447,9.286,9.286,0,0,0,.619.734Zm1.758,2.118a3.522,3.522,0,0,1-1.046-.649.371.371,0,0,1-.065-.52c.434-.439.9.33,1.307.483a.373.373,0,0,1-.2.685Zm2.347.918C8.7,21,7.59,20.86,7.8,20.281c.305-.537.95.085,1.388.128a.372.372,0,0,1-.107.725Zm12.292-9.745A10.321,10.321,0,0,1,11,21.375a.371.371,0,0,1,0-.741,9.571,9.571,0,0,0,9.631-9.245A9.234,9.234,0,0,0,5.123,4.608H6.59a.371.371,0,0,1,0,.741H4.242a.384.384,0,0,1-.37-.393V2.751a.37.37,0,1,1,.741,0V4.073a9.973,9.973,0,0,1,16.764,7.316Z" transform="translate(-1.376 -1.403)" fill="#26c13f"/>
</svg>
