<svg xmlns="http://www.w3.org/2000/svg" width="20.341" height="20" viewBox="0 0 20.341 20">
  <g id="Group_10675" data-name="Group 10675" transform="translate(-22 -2456)">
    <path id="Path_17355" data-name="Path 17355" d="M13.5,5H12V3a1,1,0,0,0-1.781-.625l-4,5a1,1,0,0,0,.026,1.281l4,4.6A1,1,0,0,0,12,12.6V11h2c1.93,0,4.99,1.7,4.99,6.25a1,1,0,0,0,1.864.5A8.5,8.5,0,0,0,13.5,5Z" transform="translate(20.002 2455.875)" fill="none" stroke="#388cff" stroke-width="0.5"/>
    <path id="Path_17356" data-name="Path 17356" d="M4.28,8l3.5-4.375a1,1,0,1,0-1.563-1.25l-4,5a1,1,0,0,0,0,1.25l4,5a1,1,0,0,0,1.563-1.25Z" transform="translate(20.002 2455.875)" fill="#3c3c3c"/>
    <rect id="Rectangle_4612" data-name="Rectangle 4612" width="20" height="20" transform="translate(22 2456)" fill="none"/>
  </g>
</svg>
