<svg id="Group_3130" data-name="Group 3130" xmlns="http://www.w3.org/2000/svg" width="10" height="10" viewBox="0 0 10 10">
  <g id="Group_3129" data-name="Group 3129">
    <g id="Group_3128" data-name="Group 3128">
      <g id="Group_3127" data-name="Group 3127">
        <g id="Group_3126" data-name="Group 3126">
          <g id="Group_3125" data-name="Group 3125">
            <g id="Group_3124" data-name="Group 3124">
              <g id="Group_712" data-name="Group 712" transform="translate(2.401 4.919)">
                <path id="Path_14078" data-name="Path 14078" d="M34,42h3.629a.725.725,0,0,1,.726.726v3.387a.725.725,0,0,1-.726.726H34a.485.485,0,0,0,.484-.484V42.484A.487.487,0,0,0,34,42Z" transform="translate(-32.548 -42)" fill="#95ffe1"/>
                <path id="Path_14079" data-name="Path 14079" d="M28.968,42.484v.484H28A.967.967,0,0,1,28.968,42h.484A.485.485,0,0,0,28.968,42.484Z" transform="translate(-28 -42)" fill="#95ffe1"/>
                <path id="Path_14080" data-name="Path 14080" d="M28.968,58.484a.487.487,0,0,0,.484.484h-.484A.967.967,0,0,1,28,58h.968Z" transform="translate(-28 -54.129)" fill="#95ffe1"/>
              </g>
              <path id="Path_14081" data-name="Path 14081" d="M32.968,58v.484a.485.485,0,0,1-.484.484A.487.487,0,0,1,32,58.484V58Z" transform="translate(-27.172 -49.21)" fill="#37bc9b"/>
              <path id="Path_14082" data-name="Path 14082" d="M32.968,42.484v.484H32v-.484A.485.485,0,0,1,32.484,42a.487.487,0,0,1,.484.484Z" transform="translate(-27.172 -35.615)" fill="#37bc9b"/>
              <path id="Path_14083" data-name="Path 14083" d="M24.419,46h.968v2.9H22V46h2.419Z" transform="translate(-19.107 -40.113)" fill="#ccd1d9"/>
              <path id="Path_14084" data-name="Path 14084" d="M5.871,36.9h.968v2.9H4.9A2.9,2.9,0,0,1,2,36.9V34a2.9,2.9,0,0,0,2.9,2.9Z" transform="translate(-1.758 -31.016)" fill="#ccd1d9"/>
              <path id="Path_14085" data-name="Path 14085" d="M20,12c0,1.34,2.064,2.361,4.839,2.417v0H20Z" transform="translate(-17.665 -10.396)" fill="#fcd770"/>
              <path id="Path_14086" data-name="Path 14086" d="M40.242,14.419c2.9,0,5.081-1.04,5.081-2.419v2.9c0,1.379-2.185,2.419-5.081,2.419H40V14.417C40.08,14.419,40.16,14.419,40.242,14.419Z" transform="translate(-35.565 -10.714)" fill="#e6e9ed"/>
              <path id="Path_14087" data-name="Path 14087" d="M10.226,22h.968v2.9H5.735a2.254,2.254,0,0,0-2.284,2.419L3.41,27.4A2.9,2.9,0,0,1,4.9,22h5.323Z" transform="translate(-1.758 -19.564)" fill="#e6e9ed"/>
              <path id="Path_14088" data-name="Path 14088" d="M24.081,2c2.326,0,4.081,1.04,4.081,2.419s-1.755,2.419-4.081,2.419c-.066,0-.13,0-.194,0C21.658,6.781,20,5.76,20,4.419,20,3.04,21.755,2,24.081,2Z" transform="translate(-18.403 -1.758)" fill="#95ffe1"/>
              <ellipse id="Ellipse_98" data-name="Ellipse 98" cx="2.065" cy="0.413" rx="2.065" ry="0.413" transform="translate(4.015 1.781)" fill="#37bc9b"/>
              <path id="Path_14089" data-name="Path 14089" d="M34.935,7.419c1.085,0,1.935-.531,1.935-1.21S36.021,5,34.935,5,33,5.531,33,6.21,33.85,7.419,34.935,7.419Zm0-1.935c.855,0,1.452.382,1.452.726s-.6.726-1.452.726-1.452-.383-1.452-.726S34.08,5.484,34.935,5.484Z" transform="translate(-28.737 -4.032)" fill="#707070"/>
              <path id="Path_14090" data-name="Path 14090" d="M7.452,1C5.4,1,3.9,1.746,3.9,2.774V4.226H3.1A2.1,2.1,0,0,0,1,6.323V8.258a2.1,2.1,0,0,0,2.1,2.1H5.21A.808.808,0,0,0,6,11H8.742a.646.646,0,0,0,.645-.645V8.1a.646.646,0,0,0-.645-.645H6a.808.808,0,0,0-.79.645H3.1a1.761,1.761,0,0,1-.8-.2,1.343,1.343,0,0,1,1.36-1.418h3.8C9.508,6.484,11,5.738,11,4.71V2.774C11,1.746,9.508,1,7.452,1Zm0,.323c1.809,0,3.226.638,3.226,1.452S9.26,4.226,7.452,4.226,4.226,3.588,4.226,2.774,5.643,1.323,7.452,1.323ZM4.226,3.547a2.675,2.675,0,0,0,1.111.678H4.226Zm-2.9,4.711V7.435a2.1,2.1,0,0,0,1.613.976v.653h.323V8.419h.323v.645H3.9V8.419h.323V9.71h.323V8.419h.323v.645h.323V8.419h.323v.645h.323V8.419h.645v1.613H3.1A1.776,1.776,0,0,1,1.323,8.258Zm4.839-.323a.161.161,0,0,1,.323,0V8.1H6.161Zm0,2.581v-.161h.323v.161a.161.161,0,0,1-.323,0Zm-.615-.161h.293v.161a.475.475,0,0,0,.023.139A.483.483,0,0,1,5.546,10.355ZM9.065,8.1v2.258a.323.323,0,0,1-.323.323H6.777a.478.478,0,0,0,.03-.161V7.935a.478.478,0,0,0-.03-.161H8.742A.323.323,0,0,1,9.065,8.1Zm-3.2-.3a.475.475,0,0,0-.023.139V8.1H5.546A.483.483,0,0,1,5.861,7.8ZM10.677,4.71c0,.814-1.417,1.452-3.226,1.452h-3.8A1.629,1.629,0,0,0,1.981,7.7a1.772,1.772,0,0,1,.632-3.083v.576h.323V4.557c.053,0,.107-.008.161-.008h.161v1.29h.323V4.548H3.9v.645h.323V4.548h.323v.645h.323V4.548h.323v1.29h.323V4.548h.323v.645h.323V4.548h.323v.645h.323V4.548h.323v1.29h.323V4.548c.11,0,.216,0,.323-.007v.653H8.1V4.521c.11-.009.217-.02.323-.034v.706h.323V4.438a3.409,3.409,0,0,0,1.935-.891Z" transform="translate(-1 -1)" fill="#707070"/>
              <path id="Path_14091" data-name="Path 14091" d="M45,47h.484v2.419H45Z" transform="translate(-38.021 -40.871)" fill="#707070"/>
              <path id="Path_14092" data-name="Path 14092" d="M41,47h.484v2.419H41Z" transform="translate(-34.656 -40.871)" fill="#707070"/>
            </g>
          </g>
        </g>
      </g>
    </g>
  </g>
</svg>
