<svg id="Group_3644" data-name="Group 3644" xmlns="http://www.w3.org/2000/svg" width="20" height="20" viewBox="0 0 20 20">
  <g id="Group_3124" data-name="Group 3124">
    <path id="Path_14086" data-name="Path 14086" d="M40.323,15.228c3.864,0,6.778-1.388,6.778-3.228v3.873c0,1.84-2.915,3.228-6.778,3.228H40V15.224C40.107,15.228,40.213,15.228,40.323,15.228Z" transform="translate(-27.424 -8.453)" fill="#e6e9ed"/>
    <path id="Path_14087" data-name="Path 14087" d="M12.974,22h1.291v3.873H6.984A3.007,3.007,0,0,0,3.937,29.1l-.055.1A3.876,3.876,0,0,1,5.873,22h7.1Z" transform="translate(-1.677 -15.228)" fill="#e6e9ed"/>
    <path id="Path_14089" data-name="Path 14089" d="M35.582,8.228c1.448,0,2.582-.709,2.582-1.614S37.03,5,35.582,5,33,5.709,33,6.614,34.134,8.228,35.582,8.228Zm0-2.582c1.141,0,1.937.51,1.937.968s-.8.968-1.937.968-1.937-.51-1.937-.968S34.441,5.646,35.582,5.646Z" transform="translate(-22.68 -3.709)" fill="#404040"/>
    <path id="Path_14090" data-name="Path 14090" d="M13.9,1c-4.112,0-7.1,1.492-7.1,3.548v2.9H5.194A4.2,4.2,0,0,0,1,11.645v3.871A4.2,4.2,0,0,0,5.194,19.71H9.42A1.616,1.616,0,0,0,11,21h5.484a1.292,1.292,0,0,0,1.29-1.29V15.194a1.292,1.292,0,0,0-1.29-1.29H11a1.616,1.616,0,0,0-1.58,1.29H5.194a3.521,3.521,0,0,1-1.61-.39A2.686,2.686,0,0,1,6.3,11.968h7.6c4.112,0,7.1-1.492,7.1-3.548V4.548C21,2.492,18.015,1,13.9,1Zm0,.645c3.618,0,6.452,1.275,6.452,2.9s-2.834,2.9-6.452,2.9-6.452-1.275-6.452-2.9S10.285,1.645,13.9,1.645ZM7.452,6.095A5.35,5.35,0,0,0,9.675,7.452H7.452ZM1.645,15.516V13.87a4.191,4.191,0,0,0,3.226,1.953v1.307h.645v-1.29h.645v1.29h.645v-1.29h.645v2.581H8.1V15.839h.645v1.29h.645v-1.29h.645v1.29h.645v-1.29h1.29v3.226H5.194A3.553,3.553,0,0,1,1.645,15.516Zm9.677-.645a.323.323,0,0,1,.645,0v.323h-.645Zm0,5.161V19.71h.645v.323a.323.323,0,0,1-.645,0Zm-1.231-.323h.586v.323a.949.949,0,0,0,.045.277A.966.966,0,0,1,10.092,19.71Zm7.037-4.516V19.71a.646.646,0,0,1-.645.645h-3.93a.957.957,0,0,0,.059-.323V14.871a.957.957,0,0,0-.059-.323h3.93A.646.646,0,0,1,17.129,15.194Zm-6.406-.6a.949.949,0,0,0-.045.277v.323h-.586A.966.966,0,0,1,10.723,14.594Zm9.632-6.175c0,1.628-2.834,2.9-6.452,2.9H6.3A3.259,3.259,0,0,0,2.963,14.4,3.543,3.543,0,0,1,4.226,8.234V9.387h.645V8.113c.106-.01.214-.016.323-.016h.323v2.581h.645V8.1h.645v1.29h.645V8.1H8.1v1.29h.645V8.1h.645v2.581h.645V8.1h.645v1.29h.645V8.1h.645v1.29h.645V8.1h.645v2.581H13.9V8.1c.219,0,.433-.006.645-.015V9.387h.645V8.042c.22-.018.435-.041.645-.067V9.387h.645V7.877a6.818,6.818,0,0,0,3.871-1.782Z" transform="translate(-1 -1)" fill="#404040"/>
    <path id="Path_14091" data-name="Path 14091" d="M45,47h.646v3.228H45Z" transform="translate(-30.806 -32.164)" fill="#404040"/>
    <path id="Path_14092" data-name="Path 14092" d="M41,47h.646v3.228H41Z" transform="translate(-28.097 -32.164)" fill="#404040"/>
  </g>
</svg>
