<svg id="_20x20" data-name="20x20" xmlns="http://www.w3.org/2000/svg" xmlns:xlink="http://www.w3.org/1999/xlink" width="20" height="20" viewBox="0 0 20 20">
  <defs>
    <clipPath id="clip-path">
      <rect id="Rectangle_4612" data-name="Rectangle 4612" width="20" height="20" fill="none"/>
    </clipPath>
  </defs>
  <g id="Mask_Group_302" data-name="Mask Group 302" clip-path="url(#clip-path)">
    <g id="Group_10750" data-name="Group 10750" transform="translate(0 0.003)">
      <g id="Group_10749" data-name="Group 10749">
        <path id="Path_21414" data-name="Path 21414" d="M14.972.006H5.012A5.023,5.023,0,0,0,0,5.019V15a5.019,5.019,0,0,0,5.012,5h9.976A5.023,5.023,0,0,0,20,14.979V5.019A5.046,5.046,0,0,0,14.972.006ZM10.1,15.916a6.066,6.066,0,0,1-2.966-.761L3.743,16.233l1.11-3.251a6.137,6.137,0,1,1,5.25,2.934Z" transform="translate(0 -0.006)" fill="#3c3c3c"/>
      </g>
    </g>
  </g>
</svg>
