<svg id="_20x20" data-name="20x20" xmlns="http://www.w3.org/2000/svg" xmlns:xlink="http://www.w3.org/1999/xlink" width="20" height="20" viewBox="0 0 20 20">
  <defs>
    <clipPath id="clip-path">
      <rect id="Rectangle_4612" data-name="Rectangle 4612" width="20" height="20" fill="none"/>
    </clipPath>
  </defs>
  <g id="Mask_Group_386" data-name="Mask Group 386" clip-path="url(#clip-path)">
    <g id="Layer_2" data-name="Layer 2" transform="translate(-1.429 -1.413)">
      <path id="Path_21572" data-name="Path 21572" d="M5.924,15.924,5,16.847V4.254a.714.714,0,1,0-1.429,0V16.847l-.924-.924a.714.714,0,1,0-1.01,1.01l2.143,2.143a.714.714,0,0,0,1.01,0l2.143-2.143a.714.714,0,1,0-1.01-1.01Z" fill="#8e8e8e"/>
      <path id="Path_21573" data-name="Path 21573" d="M10,14.286h8.571a.714.714,0,1,0,0-1.429H10a.714.714,0,1,0,0,1.429Z" fill="#8e8e8e"/>
      <path id="Path_21574" data-name="Path 21574" d="M20.714,17.143H10a.714.714,0,1,0,0,1.429H20.714a.714.714,0,0,0,0-1.429Z" fill="#8e8e8e"/>
      <path id="Path_21575" data-name="Path 21575" d="M10,10h6.429a.714.714,0,0,0,0-1.429H10A.714.714,0,0,0,10,10Z" fill="#8e8e8e"/>
      <path id="Path_21576" data-name="Path 21576" d="M10,5.714h3.571a.714.714,0,1,0,0-1.429H10a.714.714,0,0,0,0,1.429Z" fill="#8e8e8e"/>
    </g>
  </g>
</svg>
