<svg id="_25x25_Back" data-name="25x25 Back" xmlns="http://www.w3.org/2000/svg" xmlns:xlink="http://www.w3.org/1999/xlink" width="25" height="25" viewBox="0 0 25 25">
  <defs>
    <clipPath id="clip-path">
      <rect id="Rectangle_4609" data-name="Rectangle 4609" width="25" height="25" fill="none"/>
    </clipPath>
  </defs>
  <g id="Mask_Group_299" data-name="Mask Group 299" clip-path="url(#clip-path)">
    <g id="e">
      <path id="Path_21407" data-name="Path 21407" d="M13.68,20.023a6.345,6.345,0,0,1,10.15-5.076c.061-.885.1-1.875.1-2.982a38.155,38.155,0,0,0-.486-6.327A6.689,6.689,0,0,0,18.292.487,38.093,38.093,0,0,0,11.964,0,38.162,38.162,0,0,0,5.637.486,6.689,6.689,0,0,0,.486,5.638,38.209,38.209,0,0,0,0,11.964a38.215,38.215,0,0,0,.486,6.327,6.689,6.689,0,0,0,5.151,5.151,38.211,38.211,0,0,0,6.327.486c1.108,0,2.1-.039,2.982-.1a6.3,6.3,0,0,1-1.268-3.806ZM6.053,5.782H17.876a1.385,1.385,0,0,1,0,2.77H6.053a1.385,1.385,0,0,1,0-2.77Zm0,8.552a1.385,1.385,0,0,1,0-2.77h6.941a1.385,1.385,0,0,1,0,2.77Z" fill="#388cff"/>
      <path id="Path_21408" data-name="Path 21408" d="M20.023,15.047A4.977,4.977,0,1,0,25,20.023a4.976,4.976,0,0,0-4.977-4.977Zm.928,7.446a.928.928,0,1,1-1.855,0V20.045a.928.928,0,0,1,1.855,0Zm-.038-4.434a.524.524,0,0,1-.4.4,3.017,3.017,0,0,1-.5.038,2.968,2.968,0,0,1-.5-.038.524.524,0,0,1-.4-.4,3.017,3.017,0,0,1-.038-.5,2.968,2.968,0,0,1,.038-.5.524.524,0,0,1,.4-.4,3.017,3.017,0,0,1,.5-.038,2.968,2.968,0,0,1,.5.038.524.524,0,0,1,.4.4,3.017,3.017,0,0,1,.038.5A2.968,2.968,0,0,1,20.913,18.059Z" fill="#388cff"/>
    </g>
  </g>
</svg>
