<svg xmlns="http://www.w3.org/2000/svg" width="70.003" height="20" viewBox="0 0 70.003 20">
  <path id="Path_21427" data-name="Path 21427" d="M1.695-17.626H6.962a1.235,1.235,0,0,1,.889.34,1.129,1.129,0,0,1,.356.851,1.072,1.072,0,0,1-.356.819,1.257,1.257,0,0,1-.889.33H1.695a1.235,1.235,0,0,1-.889-.34,1.129,1.129,0,0,1-.356-.851A1.072,1.072,0,0,1,.806-17.3,1.257,1.257,0,0,1,1.695-17.626Zm2.378-2.66a1.268,1.268,0,0,1,.945.372,1.267,1.267,0,0,1,.367.926v9.468a.9.9,0,0,0,.122.489.694.694,0,0,0,.333.277,1.207,1.207,0,0,0,.456.085,1.223,1.223,0,0,0,.489-.1,1.282,1.282,0,0,1,.511-.1.761.761,0,0,1,.567.277,1.086,1.086,0,0,1,.256.766,1.122,1.122,0,0,1-.678.979,2.912,2.912,0,0,1-1.456.383A7.991,7.991,0,0,1,4.951-6.53a2.874,2.874,0,0,1-1.067-.362,2.251,2.251,0,0,1-.833-.883,3.373,3.373,0,0,1-.333-1.638v-9.574a1.229,1.229,0,0,1,.389-.926A1.344,1.344,0,0,1,4.073-20.285ZM12.43-6.455a1.306,1.306,0,0,1-.956-.372,1.247,1.247,0,0,1-.378-.926V-16.54a1.247,1.247,0,0,1,.378-.926,1.306,1.306,0,0,1,.956-.372,1.306,1.306,0,0,1,.956.372,1.247,1.247,0,0,1,.378.926v2l-.156-1.426a3.309,3.309,0,0,1,.633-.9,3.739,3.739,0,0,1,.878-.66,4.094,4.094,0,0,1,1.045-.394,4.949,4.949,0,0,1,1.111-.128,1.749,1.749,0,0,1,1.122.362,1.064,1.064,0,0,1,.456.851,1.232,1.232,0,0,1-.378,1.011,1.274,1.274,0,0,1-.822.309,1.913,1.913,0,0,1-.767-.149,1.972,1.972,0,0,0-.789-.149,2,2,0,0,0-.811.181,2.224,2.224,0,0,0-.756.564,2.939,2.939,0,0,0-.556.947,3.789,3.789,0,0,0-.211,1.33v5.043a1.247,1.247,0,0,1-.378.926A1.306,1.306,0,0,1,12.43-6.455ZM30.011-17.838a1.306,1.306,0,0,1,.956.372,1.247,1.247,0,0,1,.378.926V-7.5a5.581,5.581,0,0,1-.767,3.117,4.316,4.316,0,0,1-2.056,1.67,7.788,7.788,0,0,1-2.889.511,11.493,11.493,0,0,1-1.511-.106,5.279,5.279,0,0,1-1.311-.319,1.884,1.884,0,0,1-.922-.691,1,1,0,0,1-.1-.883,1.341,1.341,0,0,1,.645-.84,1.155,1.155,0,0,1,.934-.053q.356.106.934.33a3.683,3.683,0,0,0,1.334.223,4.691,4.691,0,0,0,1.7-.266A3.546,3.546,0,0,0,28.355-5.7,6.5,6.5,0,0,0,28.7-7.413V-8.838l.467.511a3.751,3.751,0,0,1-.945,1.16,3.906,3.906,0,0,1-1.345.691,6.176,6.176,0,0,1-1.778.234,3.952,3.952,0,0,1-2.056-.521,3.6,3.6,0,0,1-1.367-1.447,4.463,4.463,0,0,1-.489-2.117V-16.54a1.247,1.247,0,0,1,.378-.926,1.306,1.306,0,0,1,.956-.372,1.306,1.306,0,0,1,.956.372,1.247,1.247,0,0,1,.378.926v5.447a2.51,2.51,0,0,0,.633,1.947,2.566,2.566,0,0,0,1.767.564,2.737,2.737,0,0,0,1.311-.287,1.949,1.949,0,0,0,.822-.851,2.982,2.982,0,0,0,.289-1.372V-16.54a1.247,1.247,0,0,1,.378-.926A1.306,1.306,0,0,1,30.011-17.838ZM44.3-22.2a.65.65,0,0,1,.481.186.622.622,0,0,1,.186.457V-7.1a.611.611,0,0,1-.194.455.653.653,0,0,1-.472.189.646.646,0,0,1-.481-.189.624.624,0,0,1-.186-.455V-9.626l.389-.3a2.733,2.733,0,0,1-.336,1.261,4.272,4.272,0,0,1-.945,1.2,4.895,4.895,0,0,1-1.423.888,4.543,4.543,0,0,1-1.759.338,4.944,4.944,0,0,1-2.67-.739A5.273,5.273,0,0,1,35.012-9a6.048,6.048,0,0,1-.689-2.91,6.059,6.059,0,0,1,.689-2.915,5.227,5.227,0,0,1,1.87-2.013,4.936,4.936,0,0,1,2.653-.731,4.838,4.838,0,0,1,1.748.316,4.784,4.784,0,0,1,1.456.87,4.265,4.265,0,0,1,.995,1.261,3.2,3.2,0,0,1,.364,1.484l-.467-.33v-7.585a.624.624,0,0,1,.186-.455A.646.646,0,0,1,44.3-22.2ZM39.674-7.434a3.824,3.824,0,0,0,2.1-.58,4.02,4.02,0,0,0,1.428-1.6,4.986,4.986,0,0,0,.52-2.3,4.949,4.949,0,0,0-.52-2.3A4.011,4.011,0,0,0,41.769-15.8a3.836,3.836,0,0,0-2.095-.58,3.8,3.8,0,0,0-2.073.58,4.073,4.073,0,0,0-1.445,1.588,4.885,4.885,0,0,0-.528,2.3,4.886,4.886,0,0,0,.528,2.287,4.119,4.119,0,0,0,1.445,1.6A3.758,3.758,0,0,0,39.674-7.434ZM59.484-11.9A5.715,5.715,0,0,1,58.748-9a5.411,5.411,0,0,1-2,2.019,5.609,5.609,0,0,1-2.873.737,5.622,5.622,0,0,1-2.864-.737A5.455,5.455,0,0,1,48.987-9a5.665,5.665,0,0,1-.745-2.9,5.7,5.7,0,0,1,.745-2.915,5.475,5.475,0,0,1,2.02-2.021,5.606,5.606,0,0,1,2.864-.739,5.593,5.593,0,0,1,2.873.739,5.431,5.431,0,0,1,2,2.021A5.747,5.747,0,0,1,59.484-11.9Zm-1.334,0a4.7,4.7,0,0,0-.556-2.314A4.178,4.178,0,0,0,56.072-15.8a4.18,4.18,0,0,0-2.2-.582,4.192,4.192,0,0,0-2.192.582,4.221,4.221,0,0,0-1.539,1.588,4.648,4.648,0,0,0-.564,2.314A4.6,4.6,0,0,0,50.14-9.6,4.221,4.221,0,0,0,51.68-8.016a4.192,4.192,0,0,0,2.192.582,4.18,4.18,0,0,0,2.2-.582A4.178,4.178,0,0,0,57.595-9.6,4.66,4.66,0,0,0,58.15-11.9Zm3.973,3.723a.839.839,0,0,1-.158-.5.513.513,0,0,1,.269-.4.59.59,0,0,1,.414-.117.656.656,0,0,1,.436.218,4.57,4.57,0,0,0,1.448,1.2,4.293,4.293,0,0,0,2.037.452,4.178,4.178,0,0,0,1.242-.2,2.362,2.362,0,0,0,1.009-.612,1.479,1.479,0,0,0,.4-1.066,1.419,1.419,0,0,0-.4-1.056,2.9,2.9,0,0,0-1.036-.636,11.168,11.168,0,0,0-1.353-.41q-.756-.191-1.461-.434a5.289,5.289,0,0,1-1.256-.614,2.945,2.945,0,0,1-.878-.91,2.445,2.445,0,0,1-.328-1.3,2.562,2.562,0,0,1,.506-1.569A3.321,3.321,0,0,1,64.4-17.192a4.964,4.964,0,0,1,1.987-.38,5.842,5.842,0,0,1,1.211.136,5.063,5.063,0,0,1,1.261.455,3.879,3.879,0,0,1,1.122.878.559.559,0,0,1,.2.423.58.58,0,0,1-.231.449.661.661,0,0,1-.411.12.543.543,0,0,1-.383-.168,3.374,3.374,0,0,0-1.261-.872,4.251,4.251,0,0,0-1.589-.293,3.728,3.728,0,0,0-1.206.194,2.232,2.232,0,0,0-.945.6,1.509,1.509,0,0,0-.372,1.064,1.448,1.448,0,0,0,.442,1.008,3.123,3.123,0,0,0,1.092.644,15.863,15.863,0,0,0,1.528.471,13.825,13.825,0,0,1,1.364.4,4.709,4.709,0,0,1,1.15.577,2.619,2.619,0,0,1,.8.886,2.737,2.737,0,0,1,.3,1.343,2.515,2.515,0,0,1-.542,1.62,3.437,3.437,0,0,1-1.45,1.04,5.417,5.417,0,0,1-2.02.362,6.286,6.286,0,0,1-2.323-.444A4.942,4.942,0,0,1,62.123-8.173Z" transform="translate(-0.45 22.2)" fill="#c4c2c2"/>
</svg>
