<svg xmlns="http://www.w3.org/2000/svg" width="15.3" height="15.3" viewBox="0 0 15.3 15.3">
  <g id="Group_3290" data-name="Group 3290" transform="translate(0.15 0.15)">
    <g id="Group_3166" data-name="Group 3166" transform="translate(4.911 5.253)">
      <g id="Group_3165" data-name="Group 3165">
        <path id="Path_15412" data-name="Path 15412" d="M133.912,136.19a.642.642,0,0,0-.908,0l-2.756,2.755-1.151-1.151a.642.642,0,1,0-.908.908l1.6,1.6a.642.642,0,0,0,.908,0l3.21-3.21A.642.642,0,0,0,133.912,136.19Z" transform="translate(-128.002 -136.002)" fill="#37ef9a" stroke="#404040" stroke-width="0.3"/>
      </g>
    </g>
    <path id="Path_15413" data-name="Path 15413" d="M14.375,6.875a.625.625,0,0,0-.625.625,6.25,6.25,0,1,1-1.815-4.4.625.625,0,1,0,.887-.881A7.5,7.5,0,1,0,15,7.5.625.625,0,0,0,14.375,6.875Z" transform="translate(0 0)" fill="#37ef9a" stroke="#2c2a2a" stroke-width="0.3"/>
  </g>
</svg>
