<svg id="_20x20" data-name="20x20" xmlns="http://www.w3.org/2000/svg" xmlns:xlink="http://www.w3.org/1999/xlink" width="20" height="20" viewBox="0 0 20 20">
  <defs>
    <clipPath id="clip-path">
      <rect id="Rectangle_4612" data-name="Rectangle 4612" width="20" height="20" fill="none"/>
    </clipPath>
  </defs>
  <g id="Mask_Group_303" data-name="Mask Group 303" clip-path="url(#clip-path)">
    <g id="Mask_Group_300" data-name="Mask Group 300" clip-path="url(#clip-path)">
      <g id="whatsapp-5" transform="translate(0 0.008)">
        <g id="Group_10739" data-name="Group 10739" transform="translate(4.964 4.726)">
          <g id="Group_10738" data-name="Group 10738">
            <path id="Path_21407" data-name="Path 21407" d="M8.859,3.551A5.121,5.121,0,0,0,3.723,8.658a5.063,5.063,0,0,0,.983,3l-.65,1.9,1.983-.634a5.169,5.169,0,0,0,7.994-4.266A5.158,5.158,0,0,0,8.859,3.551Zm3.013,7.216a1.564,1.564,0,0,1-1.015.714c-.27.032-.27.222-1.808-.365A6.182,6.182,0,0,1,6.48,8.864a2.831,2.831,0,0,1-.619-1.538,1.626,1.626,0,0,1,.523-1.237.6.6,0,0,1,.4-.19c.1,0,.206.016.285.016.1,0,.206-.048.333.254s.428,1.031.46,1.11a.284.284,0,0,1,.016.254,2.046,2.046,0,0,1-.143.254c-.079.079-.159.19-.222.254-.079.079-.159.159-.063.3a5.085,5.085,0,0,0,.841,1.031,4.381,4.381,0,0,0,1.205.745c.143.079.238.063.317-.032a4.758,4.758,0,0,0,.476-.587c.1-.143.206-.127.333-.079.143.048.872.412,1.031.492.143.079.254.111.285.174a1.088,1.088,0,0,1-.062.683Z" transform="translate(-3.723 -3.55)" fill="#35ce3f"/>
          </g>
        </g>
        <g id="Group_10741" data-name="Group 10741">
          <g id="Group_10740" data-name="Group 10740">
            <path id="Path_21408" data-name="Path 21408" d="M14.972.006H5.012A5.023,5.023,0,0,0,0,5.018V15a5.019,5.019,0,0,0,5.012,5h9.976A5.023,5.023,0,0,0,20,14.978V5.018A5.046,5.046,0,0,0,14.972.006ZM10.1,15.914a6.066,6.066,0,0,1-2.966-.761L3.743,16.231l1.11-3.251a6.137,6.137,0,1,1,5.25,2.934Z" transform="translate(0 -0.006)" fill="#35ce3f"/>
          </g>
        </g>
      </g>
    </g>
  </g>
</svg>
