<svg xmlns="http://www.w3.org/2000/svg" width="24.986" height="25" viewBox="0 0 24.986 25">
  <path id="woman" d="M20.762,18.8l-3.987-1-.23-.921a13.2,13.2,0,0,0,4.234-1.325.52.52,0,0,0,.246-.417.528.528,0,0,0-.2-.445c-.018-.012-1.878-1.549-1.878-6.872,0-4.489-1.05-6.765-3.123-6.765h-.312A3.328,3.328,0,0,0,12.7.02c-1.956,0-6.245,1.972-6.245,7.807,0,5.323-1.86,6.86-1.873,6.87a.52.52,0,0,0,.043.863,12.951,12.951,0,0,0,4.232,1.326l-.23.919-3.986,1A5.842,5.842,0,0,0,.206,24.479a.52.52,0,0,0,.52.52H24.672a.52.52,0,0,0,.52-.52A5.842,5.842,0,0,0,20.762,18.8Z" transform="translate(-0.206 0.001)" fill="#c4c2c2"/>
</svg>
